<?xml version="1.0" encoding="UTF-8" standalone="no"?>
<!DOCTYPE svg PUBLIC "-//W3C//DTD SVG 1.1//EN" "http://www.w3.org/Graphics/SVG/1.1/DTD/svg11.dtd">
<svg width="100%" height="100%" viewBox="0 0 800 600" version="1.1" xmlns="http://www.w3.org/2000/svg" xmlns:xlink="http://www.w3.org/1999/xlink" xml:space="preserve" xmlns:serif="http://www.serif.com/" style="fill-rule:evenodd;clip-rule:evenodd;stroke-linecap:round;stroke-linejoin:round;stroke-miterlimit:1.5;">
    <g transform="matrix(1,0,0,1,57.6575,14.5179)">
        <g transform="matrix(1,0,0,0.967037,29.9649,135.787)">
            <path d="M542.468,244.349L513.847,229.55L485.225,244.349L513.847,259.148L542.468,244.349Z" style="fill:rgb(0,157,222);"/>
        </g>
        <g transform="matrix(1,0,0,0.967037,-85.2252,192.679)">
            <path d="M542.468,244.349L513.847,229.55L485.225,244.349L513.847,259.148L542.468,244.349Z" style="fill:rgb(65,65,65);"/>
        </g>
        <g transform="matrix(1,0,0,0.967037,-27.2783,107.166)">
            <path d="M542.468,244.349L513.847,229.55L485.225,244.349L513.847,259.148L542.468,244.349Z" style="fill:rgb(65,65,65);"/>
        </g>
        <g transform="matrix(1,0,0,0.967037,88.0879,164.848)">
            <path d="M541.589,243.895L512.967,229.096L484.346,243.895L512.615,258.875L541.589,243.895Z" style="fill:rgb(65,65,65);"/>
        </g>
        <g transform="matrix(1,0,0,0.967037,144.979,192.766)">
            <path d="M541.941,244.622L513.319,229.824L484.697,244.986L513.319,259.421L541.941,244.622Z" style="fill:rgb(65,65,65);"/>
        </g>
        <g transform="matrix(1,0,0,0.967037,29.3251,250.656)">
            <path d="M542.757,243.771L514.135,228.973L485.865,243.589L514.135,258.57L542.757,243.771Z" style="fill:rgb(65,65,65);"/>
        </g>
        <g transform="matrix(1,0,0,0.967037,-27.5659,222.211)">
            <path d="M542.757,243.771L514.135,228.973L485.865,243.589L514.135,258.57L542.757,243.771Z" style="fill:rgb(65,65,65);"/>
        </g>
        <g transform="matrix(1.01024,0,0,0.993856,-92.1684,16.5531)">
            <path d="M529.501,407.859L615.366,364.926" style="fill:none;stroke:rgb(0,157,222);stroke-width:1px;"/>
        </g>
        <g transform="matrix(1.01024,0,0,0.993856,-34.0455,45.4385)">
            <path d="M529.501,407.859L615.366,364.926" style="fill:none;stroke:rgb(65,65,65);stroke-width:1px;"/>
        </g>
        <g transform="matrix(1.01024,0,0,0.993856,-155.688,113.415)">
            <path d="M593.247,325.063L621.578,339.462" style="fill:none;stroke:rgb(65,65,65);stroke-width:1px;"/>
        </g>
        <g transform="matrix(1.01024,0,0,0.993856,-99.562,141.478)">
            <path d="M593.247,325.063L621.578,339.462" style="fill:none;stroke:rgb(65,65,65);stroke-width:1px;"/>
        </g>
        <g transform="matrix(1.01024,0,0,0.993856,23.6376,74.4561)">
            <path d="M529.501,407.859L615.366,364.926" style="fill:none;stroke:rgb(65,65,65);stroke-width:1px;"/>
        </g>
        <g transform="matrix(1.01024,0,0,0.993856,-42.4946,55.7008)">
            <path d="M593.247,325.063L621.578,339.462" style="fill:none;stroke:rgb(0,157,222);stroke-width:1px;"/>
        </g>
        <g transform="matrix(1.01024,0,0,0.993856,-98.4443,27.726)">
            <path d="M593.247,325.063L621.578,339.462" style="fill:none;stroke:rgb(0,157,222);stroke-width:1px;"/>
        </g>
    </g>
</svg>
