<?xml version="1.0" encoding="UTF-8" standalone="no"?>
<!DOCTYPE svg PUBLIC "-//W3C//DTD SVG 1.1//EN" "http://www.w3.org/Graphics/SVG/1.1/DTD/svg11.dtd">
<svg width="100%" height="100%" viewBox="0 0 400 100" version="1.1" xmlns="http://www.w3.org/2000/svg" xmlns:xlink="http://www.w3.org/1999/xlink" xml:space="preserve" xmlns:serif="http://www.serif.com/" style="fill-rule:evenodd;clip-rule:evenodd;stroke-linejoin:round;stroke-miterlimit:2;">
    <g transform="matrix(1,0,0,1,-1100,-850)">
        <g transform="matrix(8,0,0,1.42857,-8340,-1107.14)">
            <rect x="1180" y="1370" width="50" height="70" style="fill:none;"/>
            <clipPath id="_clip1">
                <rect x="1180" y="1370" width="50" height="70"/>
            </clipPath>
            <g clip-path="url(#_clip1)">
                <g transform="matrix(0.037727,0,0,0.211271,1177.06,1141.18)">
                    <path d="M78.053,1384.96C77.958,1369.51 82.882,1357.23 93.081,1347.5C102.403,1338.61 116.983,1333.06 131.128,1333.02C134.396,1333.01 137.185,1332.48 137.78,1331.75C138.344,1331.06 139.303,1324.12 139.912,1316.33C142.071,1288.67 150.879,1268.59 169.297,1249.34C182.221,1235.83 200.74,1224.71 218.5,1219.8C225.623,1217.83 228.858,1217.58 248,1217.6C268.615,1217.61 269.871,1217.72 278.5,1220.37C296.889,1226.01 316.846,1237.6 326.453,1248.21C329.504,1251.58 332,1253.69 332,1252.89C332,1250.53 323.197,1236.43 318.386,1231.08C315.943,1228.37 310.814,1224.08 306.988,1221.56C299.089,1216.36 298.409,1214.94 299.443,1205.8C301.452,1188.04 311.806,1162.67 323.229,1147.5C343.374,1120.77 367.914,1104.4 400.851,1095.75C411.886,1092.85 413.555,1092.69 432.5,1092.6C450.027,1092.51 453.788,1092.79 462.919,1094.83C496.063,1102.25 522.797,1119.5 541.125,1145.29C543.946,1149.25 548.923,1158.12 552.185,1165C555.447,1171.88 558.668,1178.62 559.342,1180C560.494,1182.35 561.175,1182.54 570.534,1183.1C576.015,1183.43 582.136,1184.04 584.135,1184.44C586.17,1184.85 588.023,1184.77 588.343,1184.25C588.999,1183.19 597.492,1104.77 602.016,1058C603.692,1040.67 605.962,1017.27 607.062,1006C611.346,962.077 612.264,952.244 618.543,883C627.986,778.868 636.485,691.769 637.857,685.074C638.243,683.189 639.047,681.484 639.643,681.286C641.431,680.69 642.845,685.692 645.488,701.965C647.89,716.755 648,719.289 647.991,759.965C647.977,828.117 643.855,981.325 640.054,1055C639.5,1065.72 638.578,1084.62 638.004,1097C636,1140.18 634.906,1161.61 633.956,1176.27C633.43,1184.39 633,1195.9 633,1201.83C633,1208.91 632.571,1213.18 631.75,1214.27C631.062,1215.18 625.449,1218.14 619.276,1220.86C597.909,1230.26 584.911,1239.16 569.964,1254.63C551.337,1273.91 538.567,1297.5 534.88,1319.44C533.773,1326.03 533.825,1327.6 535.309,1332.31C537.372,1338.86 537.561,1342.68 535.75,1341.26C529.89,1336.67 510.667,1334.85 498.879,1337.77L491.259,1339.66L490.205,1332.15C488.524,1320.18 482.688,1309.5 472.073,1298.98C464.863,1291.83 461.781,1289.61 452.987,1285.21C439,1278.21 431.035,1276.63 413.078,1277.26C397.354,1277.82 391.204,1279.26 378.5,1285.36C360.678,1293.92 346.555,1308.39 337.362,1327.5C331.575,1339.53 329.637,1347.4 329.562,1359.16C329.5,1368.8 329.497,1368.82 327.726,1366.03C323.285,1359.04 311.032,1354.41 299.31,1355.29C286.818,1356.24 277.635,1361.55 268.324,1373.22C265.349,1376.95 262.566,1380 262.14,1380C261.714,1380 260.561,1377.41 259.578,1374.25C256.561,1364.54 252.115,1357.35 244.949,1350.59C230.871,1337.31 211.657,1332.25 191.517,1336.51C176.396,1339.72 166.215,1347.65 159.122,1361.76L155.068,1369.82L147.784,1366.18C140.952,1362.77 139.908,1362.55 130.95,1362.52C121.879,1362.5 121.011,1362.69 113.685,1366.31C107.52,1369.36 105.147,1371.22 101.866,1375.56C99.607,1378.55 97.476,1381.05 97.13,1381.11C96.783,1381.18 95.245,1381.38 93.712,1381.56C90.583,1381.93 82.088,1387.79 79.68,1391.24C78.192,1393.38 78.102,1393.03 78.053,1384.96ZM1269.5,1390.9C1267.4,1387.54 1258.85,1382 1255.78,1382C1253.3,1382 1251.39,1380.65 1245.77,1374.91C1238.17,1367.13 1231.8,1363.6 1223.41,1362.52C1217.07,1361.69 1207.48,1363.37 1200.26,1366.57C1197.23,1367.9 1194.24,1369 1193.63,1369C1193.01,1369 1190.97,1365.81 1189.1,1361.92C1182.57,1348.32 1171.53,1339.49 1157.27,1336.47C1134.29,1331.6 1110.6,1339.79 1097.59,1357.09C1094.02,1361.84 1090.13,1370.51 1087.4,1379.82C1087.18,1380.55 1084.66,1378.02 1081.75,1374.16C1075.62,1366.01 1070.63,1361.74 1063,1358.11C1058.2,1355.83 1056.22,1355.5 1047.5,1355.51C1035.35,1355.52 1029.05,1357.87 1023.11,1364.62L1019.29,1368.95L1018.7,1359.23C1018,1347.72 1015.92,1339.17 1011.4,1329.24C1001.97,1308.49 983.097,1290.15 963,1282.21C947.482,1276.07 926.06,1274.7 910.5,1278.85C893.438,1283.41 877.476,1293.87 868.583,1306.33C862.738,1314.52 859.705,1321.44 857.531,1331.54L855.8,1339.59L849.15,1337.85C837.555,1334.82 825.782,1335.79 815.169,1340.65C813.337,1341.49 811.618,1341.95 811.349,1341.68C811.08,1341.41 811.821,1338.11 812.995,1334.35C815.58,1326.06 815.158,1320.75 810.865,1307.54C799.571,1272.79 773.338,1243.13 738.5,1225.72C724.2,1218.57 713.992,1215.43 695,1212.32C686.475,1210.92 679.118,1209.42 678.651,1208.99C677.564,1207.98 677.724,1158.61 679.009,1098.5C679.561,1072.65 680.697,1015.95 681.532,972.5C682.367,929.05 683.484,873.025 684.014,848C684.543,822.975 685.031,785.85 685.097,765.5C685.163,745.15 685.529,725.8 685.911,722.5L686.605,716.5L687.232,721C687.577,723.475 688.595,748.225 689.494,776C690.394,803.775 691.536,835.725 692.034,847C692.532,858.275 693.415,884.375 693.997,905C695.176,946.776 698.485,1024.97 699.984,1046.5C700.52,1054.2 701.889,1074.45 703.027,1091.5C704.164,1108.55 706.882,1142.08 709.068,1166C712.747,1206.27 713.197,1209.63 715.132,1211.25C716.281,1212.21 717.708,1213 718.302,1213C718.896,1213 718.652,1212.44 717.76,1211.75C716.413,1210.71 715.956,1206.76 715.069,1188.5C714.482,1176.4 713.565,1158.85 713.031,1149.5C711.223,1117.84 706.549,1015.21 703.99,951C700.908,873.671 699.878,752.45 702.014,718.5C703.17,700.13 704.818,686.282 706.15,683.75C707.909,680.407 709.823,681.82 710.891,687.25C713.261,699.299 718.701,755.323 729.024,874C736.65,961.674 752.353,1120.67 758.603,1173.5C759.163,1178.24 760.832,1186 761.289,1186C761.405,1186 764.651,1185.33 768.5,1184.52C772.35,1183.7 778.257,1183.03 781.628,1183.02C785.316,1183.01 788.149,1182.5 788.745,1181.75C789.289,1181.06 790.727,1177.81 791.94,1174.52C795.562,1164.7 802.56,1152.04 809.402,1142.95C828.306,1117.82 854.402,1101.89 889,1094.36C901.914,1091.55 931.001,1091.77 944.205,1094.78C971.201,1100.93 993.316,1113.33 1012.48,1133.08C1032.3,1153.51 1043.62,1175.91 1048.43,1204.23C1050.33,1215.37 1049.99,1216.64 1044.28,1219.99C1033.1,1226.54 1024.88,1235.36 1018.89,1247.21C1014.58,1255.75 1015.36,1256.94 1020.89,1250.32C1032.09,1236.92 1050.92,1225.83 1072.81,1219.75C1079.44,1217.91 1083.26,1217.61 1100.5,1217.56C1119.3,1217.5 1121.08,1217.66 1130.2,1220.21C1167.38,1230.61 1196.43,1259.86 1206.08,1296.62C1207.41,1301.66 1208.4,1309.54 1208.83,1318.5L1209.5,1332.5L1220.5,1333.13C1235.08,1333.96 1242.49,1336.51 1252.49,1344.11C1261.12,1350.67 1267.85,1361.15 1269.96,1371.32C1271.35,1378.01 1270.99,1393.29 1269.5,1390.9ZM637.001,1212.25C637.002,1211.29 638.333,1196.78 639.96,1180C645.911,1118.62 649.436,1075.72 650.971,1046C652.404,1018.23 655.742,937.074 656.975,900C657.552,882.675 658.458,855.675 658.99,840C659.522,824.325 660.207,796.425 660.511,778C661.096,742.536 662.758,716.15 664.069,721.5C664.474,723.15 665.067,749.25 665.388,779.5C665.71,809.75 666.417,850.7 666.961,870.5C669.771,972.788 672.945,1137.74 672.981,1183.27C673.003,1212.4 675.201,1208.85 655.185,1211.94C638.685,1214.49 637,1214.52 637.001,1212.25ZM528.582,1075C526.23,1068.61 524.155,898.719 525.902,855.5C526.524,840.1 527.325,809.086 527.682,786.58C528.605,728.328 530.097,736.574 531.377,807C532.666,877.928 532.759,961.058 531.62,1024.5C530.815,1069.36 530.21,1079.42 528.582,1075ZM455.596,1067.97C454.866,1063.59 453.313,1003.46 451.879,924C450.587,852.451 451.314,748.487 453.474,696C454.3,675.925 455.235,641.725 455.551,620C455.867,598.275 456.358,579.381 456.641,578.014C458.199,570.498 459.014,583.57 459.981,631.585C460.567,660.688 461.477,702.05 462.005,723.5C463.774,795.514 462.741,935.203 459.986,996.5C459.443,1008.6 458.713,1029.75 458.365,1043.5C457.754,1067.66 456.86,1075.56 455.596,1067.97ZM890.662,1068.41C890.345,1067.36 889.607,1049.62 889.022,1029C888.437,1008.38 887.522,976.425 886.988,958C883.745,846.082 883.499,779.634 886.036,700.5C886.547,684.55 887.444,652.471 888.028,629.214C889.668,563.974 891.323,569.996 892.505,645.5C892.815,665.3 893.487,692.75 894,706.5C895.695,751.978 896.283,879.747 895.088,943C894.46,976.275 893.675,1017.9 893.344,1035.5C892.782,1065.41 892.138,1073.31 890.662,1068.41ZM816.658,1036.29C815.093,961.641 814.769,890.479 815.856,860.5C816.474,843.45 817.281,812.288 817.649,791.25C818.016,770.212 818.696,753 819.158,753C819.621,753 820.02,753.337 820.044,753.75C820.069,754.163 820.504,779.25 821.01,809.5C821.517,839.75 822.244,880.542 822.625,900.149C823.384,939.212 821.521,1048.06 819.898,1059.5C819.352,1063.35 818.549,1066.85 818.115,1067.29C817.68,1067.72 817.024,1053.77 816.658,1036.29ZM405.301,1065.48C403.379,1062.03 403.075,1057.62 401.985,1017.5C398.191,877.882 397.841,747.024 401.008,651.5C402.389,609.854 403.962,532.421 403.996,504.5C404.023,482.075 404.572,474.618 406.128,475.579C406.607,475.875 407.014,491.729 407.031,510.809C407.048,529.889 407.718,570.025 408.518,600C411.338,705.557 412.202,788.943 411.696,906.5C411.186,1024.75 410.941,1033.22 407.214,1061.5C406.533,1066.67 406.269,1067.22 405.301,1065.48ZM941.216,1064C940.595,1062.08 939.629,1056 939.072,1050.5C936.353,1023.71 935.833,995.382 935.774,871C935.717,750.129 936.057,724.821 939.014,629.5C939.611,610.25 940.425,569.889 940.823,539.81C941.221,509.73 941.874,484.793 942.274,484.393C942.673,483.994 943.22,483.887 943.49,484.156C943.759,484.426 944.214,506.663 944.502,533.573C944.789,560.483 945.463,603.65 945.999,629.5C949.563,801.176 949.503,781.414 946.997,963C946.156,1023.92 944.871,1057.27 943.087,1064.5L942.347,1067.5L941.216,1064ZM669.072,703.583C664.218,694.729 660.397,685.634 659.481,680.749L658.777,677L690,677L689.973,679.75C689.916,685.497 677.234,710.667 674.395,710.667C673.604,710.667 671.208,707.479 669.072,703.583ZM623,671.021C621.823,670.277 621.5,667.823 621.5,659.62C621.5,653.871 621.876,648.792 622.336,648.333C622.797,647.875 646.026,647.509 673.957,647.52C715.137,647.537 725.05,647.796 726.371,648.893C728.692,650.819 728.738,668.119 726.429,670.429C725.041,671.816 718.976,671.998 674.679,671.985C644.803,671.976 623.893,671.586 623,671.021ZM630.367,638.216C628.868,635.816 631.186,617.13 633.136,615.895C634.67,614.923 708.053,614.661 712.799,615.61C716.599,616.37 717.677,618.921 718.568,629.255C719.047,634.813 718.885,637.434 717.996,638.505C716.93,639.789 710.73,640 674.118,640C634.286,640 631.408,639.883 630.367,638.216ZM529.816,638.353C527.881,638.012 526.98,637.13 526.586,635.19C525.663,630.646 523.776,549.821 524.469,544.5C525.195,538.92 527.101,535.17 556.487,481.5C589.459,421.282 597.285,406.787 602.056,397.099L606.686,387.697L606.871,401.599C607.39,440.484 615.809,512.83 625.029,557.64C627.31,568.727 627.506,573.37 625.75,574.705C625.062,575.228 612.125,580.478 597,586.372C581.875,592.266 568.825,597.758 568,598.577C566.815,599.754 566.395,603.93 566,618.452C565.725,628.565 565.161,637.177 564.746,637.59C563.899,638.434 533.986,639.087 529.816,638.353ZM787,638.138L783.5,637.5L782.727,620C782.301,610.375 781.747,601.552 781.494,600.394C780.935,597.832 776.557,595.798 749.5,585.532C738.5,581.358 727.527,577.032 725.115,575.919L720.731,573.895L721.331,568.698C721.662,565.839 723.747,553.825 725.965,542C734.213,498.033 740.63,439.398 742.27,393L742.5,386.5L744.384,391.5C746.118,396.102 772.579,445.862 801.018,498C807.468,509.825 815.165,524.225 818.123,530L823.5,540.5L823.208,568.5C822.888,599.215 821.658,636.705 820.95,637.333C820.11,638.077 790.519,638.779 787,638.138ZM639.165,605.25C638.018,603.033 639.376,591.456 641.016,589.481C642.054,588.23 647.173,588 674,588C698.198,588 705.996,588.297 706.766,589.25C708.091,590.887 709.366,602.272 708.523,604.929C707.875,606.97 707.375,607 673.968,607C642.696,607 640,606.864 639.165,605.25ZM643.14,575.14C641.411,573.411 639.514,565.093 635.012,539.5C622.346,467.507 615.059,357.739 619.035,298.83C620.455,277.777 623.849,246.19 625.113,242.25C626.367,238.339 626.679,238.321 639.283,241.459C662.839,247.322 685.706,247.408 707.687,241.718C714.94,239.84 721.328,238.584 721.882,238.927C723.866,240.153 725.642,251.576 728.502,281.5C731.3,310.788 730.143,382.176 725.956,438.5C722.49,485.13 709.428,570.165 704.892,575.631C703.977,576.733 698.025,577 674.378,577C647.069,577 644.869,576.869 643.14,575.14ZM682.612,335.523C696.594,331.371 704.838,315.275 700.546,300.511C698.148,292.26 689.745,283.854 681.5,281.457C664.011,276.373 646.568,289.626 646.568,308C646.568,321.061 654.993,332.094 668,336.065C672.041,337.298 677.288,337.104 682.612,335.523ZM655.5,236.59C639.199,233.424 628.877,229.729 627.689,226.632C626.528,223.607 632.796,198.273 639.464,179.036C647.114,156.972 653.24,143.929 663.832,127.163L670.5,116.608L671,93.054C671.275,80.099 671.864,68.938 672.309,68.25C672.99,67.198 676.618,66.452 677.174,67.25C677.27,67.388 677.607,78.75 677.924,92.5L678.5,117.5L683.141,124.612C697.97,147.339 709.328,175.377 718.497,211.89C719.932,217.604 720.97,223.679 720.803,225.39C720.533,228.164 719.868,228.75 714.652,230.815C699.339,236.876 671.149,239.628 655.5,236.59Z" style="fill:rgb(29,63,88);"/>
                </g>
            </g>
        </g>
    </g>
</svg>
