<?xml version="1.0" encoding="UTF-8" standalone="no"?>
<!DOCTYPE svg PUBLIC "-//W3C//DTD SVG 1.1//EN" "http://www.w3.org/Graphics/SVG/1.1/DTD/svg11.dtd">
<svg width="100%" height="100%" viewBox="0 0 400 50" version="1.1" xmlns="http://www.w3.org/2000/svg" xmlns:xlink="http://www.w3.org/1999/xlink" xml:space="preserve" xmlns:serif="http://www.serif.com/" style="fill-rule:evenodd;clip-rule:evenodd;stroke-linejoin:round;stroke-miterlimit:2;">
    <g transform="matrix(1,0,0,1,-2600,-500)">
        <g transform="matrix(4,0,0,1.25,-6200,287.5)">
            <rect x="2200" y="170" width="100" height="40" style="fill:none;"/>
            <clipPath id="_clip1">
                <rect x="2200" y="170" width="100" height="40"/>
            </clipPath>
            <g clip-path="url(#_clip1)">
                <g transform="matrix(0.5,0,0,3.94344,1350,-2234.93)">
                    <path d="M1719.21,616.861C1717.13,616.861 1715.27,616.756 1713.6,616.545C1711.94,616.334 1710.36,615.964 1708.84,615.435C1708.46,615.302 1708.16,615.152 1707.95,614.983C1707.74,614.815 1707.64,614.646 1707.64,614.478C1707.64,614.201 1707.88,613.957 1708.37,613.746C1708.86,613.536 1709.48,613.431 1710.22,613.431C1710.79,613.431 1711.29,613.503 1711.73,613.647C1712.86,614.02 1713.98,614.303 1715.09,614.496C1716.21,614.688 1717.58,614.785 1719.21,614.785C1720.31,614.785 1721.32,614.715 1722.24,614.577C1723.16,614.439 1723.9,614.252 1724.46,614.017C1725.03,613.783 1725.31,613.515 1725.31,613.214C1725.31,612.853 1725.04,612.546 1724.51,612.293C1723.97,612.04 1723.16,611.827 1722.06,611.652C1720.96,611.478 1719.57,611.342 1717.88,611.246C1716.27,611.15 1714.86,611.002 1713.65,610.803C1712.43,610.605 1711.41,610.352 1710.6,610.045C1709.78,609.738 1709.17,609.377 1708.75,608.962C1708.34,608.547 1708.13,608.08 1708.13,607.563C1708.13,606.78 1708.63,606.112 1709.62,605.558C1710.61,605.005 1711.96,604.583 1713.65,604.295C1715.34,604.006 1717.21,603.861 1719.26,603.861C1721.18,603.861 1722.97,603.979 1724.62,604.213C1726.26,604.448 1727.61,604.746 1728.64,605.107C1729.51,605.384 1729.93,605.703 1729.93,606.064C1729.93,606.329 1729.68,606.569 1729.18,606.786C1728.67,607.003 1728.08,607.111 1727.4,607.111C1726.95,607.111 1726.55,607.057 1726.2,606.949C1725.72,606.78 1725.08,606.621 1724.28,606.47C1723.48,606.32 1722.64,606.193 1721.75,606.091C1720.86,605.989 1720.03,605.938 1719.26,605.938C1717.98,605.938 1716.9,606.004 1716.03,606.136C1715.15,606.269 1714.49,606.449 1714.05,606.678C1713.6,606.907 1713.38,607.171 1713.38,607.472C1713.38,607.833 1713.64,608.131 1714.16,608.366C1714.68,608.601 1715.43,608.787 1716.41,608.926C1717.39,609.064 1718.56,609.188 1719.92,609.296C1721.7,609.428 1723.27,609.585 1724.62,609.765C1725.97,609.946 1727.09,610.178 1727.98,610.46C1728.87,610.743 1729.53,611.098 1729.98,611.526C1730.42,611.953 1730.65,612.474 1730.65,613.087C1730.65,613.87 1730.11,614.544 1729.05,615.11C1727.98,615.675 1726.58,616.109 1724.84,616.41C1723.1,616.711 1721.23,616.861 1719.21,616.861Z" style="fill:rgb(29,63,88);fill-rule:nonzero;"/>
                    <path d="M1764.42,610.361C1764.42,611.264 1764.05,612.106 1763.31,612.889C1762.57,613.671 1761.52,614.36 1760.17,614.956C1758.82,615.552 1757.22,616.018 1755.37,616.355C1753.51,616.693 1751.49,616.861 1749.29,616.861C1747.1,616.861 1745.08,616.693 1743.24,616.355C1741.4,616.018 1739.81,615.552 1738.46,614.956C1737.11,614.36 1736.06,613.671 1735.32,612.889C1734.58,612.106 1734.21,611.264 1734.21,610.361C1734.21,609.458 1734.58,608.616 1735.32,607.833C1736.06,607.051 1737.11,606.362 1738.46,605.766C1739.81,605.17 1741.4,604.704 1743.24,604.367C1745.08,604.03 1747.1,603.861 1749.29,603.861C1751.49,603.861 1753.51,604.03 1755.37,604.367C1757.22,604.704 1758.82,605.17 1760.17,605.766C1761.52,606.362 1762.57,607.051 1763.31,607.833C1764.05,608.616 1764.42,609.458 1764.42,610.361ZM1758.64,610.361C1758.64,609.555 1758.24,608.823 1757.44,608.167C1756.63,607.511 1755.54,606.991 1754.14,606.606C1752.75,606.22 1751.13,606.028 1749.29,606.028C1747.45,606.028 1745.84,606.22 1744.44,606.606C1743.05,606.991 1741.96,607.508 1741.17,608.158C1740.38,608.808 1739.99,609.543 1739.99,610.361C1739.99,611.168 1740.38,611.899 1741.17,612.555C1741.96,613.211 1743.05,613.731 1744.44,614.117C1745.84,614.502 1747.45,614.694 1749.29,614.694C1751.13,614.694 1752.75,614.502 1754.14,614.117C1755.54,613.731 1756.63,613.211 1757.44,612.555C1758.24,611.899 1758.64,611.168 1758.64,610.361Z" style="fill:rgb(29,63,88);fill-rule:nonzero;"/>
                    <path d="M1772.34,616.68C1771.51,616.68 1770.84,616.575 1770.32,616.364C1769.8,616.154 1769.54,615.892 1769.54,615.579L1769.54,605.143C1769.54,604.83 1769.8,604.568 1770.32,604.358C1770.84,604.147 1771.48,604.042 1772.25,604.042L1786.72,604.042C1787.49,604.042 1788.13,604.141 1788.65,604.34C1789.17,604.538 1789.43,604.794 1789.43,605.107C1789.43,605.372 1789.17,605.607 1788.65,605.811C1788.13,606.016 1787.49,606.118 1786.72,606.118L1774.7,606.118L1775.1,605.901L1775.1,609.531L1774.79,609.296L1784.71,609.296C1785.49,609.296 1786.13,609.395 1786.65,609.594C1787.17,609.792 1787.43,610.048 1787.43,610.361C1787.43,610.626 1787.17,610.861 1786.65,611.065C1786.13,611.27 1785.49,611.372 1784.71,611.372L1774.7,611.372L1775.1,611.21L1775.1,615.579C1775.1,615.892 1774.83,616.154 1774.28,616.364C1773.73,616.575 1773.09,616.68 1772.34,616.68Z" style="fill:rgb(29,63,88);fill-rule:nonzero;"/>
                    <path d="M1797.35,604.024C1797.77,604.024 1798.2,604.069 1798.66,604.159C1799.12,604.249 1799.47,604.367 1799.71,604.511L1810.52,611.264L1808.3,611.228L1819.38,604.511C1819.94,604.186 1820.67,604.024 1821.56,604.024C1822.27,604.024 1822.91,604.126 1823.47,604.331C1824.04,604.535 1824.32,604.8 1824.32,605.125L1824.32,615.579C1824.32,615.892 1824.07,616.154 1823.56,616.364C1823.06,616.575 1822.39,616.68 1821.56,616.68C1820.73,616.68 1820.06,616.575 1819.54,616.364C1819.02,616.154 1818.76,615.892 1818.76,615.579L1818.76,607.075L1820.49,607.238L1811.41,612.853C1811.15,612.985 1810.81,613.099 1810.41,613.196C1810.01,613.292 1809.61,613.334 1809.19,613.322C1808.8,613.334 1808.41,613.292 1808.01,613.196C1807.61,613.099 1807.28,612.985 1807.01,612.853L1798.51,607.4L1799.67,606.443L1799.67,615.579C1799.67,615.892 1799.43,616.154 1798.95,616.364C1798.48,616.575 1797.86,616.68 1797.09,616.68C1796.34,616.68 1795.74,616.575 1795.26,616.364C1794.79,616.154 1794.55,615.892 1794.55,615.579L1794.55,605.125C1794.55,604.824 1794.82,604.565 1795.37,604.349C1795.92,604.132 1796.58,604.024 1797.35,604.024Z" style="fill:rgb(29,63,88);fill-rule:nonzero;"/>
                    <path d="M1859.65,610.361C1859.65,611.264 1859.28,612.106 1858.54,612.889C1857.8,613.671 1856.75,614.36 1855.4,614.956C1854.05,615.552 1852.45,616.018 1850.6,616.355C1848.74,616.693 1846.72,616.861 1844.52,616.861C1842.33,616.861 1840.31,616.693 1838.47,616.355C1836.63,616.018 1835.04,615.552 1833.69,614.956C1832.34,614.36 1831.29,613.671 1830.55,612.889C1829.81,612.106 1829.44,611.264 1829.44,610.361C1829.44,609.458 1829.81,608.616 1830.55,607.833C1831.29,607.051 1832.34,606.362 1833.69,605.766C1835.04,605.17 1836.63,604.704 1838.47,604.367C1840.31,604.03 1842.33,603.861 1844.52,603.861C1846.72,603.861 1848.74,604.03 1850.6,604.367C1852.45,604.704 1854.05,605.17 1855.4,605.766C1856.75,606.362 1857.8,607.051 1858.54,607.833C1859.28,608.616 1859.65,609.458 1859.65,610.361ZM1853.87,610.361C1853.87,609.555 1853.47,608.823 1852.67,608.167C1851.87,607.511 1850.77,606.991 1849.37,606.606C1847.98,606.22 1846.36,606.028 1844.52,606.028C1842.68,606.028 1841.07,606.22 1839.67,606.606C1838.28,606.991 1837.19,607.508 1836.4,608.158C1835.62,608.808 1835.22,609.543 1835.22,610.361C1835.22,611.168 1835.62,611.899 1836.4,612.555C1837.19,613.211 1838.28,613.731 1839.67,614.117C1841.07,614.502 1842.68,614.694 1844.52,614.694C1846.36,614.694 1847.98,614.502 1849.37,614.117C1850.77,613.731 1851.87,613.211 1852.67,612.555C1853.47,611.899 1853.87,611.168 1853.87,610.361Z" style="fill:rgb(29,63,88);fill-rule:nonzero;"/>
                    <path d="M1888.4,604.042C1889.11,604.042 1889.69,604.138 1890.13,604.331C1890.58,604.523 1890.8,604.764 1890.8,605.053L1890.8,615.579C1890.8,615.892 1890.54,616.154 1890.02,616.364C1889.5,616.575 1888.86,616.68 1888.09,616.68C1887.7,616.68 1887.31,616.653 1886.91,616.599C1886.51,616.545 1886.2,616.47 1886,616.374L1868.51,607.364L1869.66,607.075L1869.66,615.669C1869.66,615.958 1869.43,616.199 1868.98,616.392C1868.52,616.584 1867.91,616.68 1867.17,616.68C1866.46,616.68 1865.88,616.584 1865.44,616.392C1864.99,616.199 1864.77,615.958 1864.77,615.669L1864.77,605.143C1864.77,604.83 1865.03,604.568 1865.55,604.358C1866.07,604.147 1866.71,604.042 1867.48,604.042C1867.9,604.042 1868.33,604.075 1868.78,604.141C1869.22,604.207 1869.55,604.307 1869.75,604.439L1886.71,613.214L1885.95,613.431L1885.95,605.053C1885.95,604.764 1886.17,604.523 1886.62,604.331C1887.06,604.138 1887.66,604.042 1888.4,604.042Z" style="fill:rgb(29,63,88);fill-rule:nonzero;"/>
                </g>
            </g>
        </g>
    </g>
</svg>
