<?xml version="1.0" encoding="UTF-8" standalone="no"?><!DOCTYPE svg PUBLIC "-//W3C//DTD SVG 1.1//EN" "http://www.w3.org/Graphics/SVG/1.1/DTD/svg11.dtd"><svg width="100%" height="100%" viewBox="0 0 800 600" version="1.1" xmlns="http://www.w3.org/2000/svg" xmlns:xlink="http://www.w3.org/1999/xlink" xml:space="preserve" xmlns:serif="http://www.serif.com/" style="fill-rule:evenodd;clip-rule:evenodd;stroke-linejoin:round;stroke-miterlimit:2;"><path d="M658.298,500.879l-28.621,-14.311l-28.622,14.311l28.622,14.311l28.621,-14.311Z" style="fill:#63adef;"/><path d="M601.055,443.636l-28.622,-14.311l-28.621,14.311l28.621,14.311l28.622,-14.311Z" style="fill:#63adef;"/><path d="M629.677,429.325l-28.622,-14.311l-28.622,14.311l28.622,14.311l28.622,-14.311Z" style="fill:#63adef;"/><path d="M601.055,415.014l-28.622,-14.311l-28.621,14.311l28.621,14.311l28.622,-14.311Z" style="fill:#63adef;"/><path d="M686.92,515.19l-28.622,-14.311l-28.621,14.311l28.621,14.311l28.622,-14.311Z" style="fill:#4d4d4d;"/><path d="M686.92,486.568l-28.622,-14.31l-28.621,14.31l28.621,14.311l28.622,-14.311Z" style="fill:#4d4d4d;"/></svg>