<?xml version="1.0" encoding="UTF-8" standalone="no"?>
<!DOCTYPE svg PUBLIC "-//W3C//DTD SVG 1.1//EN" "http://www.w3.org/Graphics/SVG/1.1/DTD/svg11.dtd">
<svg width="100%" height="100%" viewBox="0 0 380 7" version="1.1" xmlns="http://www.w3.org/2000/svg" xmlns:xlink="http://www.w3.org/1999/xlink" xml:space="preserve" xmlns:serif="http://www.serif.com/" style="fill-rule:evenodd;clip-rule:evenodd;stroke-linejoin:round;stroke-miterlimit:2;">
    <g transform="matrix(1,0,0,1,-1800,-1593)">
        <g transform="matrix(0.5,0,0,0.0112903,940,1590.97)">
            <rect x="1720" y="180" width="760" height="620" style="fill:none;"/>
            <clipPath id="_clip1">
                <rect x="1720" y="180" width="760" height="620"/>
            </clipPath>
            <g clip-path="url(#_clip1)">
                <g transform="matrix(6.22912,0,0,275.861,1554.31,-62212.1)">
                    <g>
                        <g>
                            <g>
                                <path d="M90.4,222.3C89.8,222.3 89.8,221.6 89.4,221.5C89.1,221.6 89.1,221.8 89.1,222C89.1,223 89.2,224.1 89.2,225.1C89.2,225.9 89.4,226 90.3,225.9C90.4,225.9 90.6,225.9 90.7,226C90.6,226.5 90.3,226.6 89.9,226.6L87.4,226.6C86.9,226.6 86.5,226.2 85.9,226.4C85.9,226.3 85.8,226.2 85.7,226.2L85.7,225.7C86.3,225.9 86.8,225.9 87.4,225.7C87.7,225.6 87.9,225.8 88.1,226C88,226 87.9,226.1 88,226.3C88,226.2 88.1,226.1 88.1,226C88.3,226 88.4,225.9 88.7,225.8C88.6,215.7 88.4,205.5 88.3,195.4C87.8,195.1 87.2,195.6 86.7,195.2C86.1,195.8 85.9,194.7 85.2,194.9C84.7,195.1 84,194.9 83.3,194.6C83.8,194.4 84.2,194.5 84.6,194.5L84.6,194.6L84.5,194.6C83.9,194.3 83.3,194.4 82.6,194.5C82.4,194.4 82.6,194.2 82.5,194C82.2,194 82.3,194.5 81.9,194.5C81.8,194 81.7,193.5 82.5,193.5C82.3,193.3 82.1,193.4 82,193.2C82.2,192.9 82.8,193.3 82.9,192.7C82,192.4 81.8,191.7 81.8,190.9C81.9,190.6 82.2,190.9 82.3,190.7C82.1,190.6 81.9,190.6 81.7,190.7C81.5,191.2 81.7,191.7 81.8,192.3C81.9,192.7 81.8,192.7 81.4,193C81.5,193.5 81.7,194 81.5,194.6C80.9,194.4 81.2,193.8 80.9,193.4C81.3,201.7 81.6,209.8 82,218C82.8,218 82.9,217.3 83.4,217.1C83.9,216.9 84.3,216.6 85,216.5C84.4,216.3 83.9,216.5 83.6,216C84.3,215.8 85,216.4 85.7,216.1C85.5,215.9 85.2,216.1 85,215.9C84.9,215.7 84.8,215.4 84.7,215.2C84.4,215 84,215.2 83.8,214.9C83.8,214.8 83.8,214.7 83.9,214.6C84.6,214.4 85.3,214.8 86.1,214.7C86.5,214.7 87,214.7 87.6,214.8C87.2,215.1 87.5,215.5 87.5,215.8C87.2,216 86.8,215.8 86.5,216C86.8,216.2 87.2,216 87.5,216.2C87.2,216.5 86.7,216.3 86.4,216.4C86.7,216.5 87.2,216.3 87.4,216.9C86.7,217.1 86,216.5 85.2,217.1C86.1,217 86.6,217.6 87.3,217.4C87.3,217.7 87.2,217.7 87,217.7C87.1,217.9 87.5,217.7 87.5,218.2C86.7,218.4 85.8,218.2 85,218.4L87.6,218.4C87.1,219.1 86.4,218.6 86,219C86.4,219.2 86.9,219 87.3,219.2C86.9,219.6 86.9,219.6 83.4,219.3C84,218.8 84.7,219.2 85.3,219C84.6,218.8 83.8,219.1 83.1,218.8C83.3,218.3 83.8,218.6 84.1,218.3C83.4,218.2 82.7,218.2 82,218.3C81.9,218.8 81.9,219.2 81.9,219.6C82.1,221.4 82.1,223.2 82.1,225C82.1,225.5 82.1,226.1 82.8,226.4C82.3,226.9 81.8,226.7 81.4,226.6C81.4,226.5 81.3,226.2 81.4,226.2C82,225.7 81.8,225.1 81.8,224.5C81.6,220.6 81.4,216.7 81.2,212.7C81.1,210.3 81,207.8 80.9,205.4C80.8,202.9 80.6,200.5 80.5,198C80.4,196.6 80.5,195.2 80.5,193.9C80.1,193.9 79.8,194 79.7,194.4C79.4,194.2 79.6,193.8 79.1,193.8L79.1,222.2C79.1,223.5 79.1,224.8 78.9,226.1C78.6,224.5 78.7,222.9 78.7,221.4C78.5,221.1 78.2,221.2 78,221.2C77.7,221.5 78.3,221.8 78.2,222C77.9,222.4 77.6,222.2 77.4,222.4C77.7,222.5 77.9,222.5 78.1,222.6C78.2,222.9 78.2,223.2 78.2,223.6C77.9,223.6 77.7,223.7 77.4,223.7C77.7,223.9 78.1,223.6 78.4,223.9C78.4,224.1 78.2,224.1 78.1,224.2C78.2,224.3 78.4,224.2 78.4,224.4C78.2,224.7 77.8,224.4 77.5,224.6C77.3,224.9 77.4,225.2 77.5,225.5C77.7,225.7 78,225.4 78.2,225.6C78.2,225.9 78.1,226.3 77.7,226.3C76.2,226.3 74.8,226.4 73.3,226.4C73.1,226.4 73,226.3 72.8,226.2C72.8,226.1 72.7,226 72.6,226C72.7,223.1 72.4,220.2 72.6,217.4C73.1,217.1 73.7,217.3 74.3,217C73.5,217 73,216.9 72.4,217.1L72.4,225.4C72.4,225.6 72.4,225.8 72.6,225.9C72.7,226 72.7,226.1 72.8,226.1C72.8,226.2 72.7,226.3 72.6,226.3C71.8,226.4 71,226.6 70.1,226.5C70.1,224.4 70.3,222.3 70.2,220.2C69.9,219.9 69.6,220.1 69.2,220.1C69.1,220.3 69.2,220.4 69.3,220.6C69.6,220.7 69.5,220.2 69.8,220.4C69.9,220.7 69.8,221.1 69.8,221.6C69.2,221.3 68.7,221.7 68,221.6C68.5,221.1 68.5,221.1 69.1,221C68.9,221 68.8,221 68.7,220.9L68.6,220.9C68.5,220.7 68.8,220.5 68.7,220.4C68.5,220 68.1,220.5 67.9,220.2C67.9,219.8 68.8,219.8 68.2,219.3C67.6,219.8 67.6,219.8 67.6,220.5L67.6,222.8C68.3,222.9 69,222.3 69.9,222.8C69,223.1 68.2,222.8 67.6,223.4L67.6,225.8C67.9,225.9 68.3,225.6 68.7,225.9C67.7,226.4 66.7,226.6 65.7,226.2C65,225.9 64.4,225.6 63.6,225.8C63.3,225.9 63.1,225.6 62.8,225.5C62.7,225.7 63,226.1 62.5,226.2C62,226.3 61.8,226.1 61.5,225.2C61.1,225.4 61.6,225.7 61.4,226C60.7,225.7 59.7,226.5 59.2,225.4C59.2,224.9 59.7,225 59.9,224.7C59.8,224.5 59.5,224.7 59.4,224.4C59.9,224.2 60.4,224.4 60.9,224.2C60.8,223.6 60.8,223.6 59.3,223.7C59.8,223.2 60.4,223.3 60.9,223.1L59,223.1L59,226.2C60.4,226.4 61.9,226 63.4,226.8C62.8,227.1 62.4,226.8 62,226.7C60.7,226.5 59.3,226.5 58,226.7C57.4,226.8 56.7,226.8 56,226.8C55.7,226.8 55.5,226.9 55.3,226.5C55.1,226.2 54.7,226.5 54.4,226.3C54.3,226.1 54.1,225.9 54.2,225.6C54.4,225.5 54.6,225.8 54.8,225.7C54.8,225.8 54.8,225.8 54.9,225.8L54.9,225.7L54.8,225.7C54.9,225.5 55,225.5 55.2,225.5C55.5,226 56,226.1 56.4,226.5C56.6,225.1 56.8,225 58.4,225.4C58.5,224.8 58.6,224.2 58.6,223.6L58.6,218.7C58.6,218.4 58.7,218 58.5,217.7C57.9,217.4 57.9,217.4 57.2,217.5C57.3,217.9 58,217.6 57.9,218.2C57.1,217.9 56.4,218.1 55.6,218.2C55.4,219.5 55.5,220.8 55.5,222C55.5,223.2 55.2,224.4 56.2,225.5C55.7,225.5 55.4,225 55.1,225.3L55.1,217.5C54.6,218.2 54.7,218.9 54.8,219.7C55,221.3 54.9,222.9 54.9,224.4C54.5,224.7 54.2,224.6 54.1,224.2C53.9,223.8 53.9,223.4 53.9,223C53.9,221.7 53.9,220.3 53.8,219C53.7,220 53.4,221.1 53.5,222.1C53.5,222.8 53.1,223.4 53,224.1C52.6,223.8 52.9,223.4 52.7,223.1C52.6,223.2 52.4,223.3 52.2,223.2C52.3,223.6 52.8,223.8 52.6,224.2C52.2,224.3 52.1,224.4 51.7,224.8C51.3,224.9 50.8,224.5 50.3,224.7C50.1,224.9 50.2,225.2 49.9,225.4C49.5,225.3 49.1,225.4 48.7,225C49.6,223.6 49.4,222.1 49.5,220.6C49.7,217.7 50,214.9 50.3,212C50.5,209.8 50.7,207.5 50.7,205.3C50.7,203.1 51,201 51.2,198.8C51.3,197.8 51.3,196.8 51.3,195.8C51.8,195.4 52.4,195.3 53,195.1C54.7,194.6 56.5,194.3 58.3,194C60.4,193.6 62.4,192.9 64.5,192.5C68.7,191.6 72.8,190.5 76.9,189.3C77.9,189 79,189 80.1,189.2C84.5,190.1 88.9,191.2 93.3,191.8C95.5,192.1 97.7,192.7 99.9,193.1C101.6,193.4 103.4,193.6 105.2,193.9C106.7,194.2 108.3,194.4 109.7,195L109.7,195.1C109.1,195.7 109.2,196.4 109.5,197L109.5,197.3C109.5,197.3 109.4,197.3 109.4,197.4C108.7,196.7 109.3,195.9 109,195.2C108.8,195.1 108.6,195.1 108.5,195.2C108.4,195.2 108.5,195.5 108.5,195.5C109.1,195.6 108.9,196.1 108.9,196.5C108.9,199.4 109,202.2 109.3,205.1C109.4,206.5 109.4,207.9 109.5,209.3C109.7,212.4 109.8,215.5 110,218.7C110.1,220.5 110.3,222.3 110.4,224.1C110.4,224.5 110.6,224.8 110.8,225.2C110.5,225.4 110.3,225.2 109.9,225.1C109.8,224.4 109.7,223.7 109.7,223C109.6,221.3 109.5,219.7 109.4,218C109.4,217.7 109.3,217.5 109.3,217.3C109.2,217.1 109,217.1 108.9,217.2C108.9,217.4 109.1,217.5 109,217.7C108.6,217.9 108.2,217.5 107.8,217.7C108.1,218.2 108.6,217.9 108.9,218.2C108.9,218.4 108.6,218.3 108.5,218.5C108.7,218.6 109,218.4 109.1,218.8C108.3,219 107.5,218.7 106.7,219.2C107.6,219.3 108.4,218.8 109.2,219.3C108.6,219.7 108.1,219.4 107.6,219.6C108,219.9 108.5,219.6 108.9,219.9C107.6,220.5 106.5,219.8 105.1,220C105.7,219.3 106.4,219.8 107.1,219.5L105,219.5C105.2,219 105.6,219.3 105.8,219.1C105.4,219 105,219 104.4,219C104.5,221 104.7,223 104.5,225C104,221.3 103.9,217.6 103.7,213.9L100.7,213.9L100.7,214.1C101.1,214.1 101.6,214.2 102.1,214.2C101.7,214.8 101.1,214.4 100.7,214.8C100.6,216.1 100.6,217.4 100.7,218.8C100.8,220.4 100.8,222.1 100.9,223.7C100.9,224.3 100.7,225 101.6,225.3C100.2,225.1 98.9,225.5 97.5,225.7C97.5,225.7 97.4,225.6 97.4,225.5C98.3,225.2 99.3,225 100.2,224.9C100.3,224.8 100.3,224.7 100.3,224.6C100.3,222.6 100.3,220.6 100.2,218.6C100.2,218.3 100.2,217.9 100.1,217.6C100,214.2 99.9,210.8 99.8,207.4C99.7,204.5 99.6,201.5 99.4,198.6C99.3,197.6 99,196.6 99,195.6L99,197.4C98.5,197.4 98.1,197.2 97.7,197C98,195.8 97.6,194.6 97.5,193.4C97.4,198.3 97.5,203.1 97.9,208C96.5,207.9 95.2,207.8 93.7,207.8C93.9,209.3 93.9,210.6 93.9,212C94.4,212.1 94.8,212.1 95.2,212.1L96.2,212.1C97.6,212 98.2,212.8 97.9,214.1C97.7,214.9 97.8,215.7 97.9,216.5C98.1,218.7 98.4,221 98.6,223.2C98.6,223.5 98.8,223.9 98.6,224.3C98.3,224.3 98.3,224 98.1,223.9C98,224.3 97.9,224.7 97.8,225.1C97.4,221.7 97.1,218.2 96.7,214.8C95.8,214.6 95,214.2 94.1,214.8C94.3,218.4 94.2,222 94.7,225.7C94.3,225.6 93.7,226.4 93.3,225.4C93.5,225.1 93.8,225.5 94,225.3L94,221.1C94,220.7 93.9,220.4 93.9,220C93.8,217.3 93.7,214.7 93.6,212C93.4,208.2 93.2,204.4 93,200.6C93,199.7 93,198.7 92.9,197.8C92.9,197.2 93,196.6 92.6,196.1C92.5,195.9 92.5,195.6 92.5,195.4C92.5,194.7 92.4,194 92.2,193.3C92.1,194.1 92.1,194.9 92.3,195.8C91.9,196.1 91.3,195.8 90.8,196.2C90.8,197.4 90.8,198.7 90.9,200C90.9,200.4 91,200.7 91,201.1C91.1,203.8 91.2,206.4 91.3,209.1C91.5,213 91.7,216.9 91.9,220.7C92,222.3 91.9,223.9 92.1,225.5C92.1,225.7 92.1,226 92.4,226L92.5,226L92.4,226C92.4,225.9 92.4,225.7 92.6,225.6C92.9,225.8 92.9,226.1 93,226.4L90.6,226.4C90.6,225.8 90.2,225.7 89.6,225.9C89.7,225.4 89.8,225.2 90.3,225.4C90.8,225.6 91.2,225.8 91.7,226C91.8,222 91.4,218.1 91.3,214.2C91.3,213.8 91.2,213.4 90.7,213.4C90.5,213.6 90.5,214 90.1,214.2L88.5,214.2C89.1,214.4 89.6,214.2 89.8,214.8C89.7,214.8 89.6,214.8 89.5,214.9C89.6,215 89.7,214.9 89.7,214.8C89.9,215 90.3,214.8 90.5,215.2C89.6,215.5 88.8,215.2 87.9,215.3C87.8,215 87.7,214.8 87.5,214.4L87.5,220.6C87.9,220.4 88.3,220.2 88.6,219.9C88.7,219.7 88.4,219.7 88.4,219.4C88.5,219.2 88.9,219.5 89.1,219.2C89.1,218.8 88.5,219 88.5,218.5C89.4,218.3 90.2,218.7 91.1,218.6C91.1,219.1 91.3,219.7 91,220.2C90.8,220.4 90.5,220.1 90.3,220.2C90.3,220.3 90.3,220.4 90.4,220.4C90.7,220.5 91.1,220.5 91.2,220.9C91.3,221.3 91.2,221.7 91,221.9C90.6,222.2 90.6,222.6 90.4,222.9C90,222.9 89.7,223 89.3,223C89.1,223.1 89.4,223.3 89.1,223.4C88.3,223.3 88.3,223.3 88,222.7C89.8,222.6 90.5,222.9 90.4,222.3C90.5,222.2 90.6,222.2 90.4,222.3C90.5,222.2 90.5,222.2 90.4,222.3ZM75.8,202.8C75.8,202.8 75.8,202.9 75.8,202.8C75.8,202.9 75.9,202.9 75.9,202.9C75.9,202.9 75.8,202.9 75.8,202.8L75.7,202.7C75.7,202.8 75.7,202.8 75.8,202.8ZM74.9,201.9C74.9,202 74.8,202 74.9,201.9C74.9,202 74.9,202 74.9,201.9ZM65.1,202.6C65.1,202.7 65.2,202.8 65.2,202.9C65.3,202.7 65.2,202.7 65.1,202.6ZM76,202.2C76.1,202.2 76.1,202.2 76,202.2C76,202.3 76.1,202.3 76.1,202.3C76.1,202.2 76.1,202.2 76,202.2C76,202.1 75.9,202 75.9,201.9C75.9,202 75.8,202.1 76,202.2ZM63.8,200.4C63.8,200.3 63.8,200.2 63.7,200.1L63.6,200.1C63.6,200.3 63.7,200.4 63.8,200.4ZM105.1,210.5C105,210.5 105,210.4 105.1,210.5C105,210.4 105.1,210.4 105.1,210.5C105.2,210.6 105.1,210.8 105.2,210.9C105.2,210.7 105.2,210.6 105.1,210.5ZM52.7,205.9C52.8,205.8 53,206 53.1,205.8C52.9,205.7 52.8,205.8 52.7,205.9ZM66,200L66.6,200C66.3,199.8 66.1,199.8 66,200ZM105.9,195C105.7,195.1 105.7,195.2 105.9,195.5L105.9,195C106,195 106,194.9 105.9,195ZM87.8,194.3C87.9,194.4 88.1,194.5 88.3,194.4C88.1,194.4 88,194.3 87.8,194.3ZM64.9,197.8C65.1,197.7 65.3,197.8 65.5,197.7C65.3,197.6 65.1,197.6 64.9,197.8C64.8,197.8 64.6,197.8 64.6,198L64.7,198.1C64.9,198.2 64.9,198 64.9,197.8ZM55.9,197.6C55.6,197.7 55.4,197.3 55.1,197.5C55.4,197.9 55.7,197.8 55.9,197.6C56.2,197.6 56.5,197.5 57,197.5C56.5,197.4 56.2,197.4 55.9,197.6ZM78.4,207.4C78.7,207.4 78.9,207.6 79.3,207.4C79,207.2 78.7,207.1 78.4,207.4C78.3,207.4 78.1,207.4 77.9,207.6C78.2,207.5 78.3,207.6 78.4,207.4ZM57,196.7C57,196.7 56.9,196.6 57,196.7C56.9,196.7 57,196.7 57,196.7C57.3,197 57.5,196.8 57.8,196.6C57.5,196.4 57.3,196.7 57,196.7ZM75.2,197.8C74.9,197.6 74.6,197.5 74.3,197.9C74.6,197.9 74.9,197.7 75.2,197.8C75.4,198 75.4,198.3 75.4,198.6C75.6,198.5 75.8,198.5 75.9,198.4C75.9,199.6 75.9,199.6 76.4,200.1C76.3,199.5 76.2,198.9 75.8,198.5C75.7,198.1 75.5,197.9 75.2,197.8ZM62.7,199.1C63.1,199 63.5,198.9 63.9,198.8C63.4,198.6 63,198.7 62.7,199.1C62.7,199.1 62.6,199.2 62.7,199.1C62.6,199.2 62.7,199.1 62.7,199.1ZM96.8,207.4C97.3,207.6 97.8,207.6 98.4,207.4L96.8,207.4C95.8,207.1 95.7,207.1 95.3,207.6C95.8,207.3 96.3,207.5 96.8,207.4ZM98.5,212.9C98.8,213.2 98.7,213.6 98.8,213.9C98.8,213.5 99.2,213 98.5,212.9C98.3,212.8 98.2,212.7 97.9,212.8C97.8,213.1 97.7,213.5 98.1,213.8C98.5,213.5 98.1,213 98.5,212.9ZM65.3,194.7C65.5,194.2 65.9,193.9 65.9,193.3C65.4,193.7 65.4,193.7 65.3,194.7C65.2,195.2 65,195.7 64.9,196.3C64.6,196.2 64.5,196 64.4,195.8C63.8,196.7 62.9,196.3 62.2,196.5C62,197.3 62,197.3 62.8,197.4C62.9,197.7 62.9,197.7 63.2,197.5L62.8,197.5C63.5,197 64.2,196.7 65,196.4C65.2,196.4 65.4,196.3 65.4,196C65.3,195.5 65.3,195.1 65.3,194.7ZM75.6,205.4C75.2,205.5 74.8,205.5 74.4,205.6L74.4,205.7L76,205.7C75.8,205.7 75.6,205.6 75.6,205.4C75.6,205.4 75.7,205.3 75.8,205.3C75.7,205.4 75.6,205.4 75.6,205.4ZM103.5,213.5C103.5,213.4 103.5,213.3 103.4,213.2L103.3,213.3C103.4,213.4 103.4,213.5 103.5,213.5C104.1,213.9 104.6,213.3 105.1,213.4C104.3,213 104.3,213 103.5,213.5ZM59.2,197.6C58.8,197.7 58.4,197.5 58.1,198.1C58.5,198.1 58.9,198.2 59.3,198.4C59.4,198.1 59.3,197.8 59.2,197.6C59.3,197.6 59.4,197.6 59.5,197.4C59.4,197.4 59.3,197.4 59.2,197.6ZM64.9,198.9C64.1,199.1 63.3,199.3 62.4,199.7C63.4,199.8 64.1,199.4 64.9,198.9C64.9,199 64.9,198.9 64.9,198.9C65.1,198.9 65.3,199 65.4,198.8C65.2,198.7 65,198.7 64.9,198.9ZM103.8,212C104.3,212.2 105,211.9 105.3,212.8C105.3,212.2 105.4,211.8 105.1,211.3C104.7,211.8 104,211.5 103.8,212C103.3,212 102.7,212.2 102.2,211.6C102.1,211.9 102.1,212 102.3,212.1C102.8,212.4 103.3,212.2 103.8,212ZM73.4,191.7C73.8,191.6 73.8,191.9 74,192.2C74.1,191.9 74,191.6 74.4,191.7C74.8,191.9 74.5,192.4 74.7,192.7C74.7,192.1 74.6,191.5 75.2,191.1C74.5,191.3 73.9,191.2 73.4,191.7C73.2,191.9 73.2,192.1 73.3,192.3C73.4,192.1 73.4,191.9 73.4,191.7ZM78.9,213.7C79,213.7 79.2,213.8 79.3,213.7C79.2,213.2 79.4,212.7 79.2,212.3C78.9,212.2 78.7,212.2 78.5,212.3C78.6,212.5 78.9,212.3 78.9,212.6C78.7,212.9 78.3,212.7 78,213L79.1,213C79,213.3 78.9,213.5 78.9,213.7C78.9,213.8 78.8,213.8 78.9,213.7C78.8,213.8 78.9,213.8 78.9,213.7ZM77.1,190.6C77.6,191.5 77.4,192.4 77.2,193.3C77.1,193.7 76.9,194 77,194.5C77.1,194.5 77.3,194.5 77.3,194.4C77.6,193.1 77.2,191.8 77.6,190.5C77.4,190.4 77.2,190.4 77.1,190.6C77,190.6 77,190.7 77.1,190.6C77.1,190.7 77.1,190.6 77.1,190.6ZM84.3,193.2C84.3,193.4 84.3,193.7 84.2,193.9C84.5,193.7 85,193.8 85.3,194C85.5,194.1 85.7,194.2 85.9,194.2L86,194.1C85.9,194 85.7,193.9 85.7,193.7C85.9,193.5 86.2,193.7 86.5,193.5C85.8,193.4 85.1,193.1 84.3,193.2ZM54.4,197.8C54.2,197.8 54.2,197.5 53.9,197.6C53.8,198.3 53.7,199 53.9,199.7C54.8,199.4 55.8,199.5 56.6,198.9C55.7,199 54.9,199.2 54.1,199.3C53.8,198.9 54.7,199 54.3,198.7C54,198.3 54.8,198.1 54.4,197.8C54.5,197.8 54.5,197.7 54.4,197.8C54.5,197.7 54.4,197.8 54.4,197.8ZM58.8,201.5C58.5,201.1 58,201.3 57.5,201.2C57.8,200.7 58.3,201 58.6,200.8C58.1,200.6 57.5,200.9 56.9,200.7C57.5,200.3 58.1,200.6 58.6,200.1C57.6,200.2 56.8,200.3 55.7,200.4C56.7,200.6 57.1,201.2 57.4,201.9C57.8,201.9 58.2,201.6 58.6,201.9C58.7,201.9 58.8,201.6 58.8,201.5C59,201.5 59,201.9 59.3,201.8C59.5,201.6 59.4,201.4 59.3,201.1L59,201.1C58.8,201.2 58.8,201.4 58.8,201.5ZM61.4,200C61.2,200 60.9,200.1 60.9,199.8C61.1,199.3 61.7,199.8 61.9,199.2C61.5,199.5 61,199.3 60.6,199.1L60.6,201.8C60.8,201.7 60.9,201.7 60.9,201.6C61.2,200.7 61.2,200.7 61.9,200.6C62.3,200.6 62.7,200.5 63.1,200.1C62.2,200 61.5,200.5 60.8,200.4C60.9,200.1 61.3,200.3 61.4,200C61.5,200 61.7,199.9 61.9,199.9C61.6,199.8 61.5,199.9 61.4,200ZM102.2,196.9C102.2,196.9 102.2,196.8 102.2,196.9C102.2,196.8 102.2,196.9 102.2,196.9C102.1,197.2 101.8,196.9 101.6,196.9C101.6,197.1 101.6,197.3 101.8,197.4C102.7,197.1 103.6,197.1 104.5,197.9C104.3,197.5 104.8,196.9 104,197.2C103,196.7 102.8,195.7 103.4,194.7C103.6,194.8 103.5,195.1 103.6,195.3C103.7,195 103.8,194.7 103.5,194.3C102.9,194.2 102.3,194.2 101.5,194.1C102.1,194.6 102.1,194.6 102.9,194.5C102.9,195.2 102.8,196 103.1,196.9C102.6,196.5 102.4,196.9 102.2,196.9ZM61.4,202.6C61.1,202.6 60.8,202.6 60.6,202.4C60.6,203.2 60.5,203.9 60.6,204.8L63.1,204.8C63,205.2 62.6,205 62.4,205.1C61.8,205.1 61.2,205 60.6,205.2C60.6,205.6 60.4,205.9 60.6,206.3C61.9,206.3 61.9,206.3 62.6,206.8C62.5,207 62.3,206.9 62.1,207C62.4,207.1 62.8,206.9 63,207.1C63,207.5 62.5,207.2 62.5,207.6C62.7,207.7 62.9,208 63.3,207.8C63.6,207.4 63.3,206.9 63.6,206.4C64,206.3 64.4,206.3 64.8,206.4C65.1,207.2 64.6,207.9 64.8,208.8C65.3,208.6 65.9,209 66.3,208.3C66,208 65.5,208.4 65.2,207.9C66.1,207.9 66.9,207.5 67.8,207.8C67.6,208.3 67,208 66.7,208.5C67.1,208.6 67.5,208.6 67.9,208.5L67.9,205.7C66.9,205.3 66,206.1 64.9,205.7C65.9,205.3 67,205.4 68,204.9C67.2,204.5 66.5,204.9 65.7,204.8C66.4,204.2 67.2,204.6 67.8,204.1C67.3,204.2 66.7,204.3 66.2,204.2C65.8,204.2 65.6,204.3 65.4,204.6C64.7,205.6 64,205.7 63.2,204.8C62.9,203.5 62.7,202.2 62.9,200.9C62.2,201.1 62,201.4 62.2,201.9C61.9,202 61.5,201.9 61.2,202.1C61.6,202.2 62,202.1 62.4,202.2C62.2,202.6 62,203.1 61.3,202.9C61.3,202.8 61.4,202.7 61.4,202.6C61.4,202.6 61.5,202.6 61.4,202.6C61.5,202.5 61.5,202.5 61.6,202.5C61.5,202.5 61.5,202.6 61.4,202.6ZM73.2,215.3L73,215.3C71.5,215.3 71.5,215.4 71.5,216.8L71.5,224.6C71.5,225.2 71.6,225.8 72.1,226.2L72.8,226.2C72.5,222.7 72.8,219.2 72.5,215.7C72.6,215.4 73,215.5 73.2,215.3C74.2,215.3 75.2,215.4 76.2,215.6C76.3,219.1 76.1,222.6 76.1,226C76.5,226.2 76.8,226.2 76.9,225.8C77.2,224.3 77.3,222.9 76.7,221.4C76.7,221.3 76.5,221.2 76.5,221.2C77.1,221 76.4,220.6 76.6,220.4C76.9,220.1 76.5,219.7 76.8,219.4C76.9,219.3 76.9,219 76.8,218.9C76.3,218.4 77,217.9 76.6,217.4C77.1,216.5 77.1,215.5 77,214.5C76.5,215.2 76.1,214.5 75.7,214.6C75.2,214.7 74.7,214.6 74.2,214.6C73.8,214.6 73.3,214.4 72.7,214.5C73.4,214.9 74,214.5 74.6,214.9C74.2,215.3 73.6,214.9 73.2,215.3ZM59,213.3C59.2,213.4 59.3,213.4 59.4,213.7C59.2,214 58.9,214 58.7,214C58.2,214 57.8,214 57.3,214.1C57.1,214.1 56.9,214.2 57,214.6C57.6,214.7 58.4,214.4 59.2,215L56.7,215C56.5,214.7 56.7,214.5 56.4,214.3C55.9,214.2 55.3,214.4 54.7,214.1C55.3,213.7 55.9,214 56.3,213.8C55.6,213.7 55.6,213.7 55.6,213.3C55.3,213.1 54.9,213.4 54.5,213.1C55.2,212.9 55.8,212.8 56.3,212.7C55.8,212.2 55.2,212.3 54.5,212.2C55.2,211.4 56,211.7 56.9,211.5C56.3,211.1 55.5,211.5 55.2,210.7C56,210.4 56.8,210.5 57.5,210.2C57.6,209.9 57.7,209.4 57.5,209.3C57,208.9 57.6,208.8 57.6,208.5L57.6,208.3C57.4,208 56.9,208.3 56.9,207.8C57,207.8 57.2,207.8 57.3,207.7C57.4,207.7 57.6,207.8 57.7,207.6C57.3,207.5 57,207.3 56.5,207.4C56.4,207.9 56.4,208.5 55.8,208.7C56.7,208.3 56.9,209.3 57.6,209.4C56.6,210.2 55.5,210.1 54.4,210.2C54.1,210.2 53.9,210.2 53.8,209.8C53.8,209.5 54.1,209.4 54.3,209.3C54.7,209.2 55.1,209.2 55.6,209.2C55,209 54.4,209.3 54,209C54.1,208.9 54.2,208.8 54.2,208.7C54.4,208.9 54.6,208.8 54.8,208.7L54.2,208.7C54.2,208 54.8,208.1 55.2,208C55.2,207.7 54.7,208 54.8,207.6C55.2,207.3 55.7,207.7 56,207.2C55.2,207 54.5,207.6 53.8,207.1C53.7,208.1 53.6,208.9 53.6,209.7C53.5,211.6 53.5,211.6 53.2,212C53.6,211.3 52.6,210.7 53,209.9C52.3,210.5 52.7,211.4 52.5,212.1C52.4,212.7 52.9,212.7 53.1,212.9C53.1,213.2 52.8,213.1 52.7,213.3C52.8,213.4 53,213.3 53.1,213.5C53,213.7 52.8,213.6 52.7,213.6C53.1,214.3 53.8,214.1 54.4,214.5L52.7,214.5C53.3,215.1 54,214.7 54.6,215C54.3,215.3 53.9,215.1 53.6,215.3C53.9,215.5 54.5,215.2 54.7,215.8C54.2,216 53.6,215.8 53.2,216C53,216.2 53.2,216.5 53.1,216.7C52.9,217 52.6,216.6 52.5,217C52.8,217.1 53.2,216.9 53.3,217.4C53.1,217.6 52.6,217.3 52.4,217.8C52.8,218 53.6,217.6 53.6,218.5C53.3,218.7 52.9,218.8 52.5,219C52.6,219.2 53,218.9 53.1,219.3C53,219.5 52.6,219.3 52.6,219.7C53.2,220.1 53.1,220.8 53,221.6C52.6,221.2 52.8,220.7 52.5,220.1C52.3,221 52.3,221.7 52.4,222.5C52.6,222.4 52.8,222.5 53,222.3C52.9,222.2 52.7,222.2 52.8,222C53.1,222 53.5,221.9 53.7,222.1C54,222.3 53.6,222.5 53.7,222.6C53.9,222.6 54.1,222.7 54.3,222.4L54.3,219.5C54.3,218.4 54.3,217.3 54.9,216.3C55.8,216 56.8,216.2 57.8,216C58.3,215.9 58.9,216 59.4,216C59.6,216 59.8,216 59.7,216.3C59.1,216.3 58.6,216.1 57.9,216.3C58.4,216.4 58.7,216.6 59.1,216.6C59.6,216.7 59.4,217.3 59.9,217.4C59.9,216.4 59.9,215.5 60,214.5C60.2,213.5 59.8,212.6 59.6,211.6C59.3,211.6 59,211.7 58.7,211.7C58.9,211.8 59,211.9 59.2,211.9C59,212.3 58.6,212.1 58.3,212.4C58.7,212.5 59,212.4 59.3,212.6C59.1,212.9 58.9,213.1 59,213.3C58.8,213.3 58.6,213.4 58.3,213.4C58.6,213.4 58.8,213.4 59,213.3ZM60.3,210.5C60.1,210.9 60.1,211.4 60.1,211.8C60,214.5 60.1,217.1 59.9,219.7C59.8,220.5 59.8,221.4 59.9,222.1C60.4,222.4 61,222 61.3,222.5C60.9,222.9 60.3,222.5 59.8,222.9C60.6,223.1 61.2,223.1 61.9,222.9L61.9,217.4C61.6,217.1 61.2,217.4 60.8,217C61.5,216.9 62,216.6 62.2,216.1C62.2,218.5 62.2,221 62.3,223.4C62.5,221.4 62.6,219.5 62.6,217.5L62.6,216.7C62.6,216.5 62.8,216.3 63,216.3C63.6,216.3 64.3,216 64.9,216.4C65.1,216.8 64.6,217.1 65,217.4C65.4,217.7 65.3,218.1 65.3,218.5C65.3,220.7 65.2,222.9 65.4,225.2C65.4,222.2 65.6,219.1 65.3,216.1L62.2,216.1C61.9,215.7 61.3,216.2 60.9,215.6C62.4,215.5 63.7,215.6 65.1,215.2L62.6,215.2L62.6,215C63.8,214.9 64.9,214.8 66,214.5C66.4,214.4 66.9,214.4 67.4,214.6C67,214.9 66.5,214.6 66.1,215.1C66.7,215.2 67.2,215.2 67.7,215.1C67.8,214.8 67.9,214.6 67.6,214.3C66.5,214.3 65.3,214.4 64.2,214.2C64,213.1 65.4,213.9 65.4,213.1C65,213.1 64.6,213.1 64.3,212.7C64.5,212.6 64.7,212.7 64.9,212.4C64.7,212.3 64.5,212.2 64.3,212.4C64.3,212.5 64.3,212.6 64.4,212.7C63.9,212.8 63.8,212.4 63.7,212C64.1,211.9 64.4,211.8 64.7,211.7C64,211.2 64.6,211.2 64.9,211C64.6,210.8 64.3,211.1 64,210.9C64.3,210.5 64.9,210.6 65.2,210.3C64.9,210 64.5,210.5 64.2,209.9C65.4,209.8 66.5,209.2 67.7,209.9C67.3,210.3 66.9,209.8 66.6,210.1C66.3,210.5 65.9,209.6 65.6,210.3C66.1,210.7 66.9,210.1 67.4,210.7C67.3,211.1 67,210.7 66.8,211C66.9,211.2 67.2,211.2 67.1,211.5C66.6,211.7 66,211.4 65.4,211.6C65.7,211.8 66.1,211.6 66.4,211.7C66.7,211.8 67,211.8 67.3,212.1C66.7,212.3 66,212.1 65.3,212.2C65.8,212.6 66.6,211.9 66.7,212.8C66.5,213 66.1,212.7 65.9,213C65.9,213.4 66.5,213.2 66.4,213.6C66.3,213.7 66.2,213.7 66.1,213.8C66.6,213.8 67.2,213.8 67.7,213.5L67.7,208.5C67,208.5 67,208.5 66.5,208.7C66.8,208.8 67.2,208.6 67.4,208.9C67.3,209 67.3,209.1 67.2,209.2C66.2,209.3 65.1,209.4 63.9,209.2C64.6,208.8 65.2,209 65.9,208.7C64.6,208.7 63.6,208.8 62.7,208C61.9,208.6 61,208.5 60,208.4L60,208.9C60.6,208.9 61.3,208.8 61.7,209.3L61.6,209.4C61.5,209.4 61.3,209.3 61.2,209.5C61.9,210 62.7,209.5 63.4,209.8C62.8,210.2 63.2,210.7 63.2,211.1C62.8,211.7 62,211.4 61.6,212C62.1,212.1 62.6,211.8 63,212.1C63.4,212.3 63.3,212.9 63.7,213.2C63,213.2 62.3,212.8 61.9,213.5C61.7,213.5 61.8,213.1 61.5,213.3C61.8,213.7 61.9,213.8 62.1,213.7C62.6,213.4 63.1,213.6 63.5,213.7C63.5,214.1 63.4,214.4 63,214.4C62.1,214.4 61.1,214.5 60.2,214.4C60,213.8 60.2,213.6 60.8,213.7C60.9,213.7 61,213.6 61,213.7C60.8,213.4 60.5,213.6 60.4,213.3C60.5,213 60.8,213.2 61,213C60.8,212.8 60.3,213.1 60.2,212.7C60.4,212.2 60.9,212.8 61.2,212.3C60.7,212.3 60.2,211.8 60.3,211.6C61,211 60.4,210.8 60.3,210.5C60.6,210.5 61,210.4 61.5,210.4C61,210.4 60.6,210.2 60.3,210.5ZM74.3,212.6C74.4,212.8 74.2,213 74.5,213.2C75,213.1 75.5,213 76,213C75.5,212.4 74.9,212.7 74.3,212.6C74.3,212.2 73.9,212.3 73.6,212.2C73.1,212.1 72.6,212.3 72,212C73.6,211.7 75.1,212.3 76.6,211.7C76,211.7 75.4,211.3 74.8,211.6C74.3,211 73.5,211.6 72.9,211.1C73.5,210.7 74.2,211.2 74.7,210.8C74.4,210.5 74,210.9 73.7,210.6C73.8,210.3 74.1,210.5 74.3,210.3C74,210.3 73.7,210.4 73.4,210.4C73.1,210.4 72.9,210.6 72.7,210.2C73.3,209.8 74,210.2 74.6,209.8C74,209.5 73.4,209.4 72.7,209.3C73.3,208.9 73.9,208.8 74.4,208.6C73.9,208.5 73.7,208.3 73.5,207.9C74.2,207.6 74.9,207.6 75.7,207.6C74.4,207.2 73.2,207.7 72,207.3C72.4,206.4 73.3,206.7 73.9,206.4C73.4,206.3 72.9,206.5 72.4,206.2C72.7,205.9 73,206.1 73.3,206C73.1,205.8 72.8,206 72.7,205.6C73,205.4 73.3,205.2 73.3,204.8C73.7,204.8 74.1,204.7 74.6,204.7C73.2,203.9 72.8,203.2 72.8,201.8L72.8,200.4C72.8,199.3 73.2,198.3 74.1,197.7C74.9,197.1 75.8,197.2 76.3,198.1C77.1,199.3 77.1,200.6 76.9,202C76.7,203.1 76.2,204 75.2,204.5C74.8,204.7 74.8,205 74.9,205.3C75.4,205.4 75.7,205.1 76.1,205C75.8,204.7 75.8,204.5 76.2,204.5C76.6,204.4 77.1,204.4 77.5,204.4C77.6,204.2 77.7,204 77.5,203.8C77.3,203.7 76.9,204 76.8,203.5C77,203.2 77.4,203.4 77.7,203C77.8,200.7 77.8,198.3 77.8,195.7C76.2,196.1 74.7,196.3 73.1,196.5C73,196.1 73.4,196.1 73.5,196C73,195.7 72.6,195.4 72,195.9C71.9,196.4 71.9,197 72,197.6C72.5,197.8 72.9,197.2 73.4,197.6C73.3,197.9 73,197.8 72.9,198C73,198.1 73.2,198.1 73.1,198.3C72.8,198.4 72.6,198.6 72.2,198.5C71.9,198.4 72.5,198.1 72,198C71.7,198.2 71.8,198.4 71.8,198.7L71.8,201.9C71.8,205.6 71.7,209.3 71.7,213C71.7,213.7 72,214.2 72.2,214.8C72.2,214.9 72.5,214.9 72.6,214.8C72.7,214.6 72.3,214.5 72.5,214.2C73.8,214.2 75.1,214.3 76.8,214.1C76.2,213.9 75.6,214.2 75.5,213.6C75.1,213.6 74.7,213.6 74.3,213.7C73.7,213.9 73,214 72.4,213.7C72.4,213.3 72.9,213.7 72.9,213.3C73,212.8 72.3,213.2 72.4,212.8C72.8,212.3 73.6,212.7 74.3,212.6ZM69.9,203.9C69.2,204.1 69.6,204.4 69.8,204.7C69.4,205 68.9,204.9 68.6,205.1C68.4,205.4 68.4,205.7 68.6,205.9C68.9,206 69.2,206 69.5,205.8C69.3,205.6 69,205.8 68.8,205.5C69.3,205.1 69.9,205.1 70.6,205.3C70.1,205.5 70.1,205.8 70.2,206.1C69.6,206.5 69,206.2 68.4,206.4L68.4,218.8C69.4,218.9 69.4,218.9 69.5,218.3C69.9,218.1 70.4,218.4 70.8,218.2C70.9,218 70.9,217.8 70.8,217.5C70.2,217.3 69.5,217.6 68.6,217.3C69.4,217.1 69.6,216.2 70.4,216.6C70.4,216.9 69.9,216.7 69.9,217.1C70.2,217.1 70.6,217.2 70.9,217L70.9,210.4C70.4,210.1 69.9,210.6 69.5,210.2C69.9,209.7 70.5,210.1 70.9,209.8C71.1,209.5 71,209.2 71,208.9C71,205.3 71,201.6 71.1,198C71.1,197.4 70.9,196.9 70.7,196.4C69.5,197.1 69,196.8 68.9,195.5C68.9,195.4 68.8,195.3 68.8,195.3C68.7,196.2 68.6,197.1 68.8,198.1C69.2,197.3 69.2,197.3 70.5,197.5C70.3,197.8 70.3,198.3 70.6,199C70,198.9 69.5,199.3 68.9,199.1C69,198.7 69.3,198.8 69.5,198.7C69.6,198.7 69.7,198.6 69.6,198.5C69.3,198.6 69,198.3 68.6,198.6L68.6,204.2C68.6,204.5 68.7,204.8 69.1,204.6C69.2,204.3 68.8,204 68.9,203.9C69.2,203.7 68.9,203.5 69,203.3C69.5,203.4 70,203.2 70.5,203.4C70.4,203.8 70,203.5 69.8,203.7C69.9,203.7 69.9,203.8 69.9,203.9ZM109.9,204.3C110,201.3 109.5,198.4 109.4,195.4C108.9,195.3 108.5,195 108,195.3C108,195.8 108.1,196.4 108,196.9C107.9,197.5 108.3,198 108.1,198.5C107.4,197.4 107.8,196.2 107.6,195C107.4,195 107.2,194.9 106.8,195.1L106.8,196.3C106.8,196.8 106.8,197.4 106.9,197.9C106.9,198.3 106.8,198.6 106.2,198.5C105.9,197.7 106.2,196.8 105.9,196L105.9,197.9C105.4,198.4 105.2,197.9 104.8,197.6C105.2,204.7 105.5,211.6 105.9,218.5C106.7,218.2 107.2,217.6 108,217.5C107.6,217.3 107.1,217.5 106.8,216.9C107.5,216.9 108.1,217.2 108.7,217C108,216.8 107.8,216 106.8,215.9C108.2,215.5 109.4,216.3 110.5,215.7C110.6,214.7 110.4,213.7 110.3,212.7C110.2,210 110,207.3 109.8,204.6C110,204.7 110,204.5 109.9,204.3ZM89,202.9C89.1,205.6 89.1,208.3 89.2,211C90,210.9 90.7,210.8 91.5,211C91.2,211.2 90.8,211.2 90.9,211.6C91.1,211.9 91.5,211.5 91.7,211.8C91.7,212 91.3,212 91.3,212.3C91.8,212.5 92.2,212.8 92.7,213.3C92.6,209.6 92.4,206.1 92.3,202.6C91.2,203 90.2,202.7 89,202.9ZM67.2,216.4C66.7,216.4 66.2,216.3 65.7,216.5C65.9,219.1 66,221.6 65.8,224.2L65.8,224.3C65.9,224.7 65.8,225.3 66.1,225.7C66.4,226.1 66.9,225.7 67.2,226C67.3,226.1 67.4,226.2 67.7,226C67.7,222.7 67.9,219.3 67.8,215.8C67.1,215.5 66.4,215.4 65.7,215.8C66.3,215.9 67,215.8 67.5,216.3C67.5,216.6 67.6,216.8 67.3,217.1C66.9,217 66.4,217.2 65.8,216.9C66.3,216.4 66.8,216.7 67.2,216.4ZM67.9,203.6C68,202.4 68,201.4 67.9,200.3C67.2,200.2 66.6,200.3 66,200.6C66.5,200.7 66.9,200.4 67.5,200.8C67,201.1 66.5,201 66.1,201.3C66.1,201.8 66,202.4 66.2,203C66.7,203.2 67.3,202.9 67.9,203.3C67.2,203.8 66.6,203.4 66,203.7C66.6,203.6 67.2,203.6 67.9,203.6ZM54.8,206.3C54.4,205.3 54.2,204.3 54.2,203.3C54.3,202.3 54.4,201.2 55.4,200.5C55,200.6 54.6,199.9 54.2,200.5C53.3,200.1 53.7,199.2 53.5,198.3C53.4,199.1 53.4,199.7 53.4,200.4C53.8,200.5 54.1,200.7 53.9,201.2C53.8,201.4 53.8,201.6 53.8,201.8C54,202.8 53.9,203.8 53.8,204.7C53.7,205.2 53.7,205.8 53.8,206.4C54,205.8 54.3,206.3 54.8,206.3ZM57.9,202.3C57.5,202.4 57.5,202.4 57.5,202.6L57.5,203.9C57.4,205.6 56.8,206.3 55.2,206.8C55.1,206.8 55.1,206.9 55,206.9C56.1,207.1 57.1,206.7 58,206.4C57.8,206.2 57.3,206.5 57.1,206.2C57.7,205.6 58.5,206.1 59.1,205.8C58.6,205.5 58,205.9 57.5,205.6C57.9,205.3 57.9,205.3 57.8,204.6C58,204.3 58.4,204.4 58.7,204.3C59,204.2 59.5,204.2 59.3,203.7C58.8,203.3 58.5,203.8 57.9,203.8C58.4,203.2 57.4,202.8 57.9,202.3ZM76.6,193.9C75.5,193.3 74.4,194.3 73.2,193.9C73.1,194.1 73.3,194.5 73.1,194.8C72.7,194.8 72.2,194.7 71.8,195.2C72.3,195.2 72.8,195.3 73.3,195.4C73.9,195.6 74.2,194.8 74.7,194.8C75,194.8 75.2,194.8 75.5,194.7C75.8,194.7 76,194.6 76.2,194.6C76.7,194.5 76.7,194.2 76.6,193.9ZM78.4,198.6C79,199.3 79,199.3 78.4,199.7C78.6,199.9 78.9,199.6 79.1,199.9C78.9,200.2 78.5,199.9 78.4,200.3C78.7,200.2 79,200.2 79.3,200.1L79.3,192.4L79.2,192.4L79.2,196.5C79,196.9 78.5,196.6 78.5,197C78.6,197.2 79,197 79,197.3C78.7,197.6 78.1,197.5 78.2,198.1C78.5,198.3 78.9,198 79.1,198.4C78.8,198.5 78.6,198.5 78.4,198.6ZM97.4,197C98.1,197.1 98.1,197.6 98.1,198.2L98.1,203.9C98.1,204.8 98.2,205.8 97.9,206.7C97.8,206.9 98,207 98.2,207C98.4,206.8 98.3,206.6 98.3,206.4L98.3,197.7C98.4,197 98.3,196.9 97.4,197ZM101.9,199.6C102.2,199.3 102.1,199 102.1,198.7C102.2,198.6 102.5,198.7 102.6,198.5C102.3,198.5 101.9,198.4 101.6,198.6C101.6,199.1 101.5,199.6 101.8,200.1C102.5,200.2 103.2,200.1 103.7,200.7C103.5,201.1 103.2,200.5 103,200.9C103.5,201.2 104,201.1 104.6,200.9C104.5,200.4 104.7,199.9 104.4,199.3C103.6,199.8 102.8,200 101.9,199.6ZM103.9,209.8C103.8,209.8 103.7,209.7 103.5,209.7C103.4,209.7 103.2,209.5 103.2,209.8C103.8,210.1 104.3,210.1 105,209.9C105.1,209.4 105.1,208.8 104.9,208.2C104,208.9 103,208.8 102.1,208.7C101.9,209.2 102.2,209.3 102.5,209.3C103.1,209.1 103.6,209 103.9,209.8ZM89.9,196.4C89.6,196.4 89.3,196.3 89,196.5C89,197 88.9,197.5 89.1,198C89.9,198 90.7,198 91.3,198.7C91.5,198.9 91.9,198.8 92.1,198.6C92.1,198.2 92.1,197.7 91.9,197.2C91.1,197.7 90.2,198 89.3,197.4C89.4,197 89.2,196.4 89.9,196.4ZM89,199.3L89,202C89.3,202.1 89.6,202.2 89.9,202C89.8,201.7 89.5,201.8 89.4,201.6C89.4,201.4 89.6,201.5 89.7,201.4C89.6,201.2 89.1,201.4 89.2,200.9C90.2,201.2 91.2,200.2 92.1,201.2L92.1,199.2C92,199.6 92.1,200.1 91.6,200.3C91.2,200.5 90.7,200.6 90.3,200.7C89.9,200.8 89.4,200.7 89.3,200.2C89.4,200 89.7,199.9 89.5,199.5C89.3,199.4 89.2,199.4 89,199.3ZM104.8,205.5C103.8,205.5 102.9,205.3 102,205.7C103.1,205.4 103.7,206.2 104.5,206.6C104.4,206.8 104.1,206.8 103.9,206.9C104.3,206.9 104.6,206.8 104.9,207.1C104.9,207.4 104.5,207.2 104.4,207.5C104.6,207.6 104.8,207.8 105.1,207.7C105,207 105,206.3 104.8,205.5ZM91.2,196.4C91.4,196.7 91.6,196.8 91.9,196.8C92,196.3 92,195.8 91.9,195.2C90.9,194.8 90,194.6 89,194.8C88.9,195 88.9,195.2 89,195.4C89.1,195.5 89.3,195.4 89.4,195.4C90.6,195.3 91.9,195.7 91.6,196.3C91.5,196.3 91.4,196.3 91.2,196.4ZM96,200.8C95.9,201.6 95.9,202.4 96,203.2C96.3,203.3 96.5,203.4 96.7,203.3L96.7,200.8C96.4,200.7 96.2,200.6 96,200.8ZM95.8,197.3C95.7,199.2 95.8,199.5 96.7,199.8C96.5,199 96.6,198.2 96.5,197.4C96.3,197.3 96.1,197.3 95.8,197.3ZM67.8,199C68.2,197.9 67.7,196.9 67.6,195.8C67.6,196.5 67.5,197.1 67.7,197.7C66.9,197.9 66.2,198 65.4,198.2C66,198.3 66.5,198.2 67,198.2C67,198.6 66.7,198.5 66.6,198.6C66.9,198.8 67.1,198.5 67.4,198.6C67.6,198.7 67.4,199.1 67.8,199ZM96.7,206.5L96.7,204.2C96.5,204.1 96.4,204.1 96.2,204L96,204C95.8,206.1 95.8,206.2 96.7,206.5ZM78.1,205.2C78.3,205.7 79,205.4 79.1,206C78.7,206 78.4,205.8 78,206C78.4,206.1 78.8,206.4 79.3,206.3C79.3,205.7 79.4,205.1 79.2,204.5C78.8,204.4 78.4,204.3 78.1,204.6C78.5,204.8 78.8,204.6 79,205C78.9,205.2 78.7,205.1 78.5,205.1C78.3,205.1 78.1,205 78.1,205.2ZM97.1,199.9C97.7,199.7 97.7,199.7 97.6,198.4C97.6,198 97.8,197.4 97,197.4C97,198.3 97,199.1 97.1,199.9ZM58.8,207.5C59.2,207.6 59.6,207.5 59.9,207.7C59.9,208.1 59.3,207.9 59.4,208.3C59.4,208.6 59.7,208.3 59.8,208.6C59.8,208.8 59.8,209.1 59.9,209.7C60.1,208.6 60.3,207.7 60.1,206.7C59.5,207 59.2,207.3 58.8,207.5ZM60.2,196.5C59.9,197.5 60.2,198.6 60,199.7C59.7,199.9 59.3,199.9 59.1,200.2C59.3,200.3 59.5,200.2 59.7,200.4C59.7,200.7 59.7,201 59.8,201.2L59.9,201.2C60.4,199.6 60.3,198 60.2,196.5ZM88.4,193.4C88.5,192.8 88.4,192.2 88.4,191.6C88.1,191.5 87.7,191.4 87.3,191.3C87.5,191.7 87.4,192 87.5,192.3C87.7,192.1 87.6,191.7 88.1,191.8C88,192.3 88.5,192.7 88,193.2C87.7,193.1 87.5,192.9 87.1,193.1C87.4,193.4 87.9,193.4 88.4,193.4ZM77.5,194.9C77,194.9 76.6,195 76.2,195C75.8,195 75.5,195.6 75,195.1C74.9,195.4 74.8,195.6 74.7,195.8C75.7,195.6 76.7,195.6 77.5,194.9ZM95.6,192.9C95.4,192.9 95.2,192.7 95,192.9C95,193.3 95.3,193.1 95.5,193.1C95.5,194.1 95.6,195.1 95.9,196.1C95.7,195.1 96.1,194 95.6,192.9ZM101.9,202.9C101.8,203.5 102.2,203.5 102.4,203.5C103.2,203.3 104,203.3 104.7,203.2C104.7,203 104.8,202.9 104.6,202.7C103.8,202.8 102.9,203.5 101.9,202.9ZM78.6,210.8C78.7,211 79.1,210.8 79,211.2C78.9,211.3 78.7,211.4 78.6,211.5C78.8,211.6 79,211.8 79.3,211.6C79.2,210.9 79.4,210.2 79.2,209.5C79,209.5 78.8,209.3 78.6,209.5C78.7,209.7 78.9,209.7 78.8,210C78.6,210.2 78.3,210 78,210.2C78.3,210.4 78.7,210.1 79.1,210.5C79.1,210.7 78.8,210.7 78.6,210.8ZM58.9,211.2C58.9,210.8 59.1,210.3 58.5,209.8C58.8,211.3 57.8,211.1 57,211.3C57.7,211.6 58.3,211.5 58.9,211.2ZM95.2,197.2C94.8,197.9 94.8,198.7 95.3,199.6C95.5,198.7 95.5,198 95.2,197.2ZM75.1,218.4L75,218.4L75,223.5L75.1,223.5L75.1,218.4ZM79.2,215.8C79.3,215.3 79.3,214.8 79.2,214.3C78.9,214.4 78.7,214.3 78.4,214.6C78.7,214.9 78.6,215.4 78.6,215.8C78.9,215.9 79,215.9 79.2,215.8ZM97.4,203.6C97.8,202.6 97.7,201.8 97.5,201C97.5,200.8 97.3,200.9 97.1,200.9C97.3,201.8 97,202.6 97.4,203.6ZM95.2,200.6C95.1,201.5 95,202.3 95.3,203.2C95.6,202.3 95.5,201.4 95.2,200.6ZM86.1,217.8C85.9,217.4 85.7,217.3 85.5,217.3C85.2,217.2 85.1,217.7 84.8,217.5C84.6,217.4 84.5,217.2 84.3,217.4C84.3,217.4 84.5,217.6 84.3,217.7L84,217.7C83.9,217.7 83.8,217.6 83.8,217.8L86.1,217.8ZM69.6,219.9C70.2,219.8 70.5,219.8 70.9,219.7C71,219.3 71,219 70.9,218.7C70.3,218.5 70.6,219.1 70.3,219.2C70,219.3 69.7,219.1 69.4,219.3C69.8,219.4 70.1,219.2 70.4,219.5C70.3,219.8 70,219.6 69.6,219.9ZM73.8,218L73.5,218L73.5,221.3C73.6,220.2 73.7,219.1 73.8,218ZM96.2,193.2C96.1,193.7 96.1,194.2 96.2,194.7C96.3,195.2 96.2,195.7 96.4,196.1C96.7,196.2 96.9,196.2 97.1,196.1C96.5,195.6 96.5,195.5 96.2,193.2ZM97.4,206.4C97.7,205.7 97.8,204.9 97.4,204.2C97.1,205 97.1,205.7 97.4,206.4ZM63.8,208.5C64.5,208 64.6,207.8 64.2,206.7C63.6,207.2 64,207.8 63.8,208.5ZM57.8,216.8L56.6,216.8C56.4,216.9 56.3,217.2 56.5,217.3C56.8,217.7 57.5,217.4 57.8,216.8ZM54.3,220.5C54.5,219.7 54.7,218.9 54.3,217.9L54.3,220.5ZM79,216.5C79.3,217.6 79,218.9 79.2,220.3C79.4,217.5 79.3,216.7 79,216.5ZM57.8,198C57.1,197.6 56.6,198.5 56,197.9C56.1,198.2 56.2,198.3 56.2,198.3C56.2,198.4 56.1,198.5 56.3,198.6C56.7,198.4 57.3,198.6 57.8,198ZM77,208.5C77.1,208.1 77.3,207.7 77.2,207.2C76.8,207.2 76.4,207.2 76,207.3C76.2,207.8 76.5,207.4 76.8,207.6C77,207.8 76.5,208.2 77,208.5ZM60.9,198.5C61.7,198.9 61.4,197.6 62.1,197.9C61.7,197.8 61.3,197.9 61,197.7C60.8,198 60.8,198.2 60.9,198.5ZM75.7,192.9L75.9,192.9C75.9,192.3 75.6,191.7 76,191C76.2,191.1 76.3,191.2 76.4,191.3C76.5,191.1 76.5,191 76.3,190.7C76.1,190.9 75.8,190.7 75.7,190.9L75.7,192.9ZM64.1,198C63.3,197.9 63,198 62.3,198.4C62.9,198.5 63.5,198.4 64.1,198ZM79,190C78.8,190.1 78.7,190.1 78.7,190.1L78.7,192.7C78.8,191.9 78.7,191 79,190ZM101.9,204.7C102.2,204.7 102.5,204.9 102.7,204.6C102.6,204.3 102.2,204.6 102.1,204.3C102.1,204.1 102.4,204.1 102.3,204C101.9,203.9 101.9,203.9 101.9,204.7ZM91.7,192.4C91.2,192.2 90.8,192 90.2,192C90.4,192.1 90.5,192.2 90.6,192.3C90.7,192.4 90.7,192.6 90.7,192.8C90.7,192.9 90.7,193 90.8,193.2C91,192.3 91,192.3 91.7,192.4ZM70.6,195.5C70.9,194.7 70.7,194.1 70.7,193.4C70.7,194.1 70.2,194.6 70.6,195.5ZM58.1,226.5C58.8,226.9 58.9,226.1 59.4,226C59,225.9 58.8,225.9 58.5,225.8C58.4,225.9 58.3,226.1 58.2,226.2C58.1,226.4 58.1,226.5 58.1,226.5ZM98.2,196C98.3,194.8 98.3,194.8 98,193.7C97.8,194.5 98.2,195.2 98.2,196ZM100.2,194.1C100,195 100,196 100.2,196.9L100.2,194.1ZM80.3,192.5C80.4,191.7 80.4,191 79.9,190.3C80,191 80.2,191.8 80.3,192.5ZM64.7,197.3C65.1,197.3 65.5,197.4 65.8,196.9C65.4,197.1 65.1,196.6 64.7,196.8L64.7,197.3ZM79.2,201.3C79.3,201.1 79.3,200.9 79.1,200.7C78.8,200.7 78.4,200.6 78,200.9C78.5,201.1 78.8,201.2 79.2,201.3ZM95.5,204.1L95.4,204.1L95.4,206.5L95.5,206.5L95.5,204.1ZM53.4,204C52.5,204.1 52.4,204.4 52.6,205C52.9,205 53.1,205.1 53.2,204.8C53.1,204.6 52.8,204.7 52.7,204.5C52.9,204.3 53,204.2 53.4,204ZM79.4,203.1C78.6,202.6 78.6,202.6 78.2,203.2C78.5,203.3 78.9,203.3 79.4,203.1ZM74.7,206.4C75.4,206.6 75.8,206.5 76.4,206.5C75.8,206 75.4,206.1 74.7,206.4ZM102.9,213.5C102.9,213.4 103,213.4 103,213.4C102.9,213.1 102.4,213.5 102.4,213C102.5,212.8 102.8,212.9 102.9,212.7C102.7,212.7 102.4,212.6 102.2,212.8C102,213.5 102.4,213.6 102.9,213.5ZM104.8,204.6C104.3,204.2 103.7,204.4 103.1,204.6C103.7,204.9 104.2,204.4 104.8,204.6ZM74,204C73.7,203.3 73.7,203.3 73,202.8C73.2,203.3 73.4,203.8 74,204ZM65.3,199.4C65.9,199.6 66.4,199.3 66.9,199C66.4,199.2 65.8,199.3 65.3,199.4ZM60.8,194.8C61,195 61.2,194.5 61.4,194.9C61.4,195.1 61.4,195.5 61.5,195.8C61.5,195.4 61.7,195 61.5,194.6C61.2,194.6 60.9,194.4 60.8,194.8ZM79.4,209.1C78.7,208.4 78.3,208.7 77.8,209C78.3,209 78.8,208.9 79.4,209.1ZM98.7,193.7C98.7,193.7 98.6,193.7 98.7,193.7C98.6,194.4 98.6,195.1 98.6,195.8L98.7,195.8L98.7,193.7ZM66.2,193.5C66.8,193.5 67.2,193.3 67.7,193C67.1,193.1 66.6,193 66.2,193.5ZM79.3,208.2C78.8,207.8 78.4,207.8 77.8,208.2L79.3,208.2ZM71.8,192C72.1,192.2 72.6,191.9 72.9,192.3C72.8,191.6 72.8,191.6 71.8,192ZM84.1,191.7C83.5,191.7 83.1,191.6 82.7,191.3L82.7,191.7C83.1,191.8 83.4,192 83.8,192C83.8,192.1 83.9,191.9 84.1,191.7ZM74.1,213.1C73.1,212.8 73.1,212.8 73.2,213.4C73.5,213.4 73.7,213.2 74.1,213.1ZM97.1,193.4C97,194.1 97,194.7 97,195.3L97.1,195.3L97.1,193.4ZM103,207.3C101.9,207.4 101.9,207.4 102.2,208.2C102.3,207.6 102.3,207.6 103,207.3ZM60.7,207.6C60.8,207.4 61.2,207.7 61.3,207.3C60.7,207.2 60.4,207.4 60.5,208C60.5,208.1 60.5,208.1 60.6,208.1C60.9,208.1 60.5,207.8 60.7,207.6ZM108.8,218.9C108.2,218.6 108.2,218.6 107.3,218.9C107.8,219 108.2,219 108.8,218.9ZM73.8,223.9L73.8,225.8L73.8,223.9ZM53.9,223C53.2,222.7 53.2,222.7 52.3,222.9C52.8,222.8 53.3,222.8 53.9,223ZM104.3,194.7L104.1,194.7L104.1,196.3C104.2,195.7 104.1,195.2 104.3,194.7ZM56.8,213.6C57.3,213.7 57.6,213.8 57.9,213.5C57.5,213.3 57.2,213.3 56.8,213.6ZM96.7,196.9C96.1,196.8 95.6,196.6 95,196.9L96.7,196.9ZM100.6,194.7C101.1,194.3 101.1,194.3 100.7,194C100.5,194.2 100.5,194.5 100.6,194.7ZM79.2,202.3C78.7,202 78.7,202 78.3,202.3L79.2,202.3ZM58.3,216.9C58.3,217.4 58.3,217.4 58.6,217.4C58.7,217.4 58.9,217.4 58.9,217.2C58.8,217 58.6,216.8 58.3,216.9ZM69.4,193.6C69.3,193.4 69.6,193 69.2,192.5C69,193.1 69.4,193.4 69.4,193.6ZM76.1,209.8C76.5,210 76.8,210 77.1,209.8C76.7,209.6 76.5,209.6 76.1,209.8ZM63.9,220L63.9,218.4L63.9,220ZM79.2,204C78.8,203.6 78.5,203.6 77.9,204L79.2,204ZM80.7,191.9C80.8,191.4 80.8,190.9 80.7,190.4L80.7,191.9ZM74.2,220.2C74.3,219.7 74.3,219.3 74.3,218.8L74.2,218.8L74.2,220.2ZM78.1,191.8C78.2,191.3 78.2,190.8 78.2,190.3L78.1,190.3L78.1,191.8ZM97.3,212.8C97.3,213.3 97.1,213.5 97.5,213.9C97.6,213.5 97.6,213.2 97.3,212.8ZM59.3,199.4C58.8,199.2 58.4,199.4 57.9,199.6C58.5,199.8 58.9,199.7 59.3,199.4ZM60,194.8C60.3,195.1 60,195.5 60.3,195.9C60.2,195.5 60.4,195.1 60,194.8ZM61.8,225.4C61.4,225.4 61,225.4 60.7,225.7C61.2,225.8 61.5,225.6 61.8,225.4ZM90.9,201.9C91.3,201.7 91.6,202.3 92,202C91.7,201.7 91.4,201.7 90.9,201.9ZM66.5,211C66.1,211 65.8,210.8 65.6,211.2C65.9,211.3 66.1,211.4 66.5,211ZM95.1,194.9C95.1,195.6 95.1,195.6 95.4,196C95.3,195.7 95.2,195.3 95.1,194.9ZM66.4,196.2C66.7,195.9 66.6,195.6 66.6,195.3C66.6,195.6 66.2,195.8 66.4,196.2ZM70,193.6C70.1,193.2 70.2,192.8 69.9,192.4C69.9,192.8 70,193.2 70,193.6ZM71.1,192.2C70.6,192.1 70.6,192.4 70.6,192.7C70.6,192.7 70.7,192.8 70.7,192.9C70.9,192.7 71,192.5 71.1,192.2ZM76.4,193.2C76.5,192.8 76.7,192.5 76.5,192.1C76.2,192.4 76.3,192.7 76.4,193.2ZM55.1,197C55.5,196.9 55.8,196.9 56.2,196.8C55.8,196.7 55.4,196.7 55.1,197ZM51.8,223.3L52.9,223.3C52.5,223.2 52.1,223.2 51.8,223.2L51.8,223.3ZM52.8,202.1C52.9,201.7 53,201.5 53.1,201.1C52.6,201.3 52.7,201.6 52.8,202.1ZM85,192.6L83.8,192.6C84.1,192.7 84.5,192.8 85,192.6ZM105.6,197.6C105.7,197.2 105.7,196.9 105.6,196.5C105.5,196.9 105.5,197.2 105.6,197.6ZM86.4,193C86.2,192.9 85.9,192.7 85.7,193C85.9,192.9 86.1,193.2 86.4,193ZM91.2,194C91.3,193.7 91.3,193.4 91.3,193L91.2,193L91.2,194ZM102.2,201.9C101.8,202 101.8,202 102,202.4C102.2,202.2 102.3,202 102.2,201.9ZM56.1,199.9L56,199.8C55.8,199.8 55.6,199.8 55.4,199.9C55.4,199.9 55.3,200 55.3,200.1C55.5,200 55.8,200 56.1,199.9ZM79.2,220.8C79,220.8 78.7,220.5 78.3,220.9C78.8,220.9 79,221.1 79.2,220.8ZM73.9,206.8C73.9,206.8 73.9,206.9 73.9,206.8C74.2,206.9 74.5,206.9 74.8,206.9L74.8,206.8L73.9,206.8ZM74.9,209.8C75.4,209.9 75.4,209.9 75.6,209.7C75.4,209.6 75.2,209.6 74.9,209.8ZM57.7,218C57.4,217.8 57.1,217.9 56.8,218.1C57.1,218.1 57.4,218.1 57.7,218ZM75.5,225.7C75.6,225.4 75.6,225.1 75.5,224.7L75.5,225.7ZM57.4,210.8C56.8,210.7 56.5,210.7 56.1,210.8C56.5,210.9 56.8,210.9 57.4,210.8ZM96.9,213.8L96.9,213.3C96.9,213.2 97,212.9 96.7,213C96.6,213.3 96.7,213.5 96.9,213.8ZM79.9,193.2C79.9,192.9 80,192.5 79.9,192.1C79.7,192.5 79.7,192.8 79.9,193.2ZM102.8,201.4L102.1,201.4L102.8,201.4ZM96.7,214.3C96.4,214.2 96.1,214.2 95.8,214.3C96.2,214.4 96.4,214.3 96.7,214.3ZM66.6,196.8C66.5,196.7 66.5,196.6 66.4,196.6C66.2,196.6 66.2,196.7 66.1,196.8C66.1,196.9 66.1,197 66.3,197C66.4,197 66.5,197 66.6,196.8ZM57.2,195.6C56.8,195.5 56.5,195.5 56.3,195.7C56.5,195.4 56.7,195.8 57.2,195.6ZM97.6,194.4C97.5,194.6 97.5,194.9 97.6,195.1L97.6,194.4ZM89.9,192.6L89.9,193.3L89.9,192.6ZM74.1,216.9C74.6,216.7 74.8,216.9 75.2,216.6C74.8,216.7 74.6,216.5 74.1,216.9ZM57.4,212.5C57.2,212.4 57.1,212.2 56.9,212.5C57,212.7 57.2,212.6 57.4,212.5ZM109.7,217.1C110,217.2 110.3,217.2 110.5,217.2L110.5,217.1L109.7,217.1ZM102.3,211.3C102.4,211.1 102.5,210.9 102.3,210.8L102.1,210.8C102,211 102,211.1 102.3,211.3ZM59.3,210.2C59.2,210.6 59.2,210.9 59.3,211.2C59.5,210.8 59.5,210.5 59.3,210.2ZM58.8,208.1C58.6,208.4 58.5,208.5 58.8,208.7C59,208.5 59,208.3 58.8,208.1ZM95.9,206.9C96.2,206.9 96.4,207 96.7,206.9C96.4,206.8 96.2,206.8 95.9,206.9ZM78.4,206.7C78.6,207 78.9,206.9 79.1,206.9C79,206.7 78.8,206.5 78.4,206.7ZM56.1,216.4C55.9,216.4 55.7,216.3 55.6,216.5C55.6,216.5 55.6,216.6 55.7,216.7C55.9,216.8 56,216.7 56.1,216.4ZM75.3,192.5C75.1,192.6 75,192.7 75.1,192.9C75.1,193 75.2,193 75.3,193L75.3,192.5ZM68.7,193.5C68.8,193.3 68.9,193.1 68.6,192.9C68.6,193.1 68.7,193.3 68.7,193.5ZM65.9,194.5C65.8,194.9 65.8,195.1 65.9,195.2L65.9,194.5ZM67.2,195.5C67.1,195.5 67.1,195.6 67,195.6C66.9,195.7 66.9,195.9 67.1,195.9C67.3,195.9 67.3,195.7 67.2,195.5ZM53.5,196.9C53.6,196.7 53.6,196.5 53.4,196.3C53.2,196.6 53.3,196.8 53.5,196.9ZM104.1,198.6C104.2,198.8 104.3,198.9 104.5,198.8C104.5,198.8 104.6,198.7 104.5,198.6C104.4,198.5 104.3,198.5 104.1,198.6ZM67.9,199.6C67.6,199.4 67.4,199.5 67.2,199.7C67.5,199.8 67.7,199.9 67.9,199.6ZM58.5,204.7C58.7,204.6 59,204.9 59.2,204.6C59,204.6 58.8,204.5 58.5,204.7ZM59.9,205.7C60,205.9 59.7,206.1 60,206.3C60,206.1 60.2,205.9 59.9,205.7ZM74.4,221C74.3,221.2 74.3,221.4 74.3,221.6L74.4,221.6L74.4,221ZM59,206.8C58.8,206.9 58.6,206.6 58.4,206.9C58.6,206.9 58.8,207 59,206.8ZM58,208.7C58.2,208.5 58.3,208.3 58,208.2C57.9,208.3 57.9,208.4 58,208.7ZM58.9,209.3C58.9,209.2 58.8,209.1 58.7,209.1C58.7,209.1 58.6,209.2 58.6,209.3C58.6,209.4 58.6,209.5 58.8,209.5C58.9,209.5 58.9,209.4 58.9,209.3ZM76,210.8C75.6,210.7 75.4,210.7 75.1,210.9C75.4,211 75.6,210.9 76,210.8ZM83.9,191C83.9,190.9 84,190.8 84,190.8L83.9,190.8C83.8,190.8 83.7,190.9 83.8,191L83.9,191ZM68.1,193.5L68,193.5L68,193.9C68.1,193.8 68.1,193.6 68.1,193.5ZM89.4,193.9L89.5,193.9L89.5,193.5C89.4,193.6 89.4,193.7 89.4,193.9ZM64.9,193.5C64.8,193.6 64.8,193.7 64.7,193.7C64.7,193.7 64.7,193.9 64.8,193.9C65,193.9 65,193.8 65,193.6C65,193.7 65,193.6 64.9,193.5ZM78.7,193.7C78.7,193.6 78.7,193.6 78.6,193.5C78.5,193.4 78.4,193.5 78.4,193.6C78.4,193.7 78.4,193.7 78.5,193.8C78.6,193.8 78.7,193.7 78.7,193.7ZM83.2,193.7C83.4,193.8 83.5,193.8 83.8,193.7L83.2,193.7ZM87.3,193.8C87.5,193.9 87.6,193.9 87.8,193.8C87.7,193.7 87.5,193.7 87.3,193.8ZM90.7,194.2L90.7,193.9L90.7,194.2ZM58.7,195.1C58.8,195.2 58.8,195.4 58.9,195.5C58.9,195.3 59,195.1 58.7,195.1ZM58.2,197.2C58.2,197.2 58.2,197.3 58.2,197.2L58.6,197.2L58.2,197.2ZM67.1,197.3C66.9,197.4 66.8,197.3 66.7,197.5C66.8,197.5 66.9,197.6 67.1,197.3ZM106.5,197.9L106.5,198.2L106.5,197.9ZM89.6,198.3C89.5,198.3 89.3,198.2 89.2,198.4C89.3,198.4 89.5,198.5 89.6,198.3ZM57.7,198.8L57.7,198.7C57.6,198.7 57.5,198.7 57.3,198.8L57.7,198.8ZM74.6,199.4C74.8,199.3 74.9,199.3 74.9,199.1C74.9,199.1 74.9,199 74.8,199C74.6,199 74.6,199.1 74.6,199.4ZM57.3,199.7C57.1,199.6 57,199.6 56.8,199.7L57.3,199.7ZM75.2,201C75.2,201.2 75.1,201.4 75.3,201.4C75.3,201.4 75.4,201.4 75.4,201.3C75.4,201.3 75.3,201.2 75.2,201ZM78.2,201.6C78.3,201.7 78.5,201.7 78.7,201.6C78.5,201.5 78.4,201.5 78.2,201.6ZM59.2,203.2C59.3,203.2 59.3,203.2 59.4,203.1C59.4,203.1 59.4,203 59.3,202.9C59.2,202.9 59.1,202.9 59.1,203C59.1,203.1 59.2,203.1 59.2,203.2ZM75.5,203.5C75.6,203.3 75.6,203.2 75.5,203.1C75.4,203 75.3,203.1 75.3,203.1C75.3,203.3 75.4,203.4 75.5,203.5ZM53,203.6C52.8,203.5 52.7,203.5 52.6,203.7C52.7,203.7 52.8,203.6 53,203.6ZM75.1,203.8C75.1,203.7 75.1,203.7 75,203.6C74.9,203.5 74.8,203.6 74.8,203.7C74.8,203.8 74.8,203.8 74.9,203.9C74.9,203.8 75,203.8 75.1,203.8ZM60,204C60,203.9 60,203.9 59.9,203.8L59.8,203.8L59.8,204L60,204ZM53.1,205.3C52.9,205.2 52.8,205.2 52.6,205.3C52.8,205.4 52.9,205.4 53.1,205.3ZM77.1,205.6C76.9,205.5 76.8,205.5 76.6,205.6L77.1,205.6ZM53,207.3C52.8,207.2 52.7,207.2 52.6,207.5C52.7,207.4 52.8,207.4 53,207.3ZM75.4,208C75.3,207.9 75.1,207.9 75,208C75.1,208.1 75.3,208.1 75.4,208ZM52.5,209.1C52.7,209 52.8,209 53,208.9C52.8,208.8 52.6,208.6 52.5,209.1ZM58,209.5C58.1,209.5 58.1,209.5 58.2,209.4C58.3,209.3 58.2,209.2 58.2,209.1C58.1,209 58,209.1 58,209.2C57.9,209.3 57.9,209.4 58,209.5ZM53,209.5C52.8,209.4 52.7,209.4 52.5,209.5L52.5,209.7C52.7,209.7 52.9,209.6 53,209.5ZM60.5,209.7C60.7,209.8 60.8,209.8 61,209.7C60.8,209.6 60.6,209.6 60.5,209.7ZM76.9,212.8C76.9,212.9 76.8,212.9 76.8,213C76.9,213 76.9,213.1 77,213.1C77.1,213.1 77.1,213 77.1,212.9C77,212.8 76.9,212.8 76.9,212.8ZM76.9,213.8C76.8,213.8 76.8,213.8 76.8,213.9C76.8,213.9 76.8,214 76.9,214.1C77,214.1 77.1,214.1 77.1,214C77,213.9 77,213.9 76.9,213.8ZM89.3,214C89.4,214 89.6,214.2 89.7,214L89.3,214ZM110.5,216.4C110.4,216.5 110.3,216.5 110.4,216.7C110.4,216.7 110.5,216.8 110.6,216.8C110.6,216.7 110.7,216.6 110.7,216.5C110.7,216.3 110.6,216.3 110.5,216.4ZM55.5,217.1C55.7,217.2 55.8,217.3 56,217.1L55.5,217.1ZM108.7,218.2C108.8,218.2 108.8,218.2 108.9,218.1C108.9,218.1 108.9,218 108.8,218C108.8,218 108.7,218 108.6,218.1C108.7,218.1 108.7,218.2 108.7,218.2ZM62,207.4C62,207.3 62,207.3 61.9,207.2L61.8,207.2L61.8,207.3C61.9,207.5 61.9,207.5 62,207.4ZM73.3,192.9C73.3,193 73.2,193 73.2,193.1C73.2,193.1 73.3,193.1 73.3,193.2L73.3,192.9ZM64.1,193.8C64,193.9 64,194 64.1,194.1C64.2,194 64.2,193.9 64.1,193.8ZM72.7,194.2C72.6,194.2 72.6,194.1 72.5,194.1C72.5,194.1 72.4,194.2 72.4,194.3C72.4,194.4 72.5,194.4 72.6,194.4C72.6,194.4 72.6,194.3 72.7,194.2ZM87,194.6C86.9,194.5 86.8,194.6 86.8,194.6C86.8,194.7 86.9,194.7 87,194.6ZM63.9,194.9C63.8,194.9 63.8,195 63.7,195C63.6,195.1 63.6,195.1 63.7,195.1C63.8,195.1 63.8,195.1 63.9,195L63.9,194.9ZM106.5,195.2C106.5,195.1 106.6,195.1 106.6,195C106.6,194.9 106.6,194.8 106.4,194.9C106.4,195.1 106.4,195.2 106.5,195.2ZM78.7,195.2L78.6,195.1L78.6,195.2C78.6,195.3 78.7,195.3 78.7,195.3L78.7,195.2ZM62.4,195.3C62.3,195.3 62.3,195.2 62.2,195.3C62.2,195.3 62.1,195.4 62.1,195.5C62.1,195.6 62.2,195.6 62.2,195.5C62.3,195.4 62.4,195.3 62.4,195.3ZM63.6,195.8C63.7,195.8 63.7,195.8 63.8,195.7L63.8,195.5C63.7,195.4 63.6,195.5 63.6,195.6C63.5,195.7 63.5,195.8 63.6,195.8ZM70.6,195.7C70.5,195.7 70.5,195.7 70.4,195.8L70.4,196C70.5,196 70.5,195.9 70.6,195.9C70.7,195.8 70.7,195.7 70.6,195.7ZM97.7,196.1C97.8,196 97.8,195.9 97.7,195.8L97.7,196.1ZM55.2,196.1C55.2,196 55.2,196 55.1,195.9L54.9,195.9C54.9,196 55,196 55,196.1C55.1,196.2 55.2,196.2 55.2,196.1ZM58.9,196C58.9,196.1 58.8,196.1 58.9,196L58.9,196.2C58.9,196.2 59,196.1 58.9,196ZM62.2,196C62.3,196.1 62.4,196.1 62.5,196C62.5,195.8 62.3,195.9 62.2,196ZM58.3,198.6C58.4,198.7 58.5,198.7 58.7,198.6C58.5,198.5 58.4,198.5 58.3,198.6ZM101.9,200.7C102,200.8 102.2,200.8 102.3,200.7C102.2,200.6 102.1,200.7 101.9,200.7ZM55.3,201.6L55.2,201.5C55.2,201.5 55.1,201.6 55.2,201.6C55.2,201.7 55.2,201.7 55.3,201.7C55.3,201.7 55.4,201.6 55.3,201.6ZM56.1,201.9C56.1,201.8 56,201.8 56,201.8C56,201.8 56,201.9 55.9,201.9C55.9,202 55.9,202 56,202C56,202 56.1,202 56.1,201.9ZM90.5,202L90.4,201.9C90.4,201.9 90.3,202 90.4,202C90.3,202 90.3,202 90.5,202C90.5,202.1 90.5,202 90.5,202ZM52.8,202.7C52.9,202.8 53,202.8 53.1,202.8L53.1,202.7L52.8,202.7ZM56.5,204L56.6,204.1L56.7,204C56.6,204 56.6,203.9 56.5,204ZM63.6,203.9C63.6,203.8 63.5,203.8 63.5,203.8L63.4,203.9C63.4,204 63.4,204 63.5,204.1C63.5,204 63.6,203.9 63.6,203.9ZM55.2,205.7L55.1,205.7L55.1,205.9L55.2,205.9L55.2,205.7ZM102.1,206.2C102,206.2 102,206.2 101.9,206.3L102,206.4L102.1,206.4C102.3,206.2 102.2,206.2 102.1,206.2ZM52.6,206.4C52.7,206.4 52.8,206.5 52.8,206.5C52.8,206.5 53.1,206.6 52.9,206.4C52.8,206.3 52.7,206.4 52.6,206.4ZM59.2,206.4L59,206.4L59.2,206.4ZM77,209.3C76.9,209.2 76.8,209.2 76.7,209.3L76.7,209.4C76.8,209.3 76.9,209.3 77,209.3ZM102.2,209.5C102.3,209.6 102.4,209.6 102.6,209.5C102.4,209.4 102.3,209.4 102.2,209.5ZM55.4,209.7C55.5,209.8 55.6,209.8 55.7,209.8L55.7,209.7L55.4,209.7ZM103.6,211C103.7,211 103.8,211.1 103.8,211.1L103.9,211.1C103.9,211 103.8,211 103.6,211ZM62.3,211.2L62.2,211.1L62.1,211.1C62.1,211.2 62.2,211.2 62.3,211.2ZM89.7,212.7C89.6,212.6 89.4,212.6 89.3,212.8C89.4,212.8 89.6,212.9 89.7,212.7ZM95.8,213.3L95.8,213.1L95.8,213.3ZM90.4,213.2C90.5,213.2 90.5,213.3 90.6,213.3C90.7,213.3 90.9,213.3 90.7,213.2C90.6,213 90.4,213.1 90.4,213.2ZM52.2,216.5C52.3,216.5 52.3,216.4 52.3,216.4C52.3,216.4 52.3,216.3 52.2,216.3C52.1,216.3 52.1,216.3 52.1,216.4C52.1,216.5 52.1,216.5 52.2,216.5ZM109.4,216.7L109.2,216.7L109.4,216.7ZM85,216.9C84.9,216.8 84.9,216.8 84.8,216.9L85,216.9ZM75.7,217.3C75.5,217.3 75.4,217.2 75.3,217.4C75.5,217.4 75.6,217.4 75.7,217.3ZM91.2,220.9C91.1,220.9 91.1,220.8 91,220.8C90.9,220.8 90.9,220.9 91,220.9L91.2,220.9ZM62.4,224.1C62.3,224.2 62.2,224.4 62.5,224.4C62.5,224.3 62.5,224.2 62.4,224.1ZM52.4,224.3L52.7,224.3L52.7,224.2C52.6,224.2 52.6,224.2 52.4,224.3ZM52.4,224.8C52.5,224.8 52.5,224.8 52.4,224.8C52.5,224.9 52.7,224.9 52.7,224.8C52.7,224.7 52.5,224.7 52.4,224.8ZM83.1,190.7C83.2,190.7 83.2,190.8 83.3,190.8L83.4,190.7L83.1,190.7C83.2,190.6 83.2,190.7 83.1,190.7ZM85.2,190.9C85.2,190.9 85.2,191 85.2,190.9C85.2,191 85.2,191 85.2,190.9C85.3,190.9 85.2,190.9 85.2,190.9ZM86.1,191.9C86,191.9 86,191.9 85.9,192L86,192.1C86.1,192.1 86.1,192 86.1,191.9C86.2,192 86.1,192 86.1,191.9ZM72.5,192.8C72.4,192.9 72.5,192.9 72.5,192.8ZM71.9,192.9L71.8,193L71.9,193.1C71.8,193.1 71.8,193 71.9,192.9ZM71.9,193.7C71.8,193.7 71.8,193.6 71.9,193.7C71.8,193.6 71.8,193.7 71.8,193.7C71.7,193.8 71.8,193.8 71.9,193.7C71.8,193.8 71.8,193.7 71.9,193.7ZM72.5,193.6C72.4,193.6 72.4,193.7 72.5,193.6ZM63.7,194C63.6,194 63.6,193.9 63.7,194C63.5,194 63.5,194 63.6,194.1L63.7,194ZM62.2,194.5C62.2,194.5 62.2,194.4 62.2,194.5C62.1,194.5 62.1,194.5 62.1,194.6L62.1,194.7C62.2,194.6 62.2,194.6 62.2,194.5ZM105.4,195L105.4,194.9L105.4,195ZM58,195.5C58,195.4 58,195.4 58.1,195.3L58,195.2L58,195.5ZM55.8,195.8C55.8,196 55.8,196 55.9,195.9C55.9,195.8 55.9,195.8 55.8,195.8C55.9,195.8 55.8,195.8 55.8,195.8ZM65.7,196C65.7,196 65.6,196 65.7,196C65.6,196 65.7,196.1 65.7,196C65.7,196.1 65.7,196.1 65.7,196ZM89,195.9C89,195.9 89,196 89,195.9C89,196 89.1,196 89.1,196C89.2,196 89.2,195.9 89,195.9C89.1,195.9 89.1,195.9 89,195.9ZM54.5,196.2C54.5,196.4 54.5,196.4 54.6,196.3C54.6,196.3 54.6,196.2 54.5,196.2C54.6,196.2 54.5,196.2 54.5,196.2ZM67.2,196.6C67.2,196.6 67.1,196.6 67.2,196.6C67.1,196.6 67.1,196.7 67.1,196.7C67.2,196.8 67.2,196.8 67.2,196.6C67.2,196.7 67.2,196.6 67.2,196.6ZM55.2,198.6L55.3,198.6C55.3,198.6 55.3,198.5 55.2,198.6C55.3,198.5 55.2,198.6 55.2,198.6ZM66.1,198.7C66.1,198.7 66.2,198.7 66.1,198.7C66.1,198.6 66.1,198.6 66.1,198.7C66,198.7 66.1,198.7 66.1,198.7C66.1,198.8 66.1,198.8 66.1,198.7ZM90.6,198.6C90.5,198.6 90.5,198.5 90.4,198.5L90.3,198.6L90.6,198.6ZM103.4,198.6C103.4,198.6 103.4,198.5 103.4,198.6L103.3,198.5C103.2,198.5 103.2,198.6 103.4,198.6C103.3,198.6 103.4,198.6 103.4,198.6ZM73.2,199.2L73.1,199.1C73.1,199.2 73.1,199.3 73.2,199.2C73.2,199.3 73.2,199.2 73.2,199.2ZM90.1,199.9C90,199.9 90,199.8 90.1,199.9L89.9,199.9L90.1,199.9ZM64.6,200.7L64.5,200.7C64.5,200.7 64.5,200.8 64.6,200.7ZM59.3,202.3C59.3,202.2 59.2,202.2 59.2,202.2C59.1,202.3 59.1,202.3 59.3,202.3C59.2,202.4 59.3,202.3 59.3,202.3ZM102.8,202.3C102.8,202.2 102.7,202.2 102.7,202.2L102.8,202.3ZM63.4,203.4C63.4,203.3 63.4,203.3 63.3,203.4C63.3,203.3 63.3,203.4 63.4,203.4C63.3,203.4 63.4,203.4 63.4,203.4ZM64.8,203.5L64.8,203.4L64.8,203.5ZM54.7,204.6L54.8,204.6C54.7,204.5 54.7,204.6 54.7,204.6ZM63.7,204.6L63.8,204.6C63.7,204.5 63.7,204.6 63.7,204.6ZM73.3,205.4L73.3,205.5C73.4,205.4 73.4,205.4 73.3,205.4ZM53,206.8C53,206.9 53,206.8 53,206.8ZM57.6,206.9C57.6,206.9 57.7,206.9 57.6,206.9C57.8,206.9 57.8,206.8 57.6,206.9C57.6,206.8 57.6,206.9 57.6,206.9ZM103.6,207.3C103.5,207.2 103.5,207.2 103.5,207.3C103.4,207.3 103.5,207.4 103.6,207.3C103.6,207.4 103.6,207.3 103.6,207.3ZM58.2,207.4C58.2,207.5 58.1,207.5 58.2,207.4C58.1,207.5 58.2,207.5 58.2,207.5L58.2,207.4ZM61.5,208.2C61.4,208.2 61.5,208.2 61.5,208.2ZM103.2,208.2C103.2,208.2 103.2,208.1 103.2,208.2L103.1,208.1C103,208.2 103,208.2 103.2,208.2C103.1,208.2 103.2,208.2 103.2,208.2ZM74.9,208.7C74.9,208.7 74.9,208.6 74.9,208.7C74.8,208.6 74.8,208.7 74.8,208.7C74.8,208.8 74.8,208.8 74.9,208.7C74.9,208.8 74.9,208.7 74.9,208.7ZM75.5,208.6C75.5,208.6 75.4,208.6 75.5,208.6C75.4,208.7 75.5,208.8 75.5,208.8C75.5,208.8 75.6,208.8 75.6,208.7C75.5,208.7 75.5,208.7 75.5,208.6ZM59.3,209.5C59.3,209.4 59.4,209.4 59.3,209.5C59.4,209.4 59.4,209.4 59.3,209.4L59.3,209.5ZM76.1,209.2C76.1,209.2 76,209.2 76.1,209.2C75.9,209.3 76,209.3 76.1,209.2C76.1,209.3 76.1,209.3 76.1,209.2ZM78,209.6C77.9,209.6 77.9,209.5 78,209.6C77.9,209.5 77.9,209.6 77.9,209.6C77.8,209.7 77.9,209.7 78,209.6C78,209.7 78,209.6 78,209.6ZM58,210.1C57.8,210.1 57.8,210.2 58,210.1ZM61.4,211.3L61.3,211.4L61.4,211.3ZM102.9,211.3C103,211.3 103,211.2 102.9,211.3C103,211.2 102.9,211.2 102.9,211.3C102.9,211.2 102.9,211.2 102.9,211.3ZM78.1,211.9L78,211.9C77.9,211.9 78,211.9 78.1,211.9ZM99.1,215.4L99.1,215.2L99.1,215.4ZM55.2,217.8C55.1,217.8 55.1,217.7 55,217.7C55,217.7 54.9,217.7 54.9,217.8C54.9,217.8 54.9,217.9 55,217.9C55.1,217.9 55.1,217.8 55.2,217.8ZM52.2,218.3L52.1,218.4L52.2,218.5L52.2,218.3ZM51.7,224.3L51.8,224.4C51.9,224.3 51.9,224.3 51.7,224.3C51.8,224.3 51.7,224.3 51.7,224.3ZM71.4,226.3C71.5,226.3 71.5,226.3 71.4,226.3C71.5,226.3 71.5,226.2 71.4,226.3C71.4,226.2 71.4,226.3 71.4,226.3Z" style="fill:rgb(238,243,249);fill-rule:nonzero;"/>
                                <path d="M113.1,224.9C113.1,222.8 112.9,220.8 112.7,218.7C112.6,217.5 112.6,216.4 112.4,215.2C112.2,212.7 112.1,210.3 111.9,207.8C111.6,204.7 111.4,201.7 111.2,198.6C111.2,198.2 111.2,197.8 110.8,197.5C110.7,197 110.7,196.5 111.1,196.1C111.5,196.3 111.5,196.6 111.5,196.9C111.6,199.9 111.9,203 112.1,206C112.3,208.5 112.4,210.9 112.6,213.4C112.8,215.8 113,218.2 113.2,220.7C113.3,222 113.4,223.4 113.5,224.7C113.5,225.1 113.5,225.5 114,225.8C114.2,225.5 114,225.1 114.3,224.9L114.4,225L114.3,225C114.4,225 114.4,224.9 114.5,224.9C115.2,225.3 116,225.2 116.7,225.2C116.8,225.4 116.8,225.5 116.7,225.7C116.4,225.7 116,225.6 115.6,225.9L115.5,225.8L115.6,225.8C117,226.1 118.4,226.2 119.8,226.2C120.2,226.2 120.7,226.1 121.2,226.6C118.8,226.7 116.6,226 114.3,226.2C114.7,226.4 115.3,226.1 115.7,226.8C114.7,226.6 113.8,226.6 112.9,226.6C112.4,226.6 111.8,226.7 111.3,226.8C109.5,227.3 107.6,227.4 105.7,227.3C103.2,227.2 100.7,226.9 98.2,226.9C97.4,226.9 96.6,227.2 95.7,227.1C96,226.7 96.4,226.7 96.8,226.7C99.1,226.6 101.4,226.7 103.8,226.8C105.9,227 108,227.1 110.2,226.6C109.6,226.4 109.1,226.6 108.6,226C109.5,225.9 110.2,226.3 110.9,226.2C111.6,226.1 112.3,225.9 113.1,225.7C112.9,225.2 112.5,225.6 112.2,225.3C112.5,225.1 112.9,225 113.1,224.9Z" style="fill:rgb(238,243,249);fill-rule:nonzero;"/>
                                <path d="M93.4,227.9C88.8,228.2 84.2,228.5 79.6,228.4C80,228 80.5,228.2 81,228.1L84,228.1C82.6,227.8 81.1,227.8 79.8,227.3C79.9,227 80.1,227 80.3,227.1C81.7,227.5 83.2,227.5 84.7,227.6L91.1,227.6C91.9,227.5 92.7,227.6 93.4,227.9Z" style="fill:rgb(238,243,249);fill-rule:nonzero;"/>
                                <path d="M45.9,225.8C45.8,225.2 46.4,225 46.7,224.9C47.6,224.8 48.6,224.7 49.6,225.1C49.2,225.7 48.1,225 48.2,226.1C47.8,225.9 47.4,226 47.1,225.9C46.7,225.8 46.5,225.9 46.2,225.9C46.2,226 46,225.8 45.9,225.8ZM47.3,225.2C47.2,225.2 47.2,225.2 47.2,225.3C47.2,225.4 47.3,225.4 47.4,225.4L47.5,225.3C47.5,225.1 47.4,225.2 47.3,225.2Z" style="fill:rgb(238,243,249);fill-rule:nonzero;"/>
                                <path d="M122.6,225.6C122.6,225.4 122.7,225.3 122.8,225.3C123.7,225.4 124.7,225.4 125.6,225.6C126.5,225.8 127.5,225.6 128.4,226C127.8,226.3 127.1,226.1 126.5,226.1C125.8,226.1 125.1,225.8 124.4,226.1C123.9,225.5 123.1,226 122.6,225.6Z" style="fill:rgb(238,243,249);fill-rule:nonzero;"/>
                                <path d="M107.9,225.6C107.7,226.2 107.1,226.3 106.9,226.3C106.6,226.2 106.3,226.3 105.9,226.3C105.2,226.3 104.6,226.2 104,225.8C104.6,225.3 105.3,225.7 105.9,225.8C106.5,225.7 107.1,225.4 107.9,225.6Z" style="fill:rgb(238,243,249);fill-rule:nonzero;"/>
                                <path d="M67.9,227.4C68.8,227.2 74.9,227.2 75.7,227.4C74.8,227.6 68.7,227.6 67.9,227.4Z" style="fill:rgb(238,243,249);fill-rule:nonzero;"/>
                                <path d="M124.9,227.2C123.4,227.5 120.4,227.7 119.5,227.4C121,227 124,226.9 124.9,227.2Z" style="fill:rgb(238,243,249);fill-rule:nonzero;"/>
                                <path d="M99.4,227.7L105,227.7C104,228.1 100.3,228.1 99.4,227.7Z" style="fill:rgb(238,243,249);fill-rule:nonzero;"/>
                                <path d="M81.9,226.6C81.2,226.9 80.6,226.8 80,226.2C80.8,225.9 81.4,226.4 81.9,226.6Z" style="fill:rgb(238,243,249);fill-rule:nonzero;"/>
                                <path d="M86.1,226.4C85.9,226.7 85.7,226.8 85.4,226.7C85,226.5 84.9,226.3 85.1,225.8C85.5,225.7 85.6,226.2 85.9,226.2C85.9,226.3 85.9,226.4 86.1,226.4Z" style="fill:rgb(238,243,249);fill-rule:nonzero;"/>
                                <path d="M121.8,226.5C122.2,226 122.7,225.8 123.4,226.2C122.9,226.6 122.3,226.3 121.8,226.5Z" style="fill:rgb(238,243,249);fill-rule:nonzero;"/>
                                <path d="M52.8,226.1C53.5,226 53.5,226 54,226.4C53.7,226.7 53.6,226.3 53.4,226.3C53.1,226.3 52.9,226.2 52.8,226.1Z" style="fill:rgb(238,243,249);fill-rule:nonzero;"/>
                                <path d="M54.4,226.7C54.2,226.4 54.2,226.2 54.3,225.9C54.6,225.9 54.9,226 54.9,226.3C54.9,226.7 54.7,226.7 54.4,226.7Z" style="fill:rgb(238,243,249);fill-rule:nonzero;"/>
                                <path d="M45.9,225.7C45.6,225.9 45.3,226.4 44.9,225.9C45.2,225.5 45.6,225.6 45.9,225.7Z" style="fill:rgb(238,243,249);fill-rule:nonzero;"/>
                                <path d="M52,226.6C52,226.8 52.2,227 51.9,227C51.6,227.1 51.4,226.9 51.2,226.6C51.5,226.4 51.8,226.7 52,226.6Z" style="fill:rgb(238,243,249);fill-rule:nonzero;"/>
                                <path d="M52,226.6C51.9,226.5 51.7,226.4 51.6,226.2C51.9,226 52.2,226.1 52.4,226.2C52.5,226.6 52.2,226.6 52,226.6Z" style="fill:rgb(238,243,249);fill-rule:nonzero;"/>
                                <path d="M83.5,226.3C83.7,226.1 83.9,226.1 84.1,226.4C84.2,226.5 84.1,226.6 84,226.7C83.7,226.7 83.5,226.6 83.5,226.3Z" style="fill:rgb(238,243,249);fill-rule:nonzero;"/>
                                <path d="M98.5,226.3C98.3,226.1 98.1,225.9 98.2,225.7C98.4,225.6 98.5,225.8 98.6,225.9C98.5,226 98.5,226.1 98.5,226.3Z" style="fill:rgb(238,243,249);fill-rule:nonzero;"/>
                                <path d="M48.7,225.9C48.9,225.6 49.1,225.8 49.5,225.8C49.1,226 48.9,226.1 48.7,225.9Z" style="fill:rgb(238,243,249);fill-rule:nonzero;"/>
                                <path d="M70.3,226.1C70.2,226.2 70.2,226.2 70.1,226.2C70,226.2 69.9,226.1 70,226C70.1,225.9 70.2,225.9 70.3,225.9L70.3,226.1Z" style="fill:rgb(238,243,249);fill-rule:nonzero;"/>
                                <path d="M97.8,225.9L97.7,225.8C97.7,225.7 97.7,225.6 97.8,225.6L97.9,225.7C97.9,225.8 97.9,225.9 97.8,225.9Z" style="fill:rgb(238,243,249);fill-rule:nonzero;"/>
                            </g>
                        </g>
                    </g>
                </g>
            </g>
        </g>
    </g>
</svg>
