<?xml version="1.0" encoding="UTF-8" standalone="no"?>
<!DOCTYPE svg PUBLIC "-//W3C//DTD SVG 1.1//EN" "http://www.w3.org/Graphics/SVG/1.1/DTD/svg11.dtd">
<svg width="100%" height="100%" viewBox="0 0 3840 2160" version="1.1" xmlns="http://www.w3.org/2000/svg" xmlns:xlink="http://www.w3.org/1999/xlink" xml:space="preserve" xmlns:serif="http://www.serif.com/" style="fill-rule:evenodd;clip-rule:evenodd;stroke-linejoin:round;stroke-miterlimit:2;">
    <g transform="matrix(1,0,0,1,-55.8881,-2532.44)">
        <g id="ABOUT" transform="matrix(1,0,0,1,-11329.8,2532.44)">
            <rect x="11385.6" y="0" width="3840" height="2160" style="fill:none;"/>
            <g transform="matrix(1.792,0,0,1.792,-1630.03,-17226.9)">
                <g id="Layer1">
                    <g>
                        <g transform="matrix(1.19048,0,0,1.19048,3480.48,199.524)">
                            <circle cx="4565" cy="8455" r="105" style="fill:rgb(18,18,18);"/>
                        </g>
                        <g transform="matrix(0.597372,0,0,1.39966,8622.4,9599.34)">
                            <path d="M464.706,523.671C464.706,524.911 464.83,526.058 465.078,527.112C465.326,528.166 465.636,529.251 466.008,530.367C466.256,530.987 467.031,531.638 468.333,532.32C469.635,533.002 471.123,533.653 472.797,534.273C474.471,534.893 476.176,535.389 477.912,535.761C479.648,536.133 481.074,536.319 482.19,536.319C486.654,536.319 490.281,535.017 493.071,532.413C495.861,529.809 498.093,526.864 499.767,523.578C501.441,520.292 502.588,517.099 503.208,513.999C503.828,510.899 504.138,508.853 504.138,507.861C504.138,502.405 503.084,496.67 500.976,490.656C498.868,484.642 496.543,478.814 494.001,473.172C491.459,467.53 489.134,462.26 487.026,457.362C484.918,452.464 483.864,448.403 483.864,445.179C483.864,439.971 485.662,435.6 489.258,432.066C492.854,428.532 498.744,426.641 506.928,426.393C510.4,426.269 512.601,425.835 513.531,425.091C514.461,424.347 514.926,422.735 514.926,420.255C514.926,419.263 514.306,418.426 513.066,417.744C511.826,417.062 510.4,416.504 508.788,416.07C507.176,415.636 505.533,415.326 503.859,415.14C502.185,414.954 500.914,414.861 500.046,414.861C496.078,414.861 492.265,416.318 488.607,419.232C484.949,422.146 481.725,425.587 478.935,429.555C476.145,433.523 473.913,437.46 472.239,441.366C470.565,445.272 469.728,448.279 469.728,450.387C469.728,452.743 470.317,455.595 471.495,458.943C472.673,462.291 474.13,465.856 475.866,469.638C477.602,473.42 479.493,477.326 481.539,481.356C483.585,485.386 485.476,489.292 487.212,493.074C488.948,496.856 490.405,500.421 491.583,503.769C492.761,507.117 493.35,510.031 493.35,512.511C493.35,515.239 492.327,517.75 490.281,520.044C488.235,522.338 485.538,523.485 482.19,523.485C478.718,523.485 475.804,522.896 473.448,521.718C471.092,520.54 469.046,519.951 467.31,519.951C466.69,519.951 466.101,520.23 465.543,520.788C464.985,521.346 464.706,522.307 464.706,523.671Z" style="fill:white;fill-rule:nonzero;"/>
                        </g>
                        <g transform="matrix(0.695447,0,0,0.447283,8527.6,10051.2)">
                            <path d="M498.744,469.545L517.53,489.447C522.49,494.779 527.016,499.15 531.108,502.56C535.2,505.97 539.013,508.667 542.547,510.651C546.081,512.635 549.46,513.999 552.684,514.743C555.908,515.487 559.194,515.859 562.542,515.859C571.222,515.859 580.336,513.503 589.884,508.791C599.432,504.079 608.546,497.817 617.226,490.005L628.758,479.589C629.006,480.953 629.347,483.154 629.781,486.192C630.215,489.23 630.711,492.609 631.269,496.329C631.827,500.049 632.385,503.831 632.943,507.675C633.501,511.519 633.966,514.929 634.338,517.905C634.71,521.377 635.299,524.105 636.105,526.089C636.911,528.073 638.058,529.065 639.546,529.065C640.29,529.065 641.282,528.848 642.522,528.414C643.762,527.98 644.971,527.453 646.149,526.833C647.327,526.213 648.35,525.562 649.218,524.88C650.086,524.198 650.52,523.609 650.52,523.113C650.52,521.749 649.993,520.013 648.939,517.905C647.885,515.797 646.707,513.317 645.405,510.465C644.103,507.613 642.925,504.358 641.871,500.7C640.817,497.042 640.29,492.981 640.29,488.517C640.29,481.697 640.538,475.497 641.034,469.917C641.53,464.337 642.119,459.501 642.801,455.409C643.483,451.317 644.072,447.938 644.568,445.272C645.064,442.606 645.312,440.777 645.312,439.785C645.312,439.041 644.971,438.39 644.289,437.832C643.607,437.274 642.801,436.778 641.871,436.344C640.941,435.91 640.011,435.6 639.081,435.414C638.151,435.228 637.438,435.135 636.942,435.135C636.198,435.135 635.485,435.755 634.803,436.995C634.121,438.235 633.408,440.405 632.664,443.505C630.432,452.681 626.557,461.175 621.039,468.987C615.521,476.799 609.414,483.526 602.718,489.168C596.022,494.81 589.233,499.243 582.351,502.467C575.469,505.691 569.486,507.303 564.402,507.303C561.674,507.303 558.605,506.435 555.195,504.699C551.785,502.963 548.189,500.638 544.407,497.724C540.625,494.81 536.812,491.524 532.968,487.866C529.124,484.208 525.435,480.426 521.901,476.52C518.367,472.614 515.081,468.77 512.043,464.988C509.005,461.206 506.432,457.827 504.324,454.851C499.488,447.783 495.489,442.079 492.327,437.739C489.165,433.399 486.623,430.082 484.701,427.788C482.779,425.494 481.26,423.975 480.144,423.231C479.028,422.487 478.036,422.115 477.168,422.115C476.3,422.115 475.277,422.177 474.099,422.301C472.921,422.425 471.774,422.611 470.658,422.859C469.542,423.107 468.581,423.417 467.775,423.789C466.969,424.161 466.566,424.657 466.566,425.277C466.566,426.889 467.589,428.904 469.635,431.322C471.681,433.74 473.975,436.654 476.517,440.064C479.059,443.474 481.353,447.535 483.399,452.247C485.445,456.959 486.468,462.477 486.468,468.801C486.468,471.901 485.879,475.9 484.701,480.798C483.523,485.696 482.004,490.687 480.144,495.771C478.284,500.855 476.238,505.66 474.006,510.186C471.774,514.712 469.666,518.091 467.682,520.323C465.946,522.307 464.83,523.795 464.334,524.787C463.838,525.779 463.59,526.647 463.59,527.391C463.59,527.887 463.869,528.507 464.427,529.251C464.985,529.995 465.698,530.708 466.566,531.39C467.434,532.072 468.364,532.661 469.356,533.157C470.348,533.653 471.278,533.901 472.146,533.901C473.882,533.901 475.277,533.839 476.331,533.715C477.385,533.591 478.222,533.374 478.842,533.064C479.462,532.754 479.896,532.289 480.144,531.669C480.392,531.049 480.64,530.243 480.888,529.251C481.88,524.415 484.081,516.789 487.491,506.373C490.901,495.957 494.652,483.681 498.744,469.545Z" style="fill:white;fill-rule:nonzero;"/>
                        </g>
                    </g>
                </g>
            </g>
        </g>
    </g>
</svg>
