<?xml version="1.0" encoding="UTF-8" standalone="no"?>
<!DOCTYPE svg PUBLIC "-//W3C//DTD SVG 1.1//EN" "http://www.w3.org/Graphics/SVG/1.1/DTD/svg11.dtd">
<svg width="100%" height="100%" viewBox="0 0 3840 2160" version="1.1" xmlns="http://www.w3.org/2000/svg" xmlns:xlink="http://www.w3.org/1999/xlink" xml:space="preserve" xmlns:serif="http://www.serif.com/" style="fill-rule:evenodd;clip-rule:evenodd;stroke-linecap:square;stroke-miterlimit:1.5;">
    <g transform="matrix(1,0,0,1,0,-7431.16)">
        <g id="ARCHITECTURE" transform="matrix(1,0,0,1,0,7431.16)">
            <rect x="0" y="0" width="3840" height="2160" style="fill:none;"/>
            <g id="Layer5" transform="matrix(1,0,0,1,0,-7431.16)">
                <g transform="matrix(0.363751,0,0,0.309979,2937.91,8151.6)">
                    <path d="M327.747,76.827L421.264,313.242L73.517,376.414L-20,140L327.747,76.827Z" style="fill:rgb(18,18,18);"/>
                </g>
                <g transform="matrix(0.363751,0,0,0.309979,2704.07,8816.19)">
                    <path d="M327.747,76.827L421.264,313.242L73.517,376.414L-20,140L327.747,76.827Z" style="fill:rgb(18,18,18);"/>
                </g>
                <g transform="matrix(0.363751,0,0,0.309979,3073.98,8444.73)">
                    <path d="M327.747,76.827L421.264,313.242L73.517,376.414L-20,140L327.747,76.827Z" style="fill:rgb(18,18,18);"/>
                </g>
                <g transform="matrix(0.363751,0,0,0.309979,2431.94,8229.93)">
                    <path d="M327.747,76.827L421.264,313.242L73.517,376.414L-20,140L327.747,76.827Z" style="fill:rgb(18,18,18);"/>
                </g>
                <g transform="matrix(1,0,0,1,1617.01,6022.23)">
                    <path d="M951.153,2268.15L1330.63,2209.4" style="fill:none;stroke:rgb(18,18,18);stroke-width:10px;"/>
                </g>
                <g transform="matrix(1,0,0,1,2122.98,5943.9)">
                    <path d="M951.153,2268.15L1330.63,2209.4" style="fill:none;stroke:rgb(18,18,18);stroke-width:10px;"/>
                </g>
                <g transform="matrix(1,0,0,1,1617.01,6022.23)">
                    <path d="M904.915,2314.58L1006.97,2534.43" style="fill:none;stroke:rgb(18,18,18);stroke-width:10px;"/>
                </g>
                <g transform="matrix(1,0,0,1,2259.05,6237.04)">
                    <path d="M904.915,2314.58L1006.97,2534.43" style="fill:none;stroke:rgb(18,18,18);stroke-width:10px;"/>
                </g>
                <g transform="matrix(1,0,0,1,1617.01,6022.23)">
                    <path d="M1040.98,2607.72L1143.03,2827.57" style="fill:none;stroke:rgb(18,18,18);stroke-width:10px;"/>
                </g>
                <g transform="matrix(1,0,0,1,1617.01,6022.23)">
                    <path d="M1087.22,2561.28L1466.7,2502.54" style="fill:none;stroke:rgb(18,18,18);stroke-width:10px;"/>
                </g>
                <g transform="matrix(0.363751,0,0,0.309979,2568,8523.06)">
                    <path d="M327.747,76.827L421.264,313.242L73.517,376.414L-20,140L327.747,76.827Z" style="fill:rgb(57,102,149);"/>
                </g>
                <g transform="matrix(0.363751,0,0,0.309979,3210.05,8737.86)">
                    <path d="M327.747,76.827L421.264,313.242L73.517,376.414L-20,140L327.747,76.827Z" style="fill:rgb(57,102,149);"/>
                </g>
                <g transform="matrix(0.363751,0,0,0.309979,3443.88,8073.27)">
                    <path d="M327.747,76.827L421.264,313.242L73.517,376.414L-20,140L327.747,76.827Z" style="fill:rgb(57,102,149);"/>
                </g>
            </g>
        </g>
    </g>
</svg>
