<?xml version="1.0" encoding="UTF-8" standalone="no"?>
<!DOCTYPE svg PUBLIC "-//W3C//DTD SVG 1.1//EN" "http://www.w3.org/Graphics/SVG/1.1/DTD/svg11.dtd">
<svg width="100%" height="100%" viewBox="0 0 3840 2160" version="1.1" xmlns="http://www.w3.org/2000/svg" xmlns:xlink="http://www.w3.org/1999/xlink" xml:space="preserve" xmlns:serif="http://www.serif.com/" style="fill-rule:evenodd;clip-rule:evenodd;stroke-linecap:square;stroke-miterlimit:1.5;">
    <g transform="matrix(1,0,0,1,0,-9954.12)">
        <g id="BEHAVIOUR" transform="matrix(1,0,0,1,0,9954.12)">
            <rect x="0" y="0" width="3840" height="2160" style="fill:none;"/>
            <g id="Layer5" transform="matrix(1,0,0,1,0,-7431.16)">
                <g transform="matrix(0.363751,0,0,0.309979,3083.55,8757.45)">
                    <path d="M327.747,76.827L421.264,313.242L73.517,376.414L-20,140L327.747,76.827Z" style="fill:rgb(18,18,18);"/>
                </g>
                <g transform="matrix(1,0,0,1,2268.63,6549.75)">
                    <path d="M904.915,2314.58L1006.97,2534.43" style="fill:none;stroke:rgb(18,18,18);stroke-width:10px;"/>
                </g>
                <g transform="matrix(1,0,0,1,2404.69,6842.89)">
                    <path d="M904.915,2314.58L1006.97,2534.43" style="fill:none;stroke:rgb(18,18,18);stroke-width:10px;"/>
                </g>
                <g transform="matrix(1,0,0,1,2453.58,6364.02)">
                    <path d="M904.915,2314.58L1006.97,2534.43" style="fill:none;stroke:rgb(18,18,18);stroke-width:10px;"/>
                </g>
                <g transform="matrix(0.363751,0,0,0.309979,3219.62,9050.58)">
                    <path d="M327.747,76.827L421.264,313.242L73.517,376.414L-20,140L327.747,76.827Z" style="fill:rgb(57,102,149);"/>
                </g>
                <g transform="matrix(0.363751,0,0,0.309979,3355.69,9343.71)">
                    <path d="M327.747,76.827L421.264,313.242L73.517,376.414L-20,140L327.747,76.827Z" style="fill:rgb(57,102,149);"/>
                </g>
                <g transform="matrix(0.363751,0,0,0.309979,524.458,9232.16)">
                    <path d="M327.747,76.827L421.264,313.242L73.517,376.414L-20,140L327.747,76.827Z" style="fill:rgb(57,102,149);"/>
                </g>
                <g transform="matrix(0.363751,0,0,0.309979,3268.51,8571.72)">
                    <path d="M327.747,76.827L421.264,313.242L73.517,376.414L-20,140L327.747,76.827Z" style="fill:rgb(18,18,18);"/>
                </g>
                <g transform="matrix(0.363751,0,0,0.309979,3404.57,8864.85)">
                    <path d="M327.747,76.827L421.264,313.242L73.517,376.414L-20,140L327.747,76.827Z" style="fill:rgb(18,18,18);"/>
                </g>
                <g transform="matrix(0.363751,0,0,0.309979,3540.64,9157.98)">
                    <path d="M327.747,76.827L421.264,313.242L73.517,376.414L-20,140L327.747,76.827Z" style="fill:rgb(18,18,18);"/>
                </g>
                <g transform="matrix(1,0,0,1,1898.72,6921.22)">
                    <path d="M1089.87,2128.85L1191.92,2348.7" style="fill:none;stroke:rgb(18,18,18);stroke-width:10px;"/>
                </g>
                <g transform="matrix(1,0,0,1,47.5613,7168.52)">
                    <g transform="matrix(1,-0,-0,1,-47.5613,262.649)">
                        <path d="M3012.46,1874.95L3044.4,1885.19L3017.05,1904.6C3023.31,1896.04 3021.02,1881.22 3012.46,1874.95Z" style="fill:rgb(18,18,18);"/>
                        <path d="M660.685,1861.46L1040.16,1802.71L1074.18,1875.99L1453.66,1817.25L1487.68,1890.53L1867.16,1831.78L1901.17,1905.07L2217.41,1856.11L2251.43,1929.39L2630.91,1870.65L2664.92,1943.93C2664.92,1943.93 2937.63,1901.71 3020.68,1888.86" style="fill:none;stroke:rgb(18,18,18);stroke-width:10px;"/>
                    </g>
                </g>
                <g transform="matrix(1,0,0,1,2268.63,6549.75)">
                    <path d="M1145.68,2395.13L766.2,2453.88" style="fill:none;stroke:rgb(18,18,18);stroke-width:10px;"/>
                </g>
                <g transform="matrix(1,0,0,1,2404.69,6842.89)">
                    <path d="M1145.68,2395.13L766.2,2453.88" style="fill:none;stroke:rgb(18,18,18);stroke-width:10px;"/>
                </g>
                <g transform="matrix(0.363751,0,0,0.309979,2898.6,8943.18)">
                    <path d="M327.747,76.827L421.264,313.242L73.517,376.414L-20,140L327.747,76.827Z" style="fill:rgb(57,102,149);"/>
                </g>
                <g transform="matrix(0.363751,0,0,0.309979,3034.67,9236.31)">
                    <path d="M327.747,76.827L421.264,313.242L73.517,376.414L-20,140L327.747,76.827Z" style="fill:rgb(57,102,149);"/>
                </g>
            </g>
            <g transform="matrix(1,0,0,1,-16.3259,252.423)">
                <path d="M546.687,1579.82C546.023,1579.92 545.446,1579.8 544.955,1579.45C544.463,1579.1 544.17,1578.61 544.075,1578L540.88,1557.36L545.505,1556.65L548.699,1577.28C548.795,1577.9 548.655,1578.45 548.281,1578.93C547.906,1579.41 547.375,1579.71 546.687,1579.82ZM535.603,1560.22C534.987,1560.32 534.441,1560.21 533.967,1559.89C533.494,1559.58 533.209,1559.11 533.114,1558.49C533.018,1557.88 533.149,1557.35 533.508,1556.92C533.866,1556.49 534.353,1556.23 534.97,1556.13L550.766,1553.68C551.382,1553.59 551.928,1553.7 552.401,1554.01C552.875,1554.33 553.16,1554.8 553.255,1555.41C553.351,1556.03 553.219,1556.55 552.861,1556.98C552.503,1557.42 552.016,1557.68 551.399,1557.78L535.603,1560.22Z" style="fill:rgb(18,18,18);fill-rule:nonzero;"/>
                <path d="M557.887,1552.58C558.456,1552.49 558.992,1552.62 559.495,1552.97C559.998,1553.32 560.297,1553.8 560.393,1554.42L563.576,1574.98C563.672,1575.6 563.526,1576.15 563.14,1576.63C562.753,1577.12 562.264,1577.4 561.671,1577.5C561.007,1577.6 560.441,1577.47 559.974,1577.12C559.506,1576.77 559.225,1576.28 559.129,1575.67L555.946,1555.1C555.85,1554.49 555.984,1553.94 556.347,1553.46C556.709,1552.98 557.223,1552.68 557.887,1552.58ZM573.647,1550.14C574.311,1550.04 574.877,1550.16 575.344,1550.52C575.812,1550.87 576.093,1551.35 576.189,1551.97L579.372,1572.53C579.468,1573.15 579.34,1573.7 578.989,1574.18C578.638,1574.66 578.119,1574.95 577.431,1575.06C576.862,1575.14 576.326,1575.02 575.823,1574.67C575.32,1574.32 575.02,1573.84 574.925,1573.22L571.742,1552.66C571.646,1552.04 571.792,1551.49 572.178,1551.01C572.564,1550.52 573.054,1550.23 573.647,1550.14ZM559.383,1562.95L575.25,1560.49L575.883,1564.59L560.016,1567.04L559.383,1562.95Z" style="fill:rgb(18,18,18);fill-rule:nonzero;"/>
                <path d="M583.397,1548.63L595.315,1546.79C595.931,1546.69 596.478,1546.81 596.953,1547.13C597.429,1547.46 597.714,1547.93 597.81,1548.55C597.902,1549.14 597.768,1549.66 597.41,1550.09C597.052,1550.52 596.565,1550.78 595.948,1550.88L585.987,1552.42L586.213,1551.77L587.287,1558.7L586.959,1558.46L595.283,1557.17C595.9,1557.08 596.446,1557.19 596.922,1557.52C597.398,1557.85 597.683,1558.32 597.779,1558.94C597.87,1559.53 597.737,1560.04 597.379,1560.48C597.021,1560.91 596.533,1561.17 595.917,1561.27L587.699,1562.54L587.833,1562.23L588.945,1569.41L588.611,1569.14L598.537,1567.6C599.153,1567.5 599.701,1567.63 600.181,1567.98C600.66,1568.33 600.942,1568.78 601.026,1569.33C601.118,1569.92 600.986,1570.44 600.629,1570.88C600.273,1571.33 599.787,1571.6 599.17,1571.69L587.252,1573.54C586.635,1573.63 586.087,1573.5 585.608,1573.15C585.129,1572.8 584.841,1572.32 584.746,1571.7L581.563,1551.14C581.467,1550.52 581.595,1549.97 581.946,1549.5C582.296,1549.02 582.78,1548.73 583.397,1548.63Z" style="fill:rgb(18,18,18);fill-rule:nonzero;"/>
                <path d="M620.318,1542.92C620.888,1542.83 621.379,1542.95 621.794,1543.27C622.208,1543.6 622.46,1544.04 622.548,1544.61L625.759,1565.35C625.854,1565.97 625.726,1566.52 625.376,1567C625.025,1567.48 624.541,1567.76 623.924,1567.86C623.616,1567.91 623.294,1567.9 622.957,1567.84C622.62,1567.79 622.354,1567.68 622.159,1567.51L605.429,1551.92L606.266,1551.21L608.888,1568.15C608.976,1568.72 608.865,1569.22 608.556,1569.65C608.248,1570.09 607.797,1570.36 607.204,1570.45C606.634,1570.54 606.143,1570.42 605.728,1570.09C605.314,1569.77 605.062,1569.32 604.974,1568.75L601.763,1548.01C601.668,1547.39 601.795,1546.85 602.146,1546.37C602.497,1545.89 602.981,1545.6 603.597,1545.51C603.93,1545.45 604.284,1545.47 604.659,1545.54C605.035,1545.62 605.327,1545.77 605.533,1546.01L621.764,1561.2L621.225,1561.72L618.67,1545.21C618.582,1544.64 618.686,1544.14 618.983,1543.71C619.28,1543.27 619.725,1543.01 620.318,1542.92Z" style="fill:rgb(18,18,18);fill-rule:nonzero;"/>
                <path d="M642.21,1564.99C641.522,1565.1 640.966,1565 640.542,1564.68C640.117,1564.37 639.852,1563.88 639.745,1563.19L639.652,1562.58C639.545,1561.89 639.647,1561.34 639.958,1560.91C640.269,1560.49 640.768,1560.22 641.456,1560.12L641.918,1560.05C642.606,1559.94 643.162,1560.04 643.587,1560.35C644.011,1560.66 644.277,1561.16 644.383,1561.85L644.477,1562.45C644.583,1563.14 644.481,1563.7 644.17,1564.12C643.86,1564.55 643.36,1564.81 642.673,1564.92L642.21,1564.99Z" style="fill:rgb(18,18,18);fill-rule:nonzero;"/>
                <path d="M647.795,1564.13C647.107,1564.23 646.551,1564.13 646.127,1563.82C645.702,1563.51 645.437,1563.01 645.33,1562.32L645.237,1561.72C645.13,1561.03 645.232,1560.47 645.543,1560.05C645.854,1559.62 646.353,1559.36 647.041,1559.25L647.503,1559.18C648.191,1559.08 648.747,1559.18 649.172,1559.49C649.596,1559.8 649.862,1560.3 649.968,1560.99L650.062,1561.59C650.168,1562.28 650.066,1562.83 649.756,1563.26C649.445,1563.68 648.946,1563.95 648.258,1564.06L647.795,1564.13Z" style="fill:rgb(18,18,18);fill-rule:nonzero;"/>
                <path d="M653.403,1563.26C652.715,1563.37 652.159,1563.26 651.734,1562.95C651.31,1562.64 651.044,1562.14 650.938,1561.45L650.844,1560.85C650.738,1560.16 650.84,1559.61 651.151,1559.18C651.461,1558.76 651.961,1558.49 652.648,1558.38L653.111,1558.31C653.799,1558.21 654.355,1558.31 654.779,1558.62C655.204,1558.93 655.469,1559.43 655.576,1560.12L655.67,1560.72C655.776,1561.41 655.674,1561.97 655.363,1562.39C655.053,1562.82 654.553,1563.08 653.865,1563.19L653.403,1563.26Z" style="fill:rgb(18,18,18);fill-rule:nonzero;"/>
            </g>
            <g transform="matrix(1,0,0,1,-36.7383,221.546)">
                <path d="M559.07,1547.05C559.615,1546.97 560.169,1547.09 560.731,1547.43C561.294,1547.77 561.63,1548.29 561.74,1549.01C561.773,1549.22 561.774,1549.46 561.743,1549.73L557.929,1571.45C557.853,1571.9 557.649,1572.27 557.316,1572.55C556.983,1572.83 556.617,1573.02 556.217,1573.1C555.814,1573.16 555.399,1573.11 554.971,1572.93C554.542,1572.76 554.187,1572.46 553.904,1572.04L546.788,1560.9L547.141,1561.07L543.764,1573.61C543.621,1574.09 543.372,1574.48 543.017,1574.78C542.662,1575.08 542.283,1575.26 541.88,1575.32C541.497,1575.36 541.098,1575.29 540.684,1575.12C540.27,1574.96 539.958,1574.67 539.75,1574.27L529.547,1554.72C529.435,1554.47 529.363,1554.24 529.33,1554.02C529.22,1553.31 529.388,1552.71 529.833,1552.22C530.279,1551.72 530.775,1551.43 531.32,1551.35C531.771,1551.28 532.21,1551.33 532.638,1551.51C533.066,1551.68 533.386,1551.99 533.598,1552.41L541.91,1568.69L541.121,1568.77L544.295,1555.86C544.419,1555.4 544.639,1555.02 544.956,1554.72C545.274,1554.41 545.659,1554.24 546.114,1554.19C546.561,1554.1 546.981,1554.15 547.376,1554.34C547.77,1554.54 548.083,1554.84 548.315,1555.24L554.736,1566.12L554.221,1566.56L557.185,1548.76C557.258,1548.29 557.477,1547.9 557.844,1547.61C558.21,1547.31 558.619,1547.12 559.07,1547.05Z" style="fill:rgb(18,18,18);fill-rule:nonzero;"/>
                <path d="M567.989,1545.78C568.558,1545.69 569.094,1545.82 569.597,1546.17C570.1,1546.52 570.399,1547 570.495,1547.61L573.678,1568.18C573.774,1568.79 573.628,1569.35 573.242,1569.83C572.856,1570.31 572.366,1570.6 571.773,1570.69C571.109,1570.8 570.543,1570.67 570.076,1570.32C569.608,1569.97 569.327,1569.48 569.231,1568.87L566.048,1548.3C565.952,1547.69 566.086,1547.14 566.449,1546.66C566.811,1546.17 567.325,1545.88 567.989,1545.78ZM583.749,1543.34C584.413,1543.24 584.979,1543.36 585.446,1543.72C585.914,1544.07 586.195,1544.55 586.291,1545.17L589.474,1565.73C589.57,1566.35 589.442,1566.9 589.091,1567.38C588.74,1567.86 588.221,1568.15 587.533,1568.26C586.964,1568.34 586.428,1568.21 585.925,1567.87C585.422,1567.52 585.123,1567.04 585.027,1566.42L581.844,1545.86C581.748,1545.24 581.894,1544.69 582.28,1544.2C582.667,1543.72 583.156,1543.43 583.749,1543.34ZM569.485,1556.15L585.352,1553.69L585.985,1557.78L570.118,1560.24L569.485,1556.15Z" style="fill:rgb(18,18,18);fill-rule:nonzero;"/>
                <path d="M593.54,1541.82L605.458,1539.98C606.075,1539.88 606.621,1540 607.097,1540.33C607.572,1540.65 607.858,1541.13 607.953,1541.74C608.045,1542.34 607.912,1542.85 607.554,1543.28C607.196,1543.71 606.708,1543.98 606.092,1544.07L596.13,1545.61L596.357,1544.96L597.431,1551.9L597.102,1551.65L605.427,1550.37C606.044,1550.27 606.59,1550.39 607.065,1550.71C607.541,1551.04 607.827,1551.51 607.922,1552.13C608.014,1552.72 607.881,1553.24 607.522,1553.67C607.164,1554.1 606.677,1554.36 606.06,1554.46L597.842,1555.73L597.976,1555.42L599.089,1562.6L598.754,1562.33L608.68,1560.79C609.297,1560.7 609.845,1560.82 610.324,1561.17C610.803,1561.53 611.085,1561.97 611.17,1562.52C611.261,1563.11 611.129,1563.63 610.773,1564.07C610.417,1564.52 609.93,1564.79 609.313,1564.88L597.395,1566.73C596.779,1566.82 596.231,1566.7 595.751,1566.35C595.272,1565.99 594.985,1565.51 594.889,1564.89L591.706,1544.33C591.611,1543.71 591.738,1543.17 592.089,1542.69C592.44,1542.21 592.924,1541.92 593.54,1541.82Z" style="fill:rgb(18,18,18);fill-rule:nonzero;"/>
                <path d="M630.414,1536.12C630.984,1536.03 631.476,1536.15 631.89,1536.47C632.305,1536.8 632.556,1537.24 632.644,1537.81L635.855,1558.55C635.95,1559.17 635.823,1559.72 635.472,1560.2C635.121,1560.67 634.637,1560.96 634.021,1561.06C633.712,1561.11 633.39,1561.1 633.053,1561.04C632.716,1560.99 632.45,1560.88 632.255,1560.71L615.525,1545.12L616.362,1544.41L618.984,1561.35C619.072,1561.91 618.961,1562.42 618.653,1562.85C618.344,1563.29 617.893,1563.56 617.3,1563.65C616.731,1563.74 616.239,1563.62 615.824,1563.29C615.41,1562.97 615.158,1562.52 615.07,1561.95L611.859,1541.21C611.764,1540.59 611.892,1540.05 612.242,1539.57C612.593,1539.09 613.077,1538.8 613.694,1538.7C614.026,1538.65 614.38,1538.66 614.756,1538.74C615.132,1538.82 615.423,1538.97 615.629,1539.21L631.86,1554.4L631.322,1554.92L628.766,1538.41C628.678,1537.84 628.783,1537.34 629.08,1536.91C629.377,1536.47 629.822,1536.21 630.414,1536.12Z" style="fill:rgb(18,18,18);fill-rule:nonzero;"/>
                <path d="M652.338,1558.19C651.65,1558.29 651.094,1558.19 650.669,1557.88C650.245,1557.57 649.979,1557.07 649.873,1556.38L649.779,1555.78C649.673,1555.09 649.775,1554.53 650.086,1554.11C650.396,1553.68 650.896,1553.42 651.583,1553.31L652.046,1553.24C652.734,1553.13 653.29,1553.24 653.714,1553.55C654.139,1553.86 654.404,1554.36 654.511,1555.04L654.604,1555.65C654.711,1556.34 654.609,1556.89 654.298,1557.32C653.987,1557.74 653.488,1558.01 652.8,1558.11L652.338,1558.19Z" style="fill:rgb(18,18,18);fill-rule:nonzero;"/>
                <path d="M657.936,1557.32C657.248,1557.43 656.692,1557.32 656.267,1557.01C655.843,1556.7 655.577,1556.2 655.471,1555.52L655.377,1554.91C655.271,1554.22 655.373,1553.67 655.684,1553.24C655.994,1552.82 656.494,1552.55 657.181,1552.44L657.644,1552.37C658.332,1552.27 658.888,1552.37 659.312,1552.68C659.737,1552.99 660.002,1553.49 660.109,1554.18L660.202,1554.78C660.309,1555.47 660.207,1556.03 659.896,1556.45C659.585,1556.88 659.086,1557.14 658.398,1557.25L657.936,1557.32Z" style="fill:rgb(18,18,18);fill-rule:nonzero;"/>
                <path d="M663.549,1556.45C662.861,1556.56 662.305,1556.45 661.88,1556.14C661.456,1555.83 661.19,1555.33 661.084,1554.65L660.99,1554.04C660.884,1553.35 660.986,1552.8 661.296,1552.37C661.607,1551.95 662.106,1551.68 662.794,1551.58L663.257,1551.51C663.944,1551.4 664.501,1551.5 664.925,1551.81C665.35,1552.12 665.615,1552.62 665.722,1553.31L665.815,1553.91C665.922,1554.6 665.82,1555.16 665.509,1555.58C665.198,1556.01 664.699,1556.27 664.011,1556.38L663.549,1556.45Z" style="fill:rgb(18,18,18);fill-rule:nonzero;"/>
            </g>
            <g transform="matrix(1,0,0,1,-59.4085,185.805)">
                <path d="M554.127,1573.77C552.324,1574.05 550.589,1573.97 548.921,1573.55C547.253,1573.13 545.735,1572.42 544.367,1571.43C543,1570.44 541.859,1569.23 540.944,1567.79C540.029,1566.36 539.434,1564.75 539.159,1562.97C538.884,1561.19 538.965,1559.48 539.402,1557.83C539.839,1556.18 540.56,1554.68 541.564,1553.33C542.568,1551.97 543.801,1550.84 545.264,1549.93C546.726,1549.02 548.359,1548.43 550.162,1548.15C551.276,1547.98 552.374,1547.93 553.454,1548.01C554.534,1548.08 555.55,1548.29 556.501,1548.63C556.886,1548.76 557.192,1548.98 557.42,1549.27C557.647,1549.56 557.787,1549.87 557.838,1550.2C557.926,1550.78 557.815,1551.31 557.506,1551.82C557.196,1552.33 556.745,1552.63 556.152,1552.73C555.962,1552.75 555.763,1552.76 555.554,1552.75C555.345,1552.73 555.138,1552.69 554.934,1552.62C554.3,1552.45 553.641,1552.35 552.955,1552.31C552.268,1552.27 551.558,1552.31 550.822,1552.42C549.281,1552.66 547.935,1553.26 546.786,1554.23C545.636,1555.2 544.788,1556.38 544.241,1557.79C543.694,1559.2 543.542,1560.69 543.784,1562.25C544.023,1563.8 544.616,1565.16 545.565,1566.35C546.514,1567.54 547.683,1568.42 549.071,1568.99C550.459,1569.57 551.924,1569.74 553.466,1569.5C554.178,1569.39 554.949,1569.19 555.781,1568.92C556.613,1568.65 557.283,1568.35 557.792,1568.03L557.637,1569.14L556.695,1563.06L557.383,1563.5L553.434,1564.11C552.817,1564.21 552.27,1564.09 551.792,1563.75C551.315,1563.41 551.028,1562.93 550.933,1562.31C550.838,1561.7 550.966,1561.15 551.319,1560.69C551.671,1560.22 552.156,1559.94 552.773,1559.84L558.607,1558.94C559.224,1558.84 559.766,1558.97 560.233,1559.32C560.701,1559.68 560.982,1560.16 561.078,1560.78L562.245,1568.32C562.319,1568.8 562.267,1569.2 562.089,1569.55C561.912,1569.89 561.695,1570.18 561.44,1570.41C560.452,1571.25 559.342,1571.96 558.11,1572.55C556.878,1573.14 555.55,1573.55 554.127,1573.77Z" style="fill:rgb(18,18,18);fill-rule:nonzero;"/>
                <path d="M571.13,1568.55C571.226,1569.16 571.08,1569.72 570.694,1570.2C570.308,1570.68 569.818,1570.97 569.225,1571.07C568.561,1571.17 567.995,1571.04 567.528,1570.69C567.06,1570.34 566.779,1569.85 566.683,1569.24L563.5,1548.67C563.405,1548.06 563.538,1547.51 563.901,1547.03C564.263,1546.55 564.777,1546.25 565.441,1546.15C566.01,1546.06 566.546,1546.19 567.049,1546.54C567.552,1546.89 567.852,1547.37 567.947,1547.99L571.13,1568.55Z" style="fill:rgb(18,18,18);fill-rule:nonzero;"/>
                <path d="M589.995,1542.28C590.588,1542.18 591.134,1542.3 591.633,1542.62C592.133,1542.95 592.428,1543.41 592.52,1544C592.568,1544.31 592.546,1544.64 592.455,1544.99L586.851,1566.92C586.711,1567.42 586.463,1567.82 586.107,1568.11C585.75,1568.39 585.37,1568.57 584.967,1568.63C584.584,1568.66 584.197,1568.6 583.806,1568.42C583.416,1568.26 583.092,1567.97 582.837,1567.57L570.855,1548.3C570.762,1548.17 570.691,1548.03 570.644,1547.88C570.596,1547.73 570.561,1547.58 570.539,1547.44C570.433,1546.75 570.6,1546.18 571.041,1545.74C571.483,1545.29 571.928,1545.04 572.379,1544.97C573.28,1544.83 574.004,1545.19 574.551,1546.05L585.178,1563.17L583.938,1563.4L588.247,1543.93C588.511,1542.97 589.094,1542.42 589.995,1542.28Z" style="fill:rgb(18,18,18);fill-rule:nonzero;"/>
                <path d="M597.465,1541.19L609.383,1539.35C610,1539.25 610.546,1539.37 611.022,1539.69C611.497,1540.02 611.783,1540.49 611.878,1541.11C611.97,1541.7 611.837,1542.22 611.479,1542.65C611.121,1543.08 610.633,1543.34 610.017,1543.44L600.055,1544.98L600.282,1544.33L601.356,1551.26L601.027,1551.02L609.352,1549.74C609.969,1549.64 610.515,1549.76 610.99,1550.08C611.466,1550.41 611.752,1550.88 611.847,1551.5C611.939,1552.09 611.806,1552.6 611.447,1553.04C611.089,1553.47 610.602,1553.73 609.985,1553.83L601.767,1555.1L601.901,1554.79L603.014,1561.97L602.679,1561.7L612.605,1560.16C613.222,1560.07 613.77,1560.19 614.249,1560.54C614.728,1560.89 615.01,1561.34 615.095,1561.89C615.186,1562.48 615.054,1563 614.698,1563.44C614.342,1563.89 613.855,1564.16 613.238,1564.25L601.32,1566.1C600.704,1566.19 600.156,1566.06 599.676,1565.71C599.197,1565.36 598.91,1564.88 598.814,1564.26L595.631,1543.7C595.536,1543.08 595.663,1542.53 596.014,1542.06C596.365,1541.58 596.849,1541.29 597.465,1541.19Z" style="fill:rgb(18,18,18);fill-rule:nonzero;"/>
                <path d="M634.354,1535.48C634.923,1535.39 635.415,1535.51 635.83,1535.84C636.244,1536.16 636.495,1536.61 636.584,1537.18L639.794,1557.92C639.89,1558.54 639.762,1559.08 639.411,1559.56C639.061,1560.04 638.577,1560.33 637.96,1560.42C637.652,1560.47 637.329,1560.47 636.993,1560.41C636.656,1560.35 636.39,1560.24 636.195,1560.08L619.465,1544.49L620.302,1543.78L622.923,1560.71C623.011,1561.28 622.901,1561.78 622.592,1562.22C622.283,1562.66 621.832,1562.92 621.239,1563.01C620.67,1563.1 620.178,1562.98 619.764,1562.66C619.349,1562.33 619.098,1561.89 619.01,1561.32L615.799,1540.58C615.704,1539.96 615.831,1539.41 616.182,1538.93C616.533,1538.45 617.017,1538.17 617.633,1538.07C617.965,1538.02 618.319,1538.03 618.695,1538.11C619.071,1538.18 619.362,1538.34 619.569,1538.57L635.8,1553.76L635.261,1554.29L632.706,1537.78C632.618,1537.21 632.722,1536.71 633.019,1536.27C633.316,1535.84 633.761,1535.57 634.354,1535.48Z" style="fill:rgb(18,18,18);fill-rule:nonzero;"/>
                <path d="M656.257,1557.56C655.57,1557.66 655.013,1557.56 654.589,1557.25C654.164,1556.94 653.899,1556.44 653.792,1555.75L653.699,1555.15C653.592,1554.46 653.694,1553.9 654.005,1553.48C654.316,1553.05 654.815,1552.79 655.503,1552.68L655.965,1552.61C656.653,1552.5 657.209,1552.61 657.634,1552.92C658.058,1553.23 658.324,1553.73 658.43,1554.41L658.524,1555.02C658.63,1555.71 658.528,1556.26 658.218,1556.69C657.907,1557.11 657.408,1557.38 656.72,1557.48L656.257,1557.56Z" style="fill:rgb(18,18,18);fill-rule:nonzero;"/>
                <path d="M661.87,1556.69C661.182,1556.79 660.626,1556.69 660.202,1556.38C659.777,1556.07 659.512,1555.57 659.405,1554.88L659.311,1554.28C659.205,1553.59 659.307,1553.03 659.618,1552.61C659.929,1552.18 660.428,1551.92 661.116,1551.81L661.578,1551.74C662.266,1551.63 662.822,1551.74 663.247,1552.05C663.671,1552.36 663.937,1552.86 664.043,1553.55L664.137,1554.15C664.243,1554.84 664.141,1555.39 663.83,1555.82C663.52,1556.24 663.02,1556.51 662.333,1556.62L661.87,1556.69Z" style="fill:rgb(18,18,18);fill-rule:nonzero;"/>
                <path d="M667.499,1555.82C666.812,1555.92 666.255,1555.82 665.831,1555.51C665.406,1555.2 665.141,1554.7 665.034,1554.01L664.941,1553.41C664.834,1552.72 664.936,1552.16 665.247,1551.74C665.558,1551.31 666.057,1551.05 666.745,1550.94L667.207,1550.87C667.895,1550.76 668.451,1550.87 668.876,1551.18C669.3,1551.49 669.566,1551.99 669.672,1552.67L669.766,1553.28C669.873,1553.97 669.77,1554.52 669.46,1554.95C669.149,1555.37 668.65,1555.64 667.962,1555.74L667.499,1555.82Z" style="fill:rgb(18,18,18);fill-rule:nonzero;"/>
            </g>
        </g>
    </g>
</svg>
