<?xml version="1.0" encoding="UTF-8" standalone="no"?>
<!DOCTYPE svg PUBLIC "-//W3C//DTD SVG 1.1//EN" "http://www.w3.org/Graphics/SVG/1.1/DTD/svg11.dtd">
<svg width="100%" height="100%" viewBox="0 0 240 46" version="1.1" xmlns="http://www.w3.org/2000/svg" xmlns:xlink="http://www.w3.org/1999/xlink" xml:space="preserve" xmlns:serif="http://www.serif.com/" style="fill-rule:evenodd;clip-rule:evenodd;stroke-linejoin:round;stroke-miterlimit:2;">
    <g transform="matrix(1,0,0,1,-8400,-10014)">
        <g transform="matrix(0.348642,0,0,0.348642,8237.98,9869.39)">
            <path d="M464.706,523.671C464.706,524.911 464.83,526.058 465.078,527.112C465.326,528.166 465.636,529.251 466.008,530.367C466.256,530.987 467.031,531.638 468.333,532.32C469.635,533.002 471.123,533.653 472.797,534.273C474.471,534.893 476.176,535.389 477.912,535.761C479.648,536.133 481.074,536.319 482.19,536.319C486.654,536.319 490.281,535.017 493.071,532.413C495.861,529.809 498.093,526.864 499.767,523.578C501.441,520.292 502.588,517.099 503.208,513.999C503.828,510.899 504.138,508.853 504.138,507.861C504.138,502.405 503.084,496.67 500.976,490.656C498.868,484.642 496.543,478.814 494.001,473.172C491.459,467.53 489.134,462.26 487.026,457.362C484.918,452.464 483.864,448.403 483.864,445.179C483.864,439.971 485.662,435.6 489.258,432.066C492.854,428.532 498.744,426.641 506.928,426.393C510.4,426.269 512.601,425.835 513.531,425.091C514.461,424.347 514.926,422.735 514.926,420.255C514.926,419.263 514.306,418.426 513.066,417.744C511.826,417.062 510.4,416.504 508.788,416.07C507.176,415.636 505.533,415.326 503.859,415.14C502.185,414.954 500.914,414.861 500.046,414.861C496.078,414.861 492.265,416.318 488.607,419.232C484.949,422.146 481.725,425.587 478.935,429.555C476.145,433.523 473.913,437.46 472.239,441.366C470.565,445.272 469.728,448.279 469.728,450.387C469.728,452.743 470.317,455.595 471.495,458.943C472.673,462.291 474.13,465.856 475.866,469.638C477.602,473.42 479.493,477.326 481.539,481.356C483.585,485.386 485.476,489.292 487.212,493.074C488.948,496.856 490.405,500.421 491.583,503.769C492.761,507.117 493.35,510.031 493.35,512.511C493.35,515.239 492.327,517.75 490.281,520.044C488.235,522.338 485.538,523.485 482.19,523.485C478.718,523.485 475.804,522.896 473.448,521.718C471.092,520.54 469.046,519.951 467.31,519.951C466.69,519.951 466.101,520.23 465.543,520.788C464.985,521.346 464.706,522.307 464.706,523.671Z" style="fill:rgb(18,18,18);fill-rule:nonzero;"/>
            <path d="M551.754,477.543C551.754,472.211 552.436,467.127 553.8,462.291C555.164,457.455 557.148,453.239 559.752,449.643C562.356,446.047 565.58,443.164 569.424,440.994C573.268,438.824 577.608,437.739 582.444,437.739C586.04,437.739 589.512,438.452 592.86,439.878C596.208,441.304 599.184,443.598 601.788,446.76C604.392,449.922 606.5,454.107 608.112,459.315C609.724,464.523 610.53,470.971 610.53,478.659C610.53,486.099 609.569,492.206 607.647,496.98C605.725,501.754 603.307,505.505 600.393,508.233C597.479,510.961 594.41,512.821 591.186,513.813C587.962,514.805 585.048,515.301 582.444,515.301C576.244,515.301 571.16,513.751 567.192,510.651C563.224,507.551 560.093,503.924 557.799,499.77C555.505,495.616 553.924,491.431 553.056,487.215C552.188,482.999 551.754,479.775 551.754,477.543ZM538.362,480.519C538.362,488.207 539.54,494.965 541.896,500.793C544.252,506.621 547.29,511.488 551.01,515.394C554.73,519.3 558.946,522.245 563.658,524.229C568.37,526.213 573.02,527.205 577.608,527.205C583.436,527.205 589.047,526.089 594.441,523.857C599.835,521.625 604.64,518.37 608.856,514.092C613.072,509.814 616.451,504.513 618.993,498.189C621.535,491.865 622.806,484.611 622.806,476.427C622.806,467.871 621.814,460.462 619.83,454.2C617.846,447.938 615.18,442.792 611.832,438.762C608.484,434.732 604.578,431.756 600.114,429.834C595.65,427.912 590.938,426.951 585.978,426.951C577.422,426.951 570.137,428.594 564.123,431.88C558.109,435.166 553.18,439.413 549.336,444.621C545.492,449.829 542.702,455.595 540.966,461.919C539.23,468.243 538.362,474.443 538.362,480.519Z" style="fill:rgb(18,18,18);fill-rule:nonzero;"/>
            <path d="M677.304,527.763L677.304,488.889C679.412,488.517 682.481,488.083 686.511,487.587C690.541,487.091 694.757,486.626 699.159,486.192C703.561,485.758 707.777,485.386 711.807,485.076C715.837,484.766 718.906,484.611 721.014,484.611C722.254,484.611 723.308,484.053 724.176,482.937C725.044,481.821 725.478,480.271 725.478,478.287C725.478,476.055 724.3,474.939 721.944,474.939C718.968,474.939 714.969,475.28 709.947,475.962C704.925,476.644 699.19,476.985 692.742,476.985L678.048,476.985C678.048,475.373 678.017,473.792 677.955,472.242C677.893,470.692 677.862,469.111 677.862,467.499C677.862,462.663 677.893,457.858 677.955,453.084C678.017,448.31 678.234,444.125 678.606,440.529C678.854,438.421 679.133,437.119 679.443,436.623C679.753,436.127 680.218,435.817 680.838,435.693C682.946,435.321 685.829,434.949 689.487,434.577C693.145,434.205 697.082,433.802 701.298,433.368C705.514,432.934 709.668,432.5 713.76,432.066C717.852,431.632 721.324,431.167 724.176,430.671C724.796,430.547 725.385,430.206 725.943,429.648C726.501,429.09 726.997,428.47 727.431,427.788C727.865,427.106 728.237,426.393 728.547,425.649C728.857,424.905 729.012,424.347 729.012,423.975C729.012,423.231 728.764,422.735 728.268,422.487C727.772,422.239 727.338,422.115 726.966,422.115C725.602,422.115 723.277,422.208 719.991,422.394C716.705,422.58 712.985,422.766 708.831,422.952C704.677,423.138 700.306,423.324 695.718,423.51C691.13,423.696 686.852,423.789 682.884,423.789C679.288,423.789 676.529,423.634 674.607,423.324C672.685,423.014 670.918,422.859 669.306,422.859C668.438,422.859 667.384,423.262 666.144,424.068C664.904,424.874 663.695,425.835 662.517,426.951C661.339,428.067 660.347,429.214 659.541,430.392C658.735,431.57 658.332,432.469 658.332,433.089C658.332,434.453 658.828,436.189 659.82,438.297C660.812,440.405 662.052,442.513 663.54,444.621C663.664,446.481 663.85,448.806 664.098,451.596C664.346,454.386 664.563,457.114 664.749,459.78C664.935,462.446 665.121,464.864 665.307,467.034C665.493,469.204 665.586,470.661 665.586,471.405C665.586,473.513 665.307,475.435 664.749,477.171C664.191,478.907 663.912,480.767 663.912,482.751C663.912,483.991 664.036,485.076 664.284,486.006C664.532,486.936 664.842,487.897 665.214,488.889C665.586,489.881 665.896,490.997 666.144,492.237C666.392,493.477 666.516,495.151 666.516,497.259C666.516,505.939 666.454,512.914 666.33,518.184C666.206,523.454 666.082,527.608 665.958,530.646C665.834,533.684 665.71,535.978 665.586,537.528C665.462,539.078 665.4,540.473 665.4,541.713C665.4,542.333 665.679,542.922 666.237,543.48C666.795,544.038 667.446,544.565 668.19,545.061C668.934,545.557 669.74,545.96 670.608,546.27C671.476,546.58 672.22,546.735 672.84,546.735C673.708,546.735 674.421,545.929 674.979,544.317C675.537,542.705 676.002,540.845 676.374,538.737C676.746,536.629 676.994,534.521 677.118,532.413C677.242,530.305 677.304,528.755 677.304,527.763Z" style="fill:rgb(18,18,18);fill-rule:nonzero;"/>
            <path d="M838.938,471.405L828.336,488.331C827.22,486.719 825.546,484.301 823.314,481.077C821.082,477.853 818.602,474.226 815.874,470.196C813.146,466.166 810.325,461.888 807.411,457.362C804.497,452.836 801.8,448.496 799.32,444.342C796.84,440.188 794.732,436.437 792.996,433.089C791.26,429.741 790.206,427.137 789.834,425.277C789.586,423.913 789.121,423.014 788.439,422.58C787.757,422.146 786.362,421.929 784.254,421.929C781.526,421.929 779.232,422.146 777.372,422.58C775.512,423.014 774.582,423.913 774.582,425.277C774.582,426.765 774.892,427.912 775.512,428.718C776.132,429.524 776.442,430.981 776.442,433.089C776.442,434.949 776.101,438.018 775.419,442.296C774.737,446.574 773.869,451.441 772.815,456.897C771.761,462.353 770.583,468.119 769.281,474.195C767.979,480.271 766.708,486.068 765.468,491.586C764.228,497.104 763.05,502.002 761.934,506.28C760.818,510.558 759.95,513.689 759.33,515.673C758.214,519.021 757.346,521.594 756.726,523.392C756.106,525.19 755.796,526.585 755.796,527.577C755.796,529.685 757.005,531.049 759.423,531.669C761.841,532.289 764.538,532.599 767.514,532.599C768.754,532.599 769.653,532.382 770.211,531.948C770.769,531.514 771.048,531.049 771.048,530.553C771.048,529.561 770.924,528.569 770.676,527.577C770.428,526.585 770.304,525.593 770.304,524.601C770.304,523.857 770.614,521.563 771.234,517.719C771.854,513.875 772.66,509.256 773.652,503.862C774.644,498.468 775.729,492.64 776.907,486.378C778.085,480.116 779.232,474.164 780.348,468.522C781.464,462.88 782.456,457.889 783.324,453.549C784.192,449.209 784.812,446.295 785.184,444.807C786.424,446.667 788.129,449.24 790.299,452.526C792.469,455.812 794.856,459.377 797.46,463.221C800.064,467.065 802.73,471.033 805.458,475.125C808.186,479.217 810.697,483.061 812.991,486.657C815.285,490.253 817.238,493.446 818.85,496.236C820.462,499.026 821.516,500.979 822.012,502.095C823.004,504.575 823.872,506.187 824.616,506.931C825.36,507.675 826.6,508.047 828.336,508.047C830.072,508.047 831.374,507.706 832.242,507.024C833.11,506.342 833.606,504.947 833.73,502.839C833.854,501.227 834.319,499.305 835.125,497.073C835.931,494.841 837.636,491.462 840.24,486.936C842.844,482.41 846.564,476.303 851.4,468.615C856.236,460.927 862.746,450.821 870.93,438.297C871.798,444.497 872.914,451.1 874.278,458.106C875.642,465.112 877.037,472.428 878.463,480.054C879.889,487.68 881.284,495.554 882.648,503.676C884.012,511.798 885.19,520.075 886.182,528.507C886.43,530.243 886.771,531.359 887.205,531.855C887.639,532.351 888.414,532.599 889.53,532.599C889.902,532.599 890.646,532.444 891.762,532.134C892.878,531.824 894.087,531.452 895.389,531.018C896.691,530.584 897.838,530.057 898.83,529.437C899.822,528.817 900.318,528.135 900.318,527.391C900.318,526.647 899.884,524.353 899.016,520.509C898.148,516.665 897.063,511.86 895.761,506.094C894.459,500.328 893.033,493.973 891.483,487.029C889.933,480.085 888.507,473.234 887.205,466.476C885.903,459.718 884.818,453.332 883.95,447.318C883.082,441.304 882.648,436.375 882.648,432.531C882.648,431.663 882.741,430.64 882.927,429.462C883.113,428.284 883.206,427.013 883.206,425.649C883.206,425.277 882.741,424.843 881.811,424.347C880.881,423.851 879.765,423.386 878.463,422.952C877.161,422.518 875.859,422.146 874.557,421.836C873.255,421.526 872.232,421.371 871.488,421.371C870.62,421.371 869.752,421.836 868.884,422.766C868.016,423.696 866.559,425.866 864.513,429.276C862.467,432.686 859.46,437.708 855.492,444.342C851.524,450.976 846.006,459.997 838.938,471.405Z" style="fill:rgb(18,18,18);fill-rule:nonzero;"/>
            <path d="M947.934,477.543C947.934,472.211 948.616,467.127 949.98,462.291C951.344,457.455 953.328,453.239 955.932,449.643C958.536,446.047 961.76,443.164 965.604,440.994C969.448,438.824 973.788,437.739 978.624,437.739C982.22,437.739 985.692,438.452 989.04,439.878C992.388,441.304 995.364,443.598 997.968,446.76C1000.57,449.922 1002.68,454.107 1004.29,459.315C1005.9,464.523 1006.71,470.971 1006.71,478.659C1006.71,486.099 1005.75,492.206 1003.83,496.98C1001.9,501.754 999.487,505.505 996.573,508.233C993.659,510.961 990.59,512.821 987.366,513.813C984.142,514.805 981.228,515.301 978.624,515.301C972.424,515.301 967.34,513.751 963.372,510.651C959.404,507.551 956.273,503.924 953.979,499.77C951.685,495.616 950.104,491.431 949.236,487.215C948.368,482.999 947.934,479.775 947.934,477.543ZM934.542,480.519C934.542,488.207 935.72,494.965 938.076,500.793C940.432,506.621 943.47,511.488 947.19,515.394C950.91,519.3 955.126,522.245 959.838,524.229C964.55,526.213 969.2,527.205 973.788,527.205C979.616,527.205 985.227,526.089 990.621,523.857C996.015,521.625 1000.82,518.37 1005.04,514.092C1009.25,509.814 1012.63,504.513 1015.17,498.189C1017.72,491.865 1018.99,484.611 1018.99,476.427C1018.99,467.871 1017.99,460.462 1016.01,454.2C1014.03,447.938 1011.36,442.792 1008.01,438.762C1004.66,434.732 1000.76,431.756 996.294,429.834C991.83,427.912 987.118,426.951 982.158,426.951C973.602,426.951 966.317,428.594 960.303,431.88C954.289,435.166 949.36,439.413 945.516,444.621C941.672,449.829 938.882,455.595 937.146,461.919C935.41,468.243 934.542,474.443 934.542,480.519Z" style="fill:rgb(18,18,18);fill-rule:nonzero;"/>
            <path d="M1063.81,462.849L1061.58,508.791C1061.33,512.511 1060.84,515.549 1060.09,517.905C1059.35,520.261 1058.57,522.152 1057.77,523.578C1056.96,525.004 1056.25,526.182 1055.63,527.112C1055.01,528.042 1054.7,529.003 1054.7,529.995C1054.7,531.731 1055.88,532.599 1058.23,532.599C1059.6,532.599 1061.05,532.413 1062.6,532.041C1064.15,531.669 1066.42,531.111 1069.39,530.367C1070.76,529.995 1071.65,529.282 1072.09,528.228C1072.52,527.174 1072.74,526.151 1072.74,525.159C1072.74,523.671 1072.68,521.532 1072.55,518.742C1072.43,515.952 1072.37,513.193 1072.37,510.465C1072.37,507.365 1072.4,503.552 1072.46,499.026C1072.52,494.5 1072.59,489.633 1072.65,484.425C1072.71,479.217 1072.86,473.854 1073.11,468.336C1073.36,462.818 1073.67,457.455 1074.04,452.247C1075.9,454.355 1078.66,457.269 1082.32,460.989C1085.98,464.709 1090.07,468.956 1094.6,473.73C1099.12,478.504 1103.96,483.65 1109.1,489.168C1114.25,494.686 1119.24,500.297 1124.08,506.001C1126.31,508.605 1128.01,511.209 1129.19,513.813C1130.37,516.417 1131.27,518.773 1131.89,520.881C1132.51,522.989 1133.04,524.725 1133.47,526.089C1133.9,527.453 1134.43,528.135 1135.05,528.135C1135.55,528.135 1136.48,527.732 1137.84,526.926C1139.2,526.12 1140.6,525.128 1142.03,523.95C1143.45,522.772 1144.72,521.47 1145.84,520.044C1146.95,518.618 1147.51,517.285 1147.51,516.045C1147.51,512.077 1147.45,508.326 1147.33,504.792C1147.2,501.258 1147.14,497.941 1147.14,494.841C1147.14,484.673 1147.45,475.962 1148.07,468.708C1148.69,461.454 1149.37,455.409 1150.12,450.573C1150.86,445.737 1151.54,441.893 1152.16,439.041C1152.78,436.189 1153.09,434.143 1153.09,432.903C1153.09,431.539 1152.78,430.33 1152.16,429.276C1151.54,428.222 1150.36,427.695 1148.63,427.695C1147.39,427.695 1146.02,427.757 1144.54,427.881C1143.05,428.005 1141.62,428.253 1140.26,428.625C1138.89,428.997 1137.75,429.524 1136.82,430.206C1135.89,430.888 1135.36,431.787 1135.24,432.903C1135.24,433.771 1135.42,434.949 1135.79,436.437C1136.17,437.925 1136.54,439.909 1136.91,442.389C1137.28,444.869 1137.65,447.907 1138.03,451.503C1138.4,455.099 1138.58,459.315 1138.58,464.151C1138.58,470.227 1138.37,476.148 1137.93,481.914C1137.5,487.68 1136.79,493.725 1135.79,500.049C1134.06,498.561 1130.8,495.337 1126.03,490.377C1121.26,485.417 1115.61,479.403 1109.1,472.335C1102.59,465.267 1095.56,457.455 1087.99,448.899C1080.43,440.343 1073.05,431.787 1065.86,423.231C1064.87,421.991 1064.03,421.154 1063.35,420.72C1062.66,420.286 1061.95,420.069 1061.21,420.069C1060.59,420.069 1059.94,420.193 1059.26,420.441C1058.57,420.689 1057.74,421.247 1056.74,422.115L1050.05,427.509C1048.68,428.501 1048,429.431 1048,430.299C1048,431.911 1048.84,433.027 1050.51,433.647C1052.19,434.267 1054.05,434.98 1056.09,435.786C1058.14,436.592 1060,437.925 1061.67,439.785C1063.35,441.645 1064.18,444.683 1064.18,448.899C1064.18,451.255 1064.15,453.58 1064.09,455.874C1064.03,458.168 1063.94,460.493 1063.81,462.849Z" style="fill:rgb(18,18,18);fill-rule:nonzero;"/>
        </g>
    </g>
</svg>
