<?xml version="1.0" encoding="UTF-8" standalone="no"?>
<!DOCTYPE svg PUBLIC "-//W3C//DTD SVG 1.1//EN" "http://www.w3.org/Graphics/SVG/1.1/DTD/svg11.dtd">
<svg width="100%" height="100%" viewBox="0 0 640 112" version="1.1" xmlns="http://www.w3.org/2000/svg" xmlns:xlink="http://www.w3.org/1999/xlink" xml:space="preserve" xmlns:serif="http://www.serif.com/" style="fill-rule:evenodd;clip-rule:evenodd;stroke-linejoin:round;stroke-miterlimit:2;">
    <g transform="matrix(1,0,0,1,-1766.14,-1384.91)">
        <g transform="matrix(1,0,0,1,-3800.72,0)">
            <g transform="matrix(0.84211,0,0,0.84211,5175.52,1035.56)">
                <path d="M464.706,523.671C464.706,524.911 464.83,526.058 465.078,527.112C465.326,528.166 465.636,529.251 466.008,530.367C466.256,530.987 467.031,531.638 468.333,532.32C469.635,533.002 471.123,533.653 472.797,534.273C474.471,534.893 476.176,535.389 477.912,535.761C479.648,536.133 481.074,536.319 482.19,536.319C486.654,536.319 490.281,535.017 493.071,532.413C495.861,529.809 498.093,526.864 499.767,523.578C501.441,520.292 502.588,517.099 503.208,513.999C503.828,510.899 504.138,508.853 504.138,507.861C504.138,502.405 503.084,496.67 500.976,490.656C498.868,484.642 496.543,478.814 494.001,473.172C491.459,467.53 489.134,462.26 487.026,457.362C484.918,452.464 483.864,448.403 483.864,445.179C483.864,439.971 485.662,435.6 489.258,432.066C492.854,428.532 498.744,426.641 506.928,426.393C510.4,426.269 512.601,425.835 513.531,425.091C514.461,424.347 514.926,422.735 514.926,420.255C514.926,419.263 514.306,418.426 513.066,417.744C511.826,417.062 510.4,416.504 508.788,416.07C507.176,415.636 505.533,415.326 503.859,415.14C502.185,414.954 500.914,414.861 500.046,414.861C496.078,414.861 492.265,416.318 488.607,419.232C484.949,422.146 481.725,425.587 478.935,429.555C476.145,433.523 473.913,437.46 472.239,441.366C470.565,445.272 469.728,448.279 469.728,450.387C469.728,452.743 470.317,455.595 471.495,458.943C472.673,462.291 474.13,465.856 475.866,469.638C477.602,473.42 479.493,477.326 481.539,481.356C483.585,485.386 485.476,489.292 487.212,493.074C488.948,496.856 490.405,500.421 491.583,503.769C492.761,507.117 493.35,510.031 493.35,512.511C493.35,515.239 492.327,517.75 490.281,520.044C488.235,522.338 485.538,523.485 482.19,523.485C478.718,523.485 475.804,522.896 473.448,521.718C471.092,520.54 469.046,519.951 467.31,519.951C466.69,519.951 466.101,520.23 465.543,520.788C464.985,521.346 464.706,522.307 464.706,523.671Z" style="fill:rgb(18,18,18);fill-rule:nonzero;"/>
                <path d="M551.754,477.543C551.754,472.211 552.436,467.127 553.8,462.291C555.164,457.455 557.148,453.239 559.752,449.643C562.356,446.047 565.58,443.164 569.424,440.994C573.268,438.824 577.608,437.739 582.444,437.739C586.04,437.739 589.512,438.452 592.86,439.878C596.208,441.304 599.184,443.598 601.788,446.76C604.392,449.922 606.5,454.107 608.112,459.315C609.724,464.523 610.53,470.971 610.53,478.659C610.53,486.099 609.569,492.206 607.647,496.98C605.725,501.754 603.307,505.505 600.393,508.233C597.479,510.961 594.41,512.821 591.186,513.813C587.962,514.805 585.048,515.301 582.444,515.301C576.244,515.301 571.16,513.751 567.192,510.651C563.224,507.551 560.093,503.924 557.799,499.77C555.505,495.616 553.924,491.431 553.056,487.215C552.188,482.999 551.754,479.775 551.754,477.543ZM538.362,480.519C538.362,488.207 539.54,494.965 541.896,500.793C544.252,506.621 547.29,511.488 551.01,515.394C554.73,519.3 558.946,522.245 563.658,524.229C568.37,526.213 573.02,527.205 577.608,527.205C583.436,527.205 589.047,526.089 594.441,523.857C599.835,521.625 604.64,518.37 608.856,514.092C613.072,509.814 616.451,504.513 618.993,498.189C621.535,491.865 622.806,484.611 622.806,476.427C622.806,467.871 621.814,460.462 619.83,454.2C617.846,447.938 615.18,442.792 611.832,438.762C608.484,434.732 604.578,431.756 600.114,429.834C595.65,427.912 590.938,426.951 585.978,426.951C577.422,426.951 570.137,428.594 564.123,431.88C558.109,435.166 553.18,439.413 549.336,444.621C545.492,449.829 542.702,455.595 540.966,461.919C539.23,468.243 538.362,474.443 538.362,480.519Z" style="fill:rgb(18,18,18);fill-rule:nonzero;"/>
                <path d="M677.304,527.763L677.304,488.889C679.412,488.517 682.481,488.083 686.511,487.587C690.541,487.091 694.757,486.626 699.159,486.192C703.561,485.758 707.777,485.386 711.807,485.076C715.837,484.766 718.906,484.611 721.014,484.611C722.254,484.611 723.308,484.053 724.176,482.937C725.044,481.821 725.478,480.271 725.478,478.287C725.478,476.055 724.3,474.939 721.944,474.939C718.968,474.939 714.969,475.28 709.947,475.962C704.925,476.644 699.19,476.985 692.742,476.985L678.048,476.985C678.048,475.373 678.017,473.792 677.955,472.242C677.893,470.692 677.862,469.111 677.862,467.499C677.862,462.663 677.893,457.858 677.955,453.084C678.017,448.31 678.234,444.125 678.606,440.529C678.854,438.421 679.133,437.119 679.443,436.623C679.753,436.127 680.218,435.817 680.838,435.693C682.946,435.321 685.829,434.949 689.487,434.577C693.145,434.205 697.082,433.802 701.298,433.368C705.514,432.934 709.668,432.5 713.76,432.066C717.852,431.632 721.324,431.167 724.176,430.671C724.796,430.547 725.385,430.206 725.943,429.648C726.501,429.09 726.997,428.47 727.431,427.788C727.865,427.106 728.237,426.393 728.547,425.649C728.857,424.905 729.012,424.347 729.012,423.975C729.012,423.231 728.764,422.735 728.268,422.487C727.772,422.239 727.338,422.115 726.966,422.115C725.602,422.115 723.277,422.208 719.991,422.394C716.705,422.58 712.985,422.766 708.831,422.952C704.677,423.138 700.306,423.324 695.718,423.51C691.13,423.696 686.852,423.789 682.884,423.789C679.288,423.789 676.529,423.634 674.607,423.324C672.685,423.014 670.918,422.859 669.306,422.859C668.438,422.859 667.384,423.262 666.144,424.068C664.904,424.874 663.695,425.835 662.517,426.951C661.339,428.067 660.347,429.214 659.541,430.392C658.735,431.57 658.332,432.469 658.332,433.089C658.332,434.453 658.828,436.189 659.82,438.297C660.812,440.405 662.052,442.513 663.54,444.621C663.664,446.481 663.85,448.806 664.098,451.596C664.346,454.386 664.563,457.114 664.749,459.78C664.935,462.446 665.121,464.864 665.307,467.034C665.493,469.204 665.586,470.661 665.586,471.405C665.586,473.513 665.307,475.435 664.749,477.171C664.191,478.907 663.912,480.767 663.912,482.751C663.912,483.991 664.036,485.076 664.284,486.006C664.532,486.936 664.842,487.897 665.214,488.889C665.586,489.881 665.896,490.997 666.144,492.237C666.392,493.477 666.516,495.151 666.516,497.259C666.516,505.939 666.454,512.914 666.33,518.184C666.206,523.454 666.082,527.608 665.958,530.646C665.834,533.684 665.71,535.978 665.586,537.528C665.462,539.078 665.4,540.473 665.4,541.713C665.4,542.333 665.679,542.922 666.237,543.48C666.795,544.038 667.446,544.565 668.19,545.061C668.934,545.557 669.74,545.96 670.608,546.27C671.476,546.58 672.22,546.735 672.84,546.735C673.708,546.735 674.421,545.929 674.979,544.317C675.537,542.705 676.002,540.845 676.374,538.737C676.746,536.629 676.994,534.521 677.118,532.413C677.242,530.305 677.304,528.755 677.304,527.763Z" style="fill:rgb(18,18,18);fill-rule:nonzero;"/>
                <path d="M788.16,469.545L806.946,489.447C811.906,494.779 816.432,499.15 820.524,502.56C824.616,505.97 828.429,508.667 831.963,510.651C835.497,512.635 838.876,513.999 842.1,514.743C845.324,515.487 848.61,515.859 851.958,515.859C860.638,515.859 869.752,513.503 879.3,508.791C888.848,504.079 897.962,497.817 906.642,490.005L918.174,479.589C918.422,480.953 918.763,483.154 919.197,486.192C919.631,489.23 920.127,492.609 920.685,496.329C921.243,500.049 921.801,503.831 922.359,507.675C922.917,511.519 923.382,514.929 923.754,517.905C924.126,521.377 924.715,524.105 925.521,526.089C926.327,528.073 927.474,529.065 928.962,529.065C929.706,529.065 930.698,528.848 931.938,528.414C933.178,527.98 934.387,527.453 935.565,526.833C936.743,526.213 937.766,525.562 938.634,524.88C939.502,524.198 939.936,523.609 939.936,523.113C939.936,521.749 939.409,520.013 938.355,517.905C937.301,515.797 936.123,513.317 934.821,510.465C933.519,507.613 932.341,504.358 931.287,500.7C930.233,497.042 929.706,492.981 929.706,488.517C929.706,481.697 929.954,475.497 930.45,469.917C930.946,464.337 931.535,459.501 932.217,455.409C932.899,451.317 933.488,447.938 933.984,445.272C934.48,442.606 934.728,440.777 934.728,439.785C934.728,439.041 934.387,438.39 933.705,437.832C933.023,437.274 932.217,436.778 931.287,436.344C930.357,435.91 929.427,435.6 928.497,435.414C927.567,435.228 926.854,435.135 926.358,435.135C925.614,435.135 924.901,435.755 924.219,436.995C923.537,438.235 922.824,440.405 922.08,443.505C919.848,452.681 915.973,461.175 910.455,468.987C904.937,476.799 898.83,483.526 892.134,489.168C885.438,494.81 878.649,499.243 871.767,502.467C864.885,505.691 858.902,507.303 853.818,507.303C851.09,507.303 848.021,506.435 844.611,504.699C841.201,502.963 837.605,500.638 833.823,497.724C830.041,494.81 826.228,491.524 822.384,487.866C818.54,484.208 814.851,480.426 811.317,476.52C807.783,472.614 804.497,468.77 801.459,464.988C798.421,461.206 795.848,457.827 793.74,454.851C788.904,447.783 784.905,442.079 781.743,437.739C778.581,433.399 776.039,430.082 774.117,427.788C772.195,425.494 770.676,423.975 769.56,423.231C768.444,422.487 767.452,422.115 766.584,422.115C765.716,422.115 764.693,422.177 763.515,422.301C762.337,422.425 761.19,422.611 760.074,422.859C758.958,423.107 757.997,423.417 757.191,423.789C756.385,424.161 755.982,424.657 755.982,425.277C755.982,426.889 757.005,428.904 759.051,431.322C761.097,433.74 763.391,436.654 765.933,440.064C768.475,443.474 770.769,447.535 772.815,452.247C774.861,456.959 775.884,462.477 775.884,468.801C775.884,471.901 775.295,475.9 774.117,480.798C772.939,485.696 771.42,490.687 769.56,495.771C767.7,500.855 765.654,505.66 763.422,510.186C761.19,514.712 759.082,518.091 757.098,520.323C755.362,522.307 754.246,523.795 753.75,524.787C753.254,525.779 753.006,526.647 753.006,527.391C753.006,527.887 753.285,528.507 753.843,529.251C754.401,529.995 755.114,530.708 755.982,531.39C756.85,532.072 757.78,532.661 758.772,533.157C759.764,533.653 760.694,533.901 761.562,533.901C763.298,533.901 764.693,533.839 765.747,533.715C766.801,533.591 767.638,533.374 768.258,533.064C768.878,532.754 769.312,532.289 769.56,531.669C769.808,531.049 770.056,530.243 770.304,529.251C771.296,524.415 773.497,516.789 776.907,506.373C780.317,495.957 784.068,483.681 788.16,469.545Z" style="fill:rgb(18,18,18);fill-rule:nonzero;"/>
                <path d="M985.878,477.543C985.878,472.211 986.56,467.127 987.924,462.291C989.288,457.455 991.272,453.239 993.876,449.643C996.48,446.047 999.704,443.164 1003.55,440.994C1007.39,438.824 1011.73,437.739 1016.57,437.739C1020.16,437.739 1023.64,438.452 1026.98,439.878C1030.33,441.304 1033.31,443.598 1035.91,446.76C1038.52,449.922 1040.62,454.107 1042.24,459.315C1043.85,464.523 1044.65,470.971 1044.65,478.659C1044.65,486.099 1043.69,492.206 1041.77,496.98C1039.85,501.754 1037.43,505.505 1034.52,508.233C1031.6,510.961 1028.53,512.821 1025.31,513.813C1022.09,514.805 1019.17,515.301 1016.57,515.301C1010.37,515.301 1005.28,513.751 1001.32,510.651C997.348,507.551 994.217,503.924 991.923,499.77C989.629,495.616 988.048,491.431 987.18,487.215C986.312,482.999 985.878,479.775 985.878,477.543ZM972.486,480.519C972.486,488.207 973.664,494.965 976.02,500.793C978.376,506.621 981.414,511.488 985.134,515.394C988.854,519.3 993.07,522.245 997.782,524.229C1002.49,526.213 1007.14,527.205 1011.73,527.205C1017.56,527.205 1023.17,526.089 1028.57,523.857C1033.96,521.625 1038.76,518.37 1042.98,514.092C1047.2,509.814 1050.58,504.513 1053.12,498.189C1055.66,491.865 1056.93,484.611 1056.93,476.427C1056.93,467.871 1055.94,460.462 1053.95,454.2C1051.97,447.938 1049.3,442.792 1045.96,438.762C1042.61,434.732 1038.7,431.756 1034.24,429.834C1029.77,427.912 1025.06,426.951 1020.1,426.951C1011.55,426.951 1004.26,428.594 998.247,431.88C992.233,435.166 987.304,439.413 983.46,444.621C979.616,449.829 976.826,455.595 975.09,461.919C973.354,468.243 972.486,474.443 972.486,480.519Z" style="fill:rgb(18,18,18);fill-rule:nonzero;"/>
                <path d="M1107.15,474.195C1107.15,482.503 1106.62,489.726 1105.57,495.864C1104.52,502.002 1103.4,507.21 1102.22,511.488C1101.04,515.766 1099.93,519.176 1098.87,521.718C1097.82,524.26 1097.29,526.151 1097.29,527.391C1097.29,528.135 1097.57,528.817 1098.13,529.437C1098.69,530.057 1099.37,530.615 1100.17,531.111C1100.98,531.607 1101.85,531.979 1102.78,532.227C1103.71,532.475 1104.48,532.599 1105.1,532.599C1106.59,532.599 1108.02,531.917 1109.38,530.553C1110.75,529.189 1111.74,527.081 1112.36,524.229C1113.23,519.765 1113.94,514.743 1114.5,509.163C1115.06,503.583 1115.52,498.034 1115.89,492.516C1116.26,486.998 1116.61,481.883 1116.91,477.171C1117.23,472.459 1117.57,468.739 1117.94,466.011C1120.17,468.119 1122.4,470.134 1124.63,472.056C1126.87,473.978 1129.38,475.993 1132.17,478.101C1134.96,480.209 1138.21,482.503 1141.93,484.983C1145.65,487.463 1150.18,490.346 1155.51,493.632C1160.84,496.918 1167.17,500.7 1174.48,504.978C1181.8,509.256 1190.42,514.247 1200.34,519.951C1202.2,521.067 1203.65,522.431 1204.71,524.043C1205.76,525.655 1206.66,527.174 1207.4,528.6C1208.15,530.026 1208.8,531.266 1209.36,532.32C1209.91,533.374 1210.57,533.901 1211.31,533.901C1212.18,533.901 1213.29,533.715 1214.66,533.343C1216.02,532.971 1217.36,532.382 1218.66,531.576C1219.96,530.77 1221.11,529.747 1222.1,528.507C1223.09,527.267 1223.59,525.841 1223.59,524.229C1223.59,522.493 1223.49,520.695 1223.31,518.835C1223.12,516.975 1222.87,514.836 1222.56,512.418C1222.25,510 1222.01,507.21 1221.82,504.048C1221.63,500.886 1221.54,497.197 1221.54,492.981C1221.54,479.093 1221.69,468.088 1222.01,459.966C1222.32,451.844 1222.69,445.582 1223.12,441.18C1223.56,436.778 1223.93,433.709 1224.24,431.973C1224.55,430.237 1224.7,428.873 1224.7,427.881C1224.7,426.269 1224.02,425.246 1222.66,424.812C1221.29,424.378 1219.93,424.161 1218.56,424.161C1217.45,424.161 1216.12,424.285 1214.57,424.533C1213.02,424.781 1211.53,425.122 1210.1,425.556C1208.67,425.99 1207.47,426.579 1206.47,427.323C1205.48,428.067 1204.99,428.997 1204.99,430.113C1204.99,431.105 1205.27,431.973 1205.82,432.717C1206.38,433.461 1207,434.329 1207.68,435.321C1208.37,436.313 1209.02,437.553 1209.64,439.041C1210.26,440.529 1210.63,442.513 1210.75,444.993C1211,452.061 1211.25,459.005 1211.5,465.825C1211.74,472.645 1211.87,480.147 1211.87,488.331C1211.87,490.563 1211.84,492.64 1211.78,494.562C1211.71,496.484 1211.62,498.375 1211.5,500.235C1211.37,502.095 1211.22,504.079 1211.03,506.187C1210.85,508.295 1210.63,510.713 1210.38,513.441C1200.83,508.481 1192,503.552 1183.88,498.654C1175.75,493.756 1167.72,488.393 1159.79,482.565C1151.85,476.737 1143.76,470.227 1135.52,463.035C1127.27,455.843 1118.25,447.473 1108.45,437.925C1104.86,434.453 1102,431.756 1099.9,429.834C1097.79,427.912 1096.14,426.486 1094.97,425.556C1093.79,424.626 1092.98,424.068 1092.55,423.882C1092.12,423.696 1091.71,423.603 1091.34,423.603C1088.98,423.603 1087,424.285 1085.39,425.649C1083.78,427.013 1082.97,428.253 1082.97,429.369C1082.97,429.989 1083.12,430.64 1083.43,431.322C1083.75,432.004 1084.4,432.996 1085.39,434.298C1086.38,435.6 1087.81,437.274 1089.67,439.32C1091.53,441.366 1094.01,444.063 1097.11,447.411C1100.7,451.255 1103.28,455.192 1104.83,459.222C1106.38,463.252 1107.15,468.243 1107.15,474.195Z" style="fill:rgb(18,18,18);fill-rule:nonzero;"/>
            </g>
        </g>
    </g>
</svg>
