<?xml version="1.0" encoding="UTF-8" standalone="no"?>
<!DOCTYPE svg PUBLIC "-//W3C//DTD SVG 1.1//EN" "http://www.w3.org/Graphics/SVG/1.1/DTD/svg11.dtd">
<svg width="100%" height="100%" viewBox="0 0 800 463" version="1.1" xmlns="http://www.w3.org/2000/svg" xmlns:xlink="http://www.w3.org/1999/xlink" xml:space="preserve" xmlns:serif="http://www.serif.com/" style="fill-rule:evenodd;clip-rule:evenodd;stroke-linecap:round;stroke-linejoin:round;stroke-miterlimit:1.5;">
    <g transform="matrix(1,0,0,1,0,-111)">
        <g id="development" transform="matrix(3,0,0,8.38099,-1059,-1561.44)">
            <path d="M610.595,232.411L486.429,210.188L362.401,232.436L486.568,254.609L610.595,232.411Z" style="fill:white;"/>
            <clipPath id="_clip1">
                <path d="M610.595,232.411L486.429,210.188L362.401,232.436L486.568,254.609L610.595,232.411Z"/>
            </clipPath>
            <g clip-path="url(#_clip1)">
                <g transform="matrix(0.0969849,-0.0173845,0.12165,0.0216159,495.186,252.872)">
                    <text x="0px" y="0px" style="font-family:'Quicksand-Light', 'Quicksand';font-weight:300;font-size:40.448px;fill:rgb(0,157,222);">DEVEL<tspan x="122.396px " y="0px ">O</tspan>PMENT</text>
                </g>
            </g>
            <path d="M610.595,232.411L486.429,210.188L362.401,232.436L486.568,254.609L610.595,232.411Z" style="fill:none;stroke:rgb(0,157,222);stroke-width:0.16px;stroke-dasharray:0.79,0.79,0,0;"/>
        </g>
        <g id="acceptance" transform="matrix(3,0,0,8.38099,-1059,-1590.48)">
            <path d="M610.595,232.461L486.568,210.263L362.541,232.461L486.568,254.659L610.595,232.461Z" style="fill:white;"/>
            <clipPath id="_clip2">
                <path d="M610.595,232.461L486.568,210.263L362.541,232.461L486.568,254.659L610.595,232.461Z"/>
            </clipPath>
            <g clip-path="url(#_clip2)">
                <g transform="matrix(0.0969849,-0.0173845,0.12165,0.0216159,495.345,252.863)">
                    <text x="0px" y="0px" style="font-family:'Quicksand-Light', 'Quicksand';font-weight:300;font-size:40.448px;fill:rgb(0,157,222);">A<tspan x="26.049px " y="0px ">C</tspan>CEPT<tspan x="148.646px " y="0px ">A</tspan>NCE</text>
                </g>
            </g>
            <path d="M610.595,232.461L486.568,210.263L362.541,232.461L486.568,254.659L610.595,232.461Z" style="fill:none;stroke:rgb(0,157,222);stroke-width:0.16px;stroke-dasharray:0.79,0.79,0,0;"/>
        </g>
        <g id="production" transform="matrix(3,0,0,8.38099,-1059.42,-1618.9)">
            <path d="M610.735,232.437L486.638,210.251L362.681,232.437L486.708,254.635L610.735,232.437Z" style="fill:white;"/>
            <clipPath id="_clip3">
                <path d="M610.735,232.437L486.638,210.251L362.681,232.437L486.708,254.635L610.735,232.437Z"/>
            </clipPath>
            <g clip-path="url(#_clip3)">
                <g transform="matrix(0.0969849,-0.0173845,0.12165,0.0216159,495.326,252.898)">
                    <text x="0px" y="0px" style="font-family:'Quicksand-Light', 'Quicksand';font-weight:300;font-size:40.448px;fill:rgb(0,157,222);">PR<tspan x="50.479px " y="0px ">O</tspan>DUCTION</text>
                </g>
            </g>
            <path d="M610.735,232.437L486.638,210.251L362.681,232.437L486.708,254.635L610.735,232.437Z" style="fill:none;stroke:rgb(0,157,222);stroke-width:0.16px;stroke-dasharray:0.79,0.79,0,0;"/>
        </g>
        <g id="services" transform="matrix(1,0,0,1,-0.414816,-57.4506)">
            <g transform="matrix(1,0,0,0.967037,-200.417,221.65)">
                <path d="M544.292,244.566L515.67,229.767L487.049,244.566L515.67,259.364L544.292,244.566Z" style="fill:rgb(255,180,0);"/>
            </g>
            <g transform="matrix(1,0,0,0.967037,-169.972,178.927)">
                <path d="M542.468,244.349L513.847,229.55L485.225,244.349L513.847,259.148L542.468,244.349Z" style="fill:rgb(255,180,0);"/>
            </g>
            <g transform="matrix(1,0,0,0.967037,-111.849,207.988)">
                <path d="M541.589,243.895L512.967,229.096L484.346,243.895L512.615,258.875L541.589,243.895Z" style="fill:rgb(255,180,0);"/>
            </g>
            <g transform="matrix(1,0,0,0.967037,-27.5666,193.589)">
                <path d="M543.171,243.986L514.55,229.187L485.928,243.986L514.55,258.784L543.171,243.986Z" style="fill:rgb(255,180,0);"/>
            </g>
            <g transform="matrix(1,0,0,0.967037,-54.9574,235.906)">
                <path d="M541.941,244.622L513.319,229.824L484.697,244.986L513.319,259.421L541.941,244.622Z" style="fill:rgb(255,180,0);"/>
            </g>
            <g transform="matrix(1,0,0,0.967037,-83.4032,164.264)">
                <path d="M541.765,244.713L513.143,229.914L484.521,244.713L513.143,259.512L541.765,244.713Z" style="fill:rgb(255,180,0);"/>
            </g>
            <g transform="matrix(1,0,0,0.967037,-142.053,250.832)">
                <path d="M542.757,243.771L514.135,228.973L485.865,243.589L514.135,258.57L542.757,243.771Z" style="fill:rgb(255,180,0);"/>
            </g>
            <g transform="matrix(0.290955,-0.145699,0.364949,0.181162,265.068,430.591)">
                <text x="0px" y="0px" style="font-family:'Quicksand-Light', 'Quicksand';font-weight:300;font-size:40.448px;fill:rgb(255,180,0);">BU<tspan x="54.807px " y="0px ">S</tspan>INESS SER<tspan x="265.946px " y="0px ">V</tspan>ICES</text>
            </g>
        </g>
        <g id="gateway" transform="matrix(3,0,0,8.38099,-1059.42,-1618.9)">
            <g transform="matrix(0.333333,0,0,0.115385,343.46,195.809)">
                <path d="M601.474,243.446L544.231,213.848L486.565,243.227L544.231,273.043L601.474,243.446Z" style="fill:rgb(0,157,222);"/>
            </g>
            <g transform="matrix(0.0969849,-0.0173845,0.12165,0.0216159,505.503,223.529)">
                <text x="0px" y="0px" style="font-family:'Quicksand-Light', 'Quicksand';font-weight:300;font-size:40.448px;fill:rgb(0,157,222);">GA<tspan x="52.299px " y="0px ">T</tspan>EW<tspan x="137.847px 162.358px " y="0px 0px ">AY</tspan></text>
            </g>
        </g>
        <g id="logging" transform="matrix(3,0,0,8.38099,-1073.38,-1597.6)">
            <g transform="matrix(0.333333,0,0,0.115385,257.947,197.454)">
                <path d="M600.067,244.164L542.823,214.567L485.58,244.164L542.823,273.761L600.067,244.164Z" style="fill:rgb(0,157,222);"/>
            </g>
            <g transform="matrix(0.0969849,-0.0173845,0.12165,0.0216159,411.506,225.145)">
                <text x="19.516px" y="0px" style="font-family:'Quicksand-Light', 'Quicksand';font-weight:300;font-size:40.448px;fill:rgb(0,157,222);">L<tspan x="40.226px " y="0px ">O</tspan>GGING &amp;</text>
                <text x="0px" y="40.448px" style="font-family:'Quicksand-Light', 'Quicksand';font-weight:300;font-size:40.448px;fill:rgb(0,157,222);">MONIT<tspan x="127.007px " y="40.448px ">O</tspan>RING</text>
            </g>
        </g>
        <g id="iam" transform="matrix(3,0,0,8.38099,-1074.84,-1597.63)">
            <g transform="matrix(0.333333,0,0,0.115385,296.109,190.624)">
                <path d="M601.057,243.946L543.814,214.349L486.571,243.946L543.814,273.543L601.057,243.946Z" style="fill:rgb(0,157,222);"/>
            </g>
            <g transform="matrix(0.0969849,-0.0173845,0.12165,0.0216159,444.034,219.222)">
                <text x="0px" y="0px" style="font-family:'Quicksand-Light', 'Quicksand';font-weight:300;font-size:40.448px;fill:rgb(0,157,222);">IDENTIT<tspan x="149.577px " y="0px ">Y</tspan> &amp; A<tspan x="246.652px " y="0px ">C</tspan>CESS</text>
                <text x="45.787px" y="40.448px" style="font-family:'Quicksand-Light', 'Quicksand';font-weight:300;font-size:40.448px;fill:rgb(0,157,222);">MANA<tspan x="160.943px " y="40.448px ">G</tspan>EMENT</text>
            </g>
        </g>
        <g id="app" transform="matrix(1,0,0,1,-27.9815,-42.6123)">
            <g transform="matrix(1,0,0,0.967037,57.2433,8.7792)">
                <path d="M657.658,242.167L599.992,212.351L543.172,242.167L600.415,271.765L657.658,242.167Z" style="fill:rgb(0,157,222);"/>
            </g>
            <g transform="matrix(1,0,0,0.967037,134.583,6.7338)">
                <path d="M566.008,244.282L523.075,222.084L480.143,244.282L523.075,266.48L566.008,244.282Z" style="fill:rgb(255,180,0);"/>
            </g>
            <g transform="matrix(0.290955,-0.145699,0.364949,0.181162,616.045,232.9)">
                <text x="0px" y="0px" style="font-family:'Quicksand-Light', 'Quicksand';font-weight:300;font-size:40.448px;fill:rgb(255,180,0);">APP</text>
            </g>
        </g>
        <g id="cicdct" transform="matrix(1,0,0,1,-28.6222,271.906)">
            <g transform="matrix(1,0,0,0.967037,57.2433,8.7792)">
                <path d="M658.299,242.498L601.056,212.901L543.812,242.498L601.056,272.096L658.299,242.498Z" style="fill:rgb(0,157,222);"/>
            </g>
            <g transform="matrix(0.290955,-0.145699,0.364949,0.181162,599.331,240.623)">
                <text x="0px" y="0px" style="font-family:'Quicksand-Light', 'Quicksand';font-weight:300;font-size:40.448px;fill:rgb(0,157,222);">CI/CD/CT</text>
            </g>
        </g>
        <g id="security" transform="matrix(1,0,0,1,194.871,-130.482)">
            <g transform="matrix(1,0,0,0.967037,-339.976,-34.8732)">
                <path d="M517.186,318.978L502.876,311.579L173.726,481.763L188.037,489.163L517.186,318.978Z" style="fill:rgb(0,157,222);"/>
            </g>
            <g transform="matrix(0.290955,-0.145699,0.364949,0.181162,-65.7675,378.81)">
                <text x="0px" y="0px" style="font-family:'Quicksand-Light', 'Quicksand';font-weight:300;font-size:40.448px;fill:rgb(0,157,222);">SECURIT<tspan x="162.035px " y="0px ">Y</tspan> &amp; ENCR<tspan x="338.145px " y="0px ">Y</tspan>PTION</text>
            </g>
        </g>
        <g id="links" transform="matrix(1,0,0,1,-0.000451295,-7.05445e-05)">
            <g transform="matrix(1,0,0,1,3.55271e-15,114)">
                <g transform="matrix(1,-0,-0,1,0.000451295,-2.99993)">
                    <path d="M392.628,139.203L385.92,139.203L389.945,144.57C389.274,142.557 390.615,139.874 392.628,139.203Z" style="fill:rgb(0,157,222);"/>
                    <path d="M390.213,141.35C406.73,149.609 443.636,168.061 443.636,168.061L472.258,153.75" style="fill:none;stroke:rgb(0,157,222);stroke-width:1px;"/>
                </g>
            </g>
            <g transform="matrix(1,0,0,1,-1.06581e-14,114)">
                <g transform="matrix(1,-0,-0,1,0.000451295,-2.99973)">
                    <path d="M636.385,346.947L629.677,346.947L633.702,352.313C633.031,350.301 634.372,347.618 636.385,346.947Z" style="fill:rgb(0,157,222);"/>
                    <path d="M633.97,349.093C646.594,355.405 672.609,368.413 672.609,368.413L643.988,382.724" style="fill:none;stroke:rgb(0,157,222);stroke-width:1px;"/>
                </g>
            </g>
            <g transform="matrix(1,0,0,1,-1.06581e-14,114)">
                <g transform="matrix(1,-0,-0,1,0.000451295,-2.99973)">
                    <path d="M622.074,325.481L615.366,325.48L619.391,330.847C618.72,328.835 620.062,326.151 622.074,325.481Z" style="fill:rgb(0,157,222);"/>
                    <path d="M619.659,327.627C640.431,338.014 701.231,368.413 701.231,368.413L658.298,389.879" style="fill:none;stroke:rgb(0,157,222);stroke-width:1px;"/>
                </g>
            </g>
            <g transform="matrix(1,0,0,1,-1.06581e-14,114)">
                <g transform="matrix(1,-0,-0,1,0.000451295,-3.00023)">
                    <path d="M607.763,304.014L601.055,304.014L605.08,309.381C604.409,307.368 605.751,304.685 607.763,304.014Z" style="fill:rgb(0,157,222);"/>
                    <path d="M605.348,306.161C632.419,319.696 729.852,368.413 729.852,368.413L672.609,397.035" style="fill:none;stroke:rgb(0,157,222);stroke-width:1px;"/>
                </g>
            </g>
            <g transform="matrix(1,0,0,1,3.55271e-15,114)">
                <g transform="matrix(1,-0,-0,1,0.000451295,-2.99993)">
                    <path d="M547.817,126.903L543.812,132.284L550.52,132.259C548.505,131.596 547.153,128.918 547.817,126.903Z" style="fill:rgb(0,157,222);"/>
                    <path d="M548.097,130.122C563.72,122.264 601.055,103.663 601.055,103.663" style="fill:none;stroke:rgb(0,157,222);stroke-width:1px;"/>
                </g>
            </g>
            <g transform="matrix(1,0,0,1,3.55271e-15,114)">
                <g transform="matrix(1,-0,-0,1,0.000451295,-3.00023)">
                    <path d="M447.661,191.316L443.636,196.683L450.344,196.683C448.332,196.012 446.99,193.329 447.661,191.316Z" style="fill:rgb(0,157,222);"/>
                    <path d="M447.929,194.536C463.584,186.709 500.879,168.061 500.879,168.061" style="fill:none;stroke:rgb(0,157,222);stroke-width:1px;"/>
                </g>
            </g>
            <g transform="matrix(0.996915,0,0,0.996915,14.7212,121.539)">
                <g transform="matrix(1.0031,-0,-0,1.0031,-14.7663,-10.5712)">
                    <path d="M278.12,196.557L271.433,196.447L275.356,201.862C274.721,199.845 276.103,197.193 278.12,196.557Z" style="fill:rgb(0,157,222);"/>
                    <path d="M275.677,198.657C284.656,203.244 300.055,210.757 300.055,210.757" style="fill:none;stroke:rgb(0,157,222);stroke-width:1px;"/>
                </g>
            </g>
        </g>
    </g>
</svg>
